v 5 0 3
v 5 2 1
v 5 3 1
v 5 4 0
v 5 4 1
v 5 5 1
v 5 4 2
v 5 4 3
v 5 2 5
v 5 2 4
v 5 3 3
v 5 2 3
v 5 2 2
v 5 1 3
v 0 0 3
v 0 2 1
v 0 3 1
v 0 4 0
v 0 4 1
v 0 5 1
v 0 4 2
v 0 4 3
v 0 2 5
v 0 2 4
v 0 3 3
v 0 2 3
v 0 2 2
v 0 1 3
v 4 3 0
v 3 2 0
v 3 4 0
v 4 3 0
v 4 2 0
v 2 3 0
v 4 4 0
v 4 2 0
v 2 0 0
v 2 2 0
v 2 4 0
v 4 5 0
v 3.666667 1.666667 0.333333
v 3 1 1
v 2.833333 0.833333 1
v 2.4 0.4 1
v 2 1 0
v 3 2 1
v 2.6 2 1
v 2.2 2 1
v 2 2 1
v 2 2.8 1
v 1 2 0
v 2 4 1
v 2.2 4 1
v 2.8 4 1
v 3 4 1
v 3.166667 4.166667 0.833333
v 2 0 1
v 2 0 2
v 2 0 2
v 2 0 3
v 3 1 3
v 2.833333 0.833333 3.166667
v 2 0 4
v 2 0 5
v 2 0 5
v 3.428571 1.428571 3.571429
v 4 2 5
v 2 0 5
v 2 0 5
v 2 0 4
v 2 0.3 4
v 2 0.4 3
v 2 0 3
v 2 0 2
v 2 0.8 1
v 2 1 1
v 2.666667 1.666667 1
v 2.8 1.8 1
v 2 3 1
v 1.333333 2.333333 1.666667
v 0 2 0
v 1.333334 3.333333 1.666666
v 4 2 3
v 3 2 5
v 2 0 5
v 2 1 4
v 2 1 3
v 1.142857 2.142857 1.857143
v 1 2 2
v 0.5 2 2.5
v 0 2 3
v 0.857143 2.857143 2.142857
v 4 2.6 3
v 4 3 5
v 2 1 5
v 2.25 1.249999 3.75
v 2.4 1.4 3
v 2.25 1.249999 3
v 4 3 3
v 3 4 5
v 3 2 4
v 2.666666 1.666665 4.333334
v 2.666667 1.666666 3.333333
v 3 2 3
v 4.333333 3.333333 1.666667
v 5 4 5
v 4 3 2.4
v 4 3 2
v 4 4 5
v 2 3 5
v 2.833333 2 4.166667
v 5 4 1
v 4.75 3.75 1.25
v 4 5 5
v 2 2 5
v 2 4 5
v 2 2 5
v 2.8 2 4.2
v 4.75 4 1.25
v 4.8 4 1.2
v 3.25 4.25 3.75
v 4 5 3
v 4 5 3
v 4 4.6 3
v 4 4 3
v 2 2 5
v 2 3 5
v 1 2 5
v 2 4 5
v 3 4 4
v 4 4 2
v 4 4 2.2
v 2 3 5
v 1.5 2.5 2.5
v 1 2 3
v 0 2 5
v 2 4 5
v 2 3 2
v 2 3 2.6
v 2 3 3
v 2 3 4
v 2 3 4.6
v 0.6 2 3
v 0.4 2 3
v 0.8 2.8 3
v 2 4 4.8
v 2 4 4
v 2 4 3
v 2 4 2.8
v 2 4 2
v 1.75 3.75 2.25
v 1 3 3
v 2 2.4 3
v 2 2.3 4
v 0.5 2.5 3
v 2.2 4 3.8
v 2.25 4 3.75
v 2.4 4 3
v 2 2 3
v 2 2 4
v 3 4 3
v 2.8 4 3
v 2.6 2 3
v 2.666667 2 3.333333
v 2.6 2 3.4
v 2.4 2 3
v 4 5 2
v 4 5 2
v 4 4.4 2
v 5 4 0
v 4 4 0
v 4 4 0.2
v 4 4 1
v 4.2 4 1
v 4.8 4 1
v 4 3 0
v 4.333333 3.333333 1
v 4.2 3.2 1
v 4 3 1
v 4 3 0.4
v 4 2 0
v 4 2.2 1
v 4 2 1
v 4 2 0.6
v 4 2.4 2
v 4 2 2.6
v 4 2 2
v 2 0.6 2
v 2 1 2.2
v 2 1 2
v 2 1 4.2
v 2 2 2
v 2 2 2.4
v 2 2.6 2
v 3 0 1
v 4 0 2
v 3 0 3
v 4 0 1
v 4 0 3
v 4 0 0
v 5 0 1
v 4 5 0
v 4 5 0
v 3 5 1
v 4 5 0
v 4 5 1
v 2 5 1
v 4 5 2
v 4 5 1
v 2 5 2
v 3 5 3
v 5 5 1
v 4 5 1
v 0 5 3
v 1 5 3
v 4 5 3
v 2 5 3
v 2 5 5
v 4 4.2 1
v 2 5 4
v 0 0 3
v 1 0 3
v 2 2 4.4
v 2 4.4 1
v 2.5 4.5 1
v 2.115385 4.423077 1
v 4.038461 4.807693 1
v 4.038461 4.807693 1
v 3 4.6 1
v 4.137931 4.827587 1
v 2 4 0.4
v 4 4 0
v 4 4 0
v 4 4 0
v 4 4 0
v 3 4 0.6
v 2.083333 4 0.416667
v 4.807693 4 0.961539
v 4.761905 4 0.952381
v 4 4 0.8
v 2.884615 4 0.576923
v 4.157895 4 0.831579
v 0.4 2.4 1
v 1 3 1
v 4.423077 2.884615 1
v 4.4 3 1
v 4.3 3 1
v 4.177215 2.835443 1
v 4.160000 3 1
v 4 2.8 1
v 2 2.4 1
v 1.25 2.25 1
v 1.25 3.25 0.75
v 0.2 2 1
v 1 2 1
v 4.6 2 1
v 4.2 2 1
v 4 2 1
v 1.2 2.2 1
v 4.166667 3.166667 0.833333
v 1.666667 4.666667 1.333333
v 4.166667 4.166667 1.833333
v 4.6 4 2
v 4.75 4 2
v 1 4 2
v 4.157895 4 2
v 4.423077 4 2.884615
v 4.4 4 3
v 4.523809 4 2.904762
v 4.5 4 3
v 4.444445 4 2.888889
v 2 4 3
v 0.4 4 2.6
v 0.2 4 3
v 2 4 2.4
v 1 4 3
v 0.8 4 3
v 0.833334 4 2.166667
v 1.666666 4 2.333333
v 4 4 2.8
v 1.8 4 2.2
v 1.25 2 2.75
v 1.4 2 2.6
v 0.4 2 2
v 2 2 2.6
v 4 2 2.2
v 2 2 2
v 4 1 3
v 1 1 3
v 1.25 1.25 2.75
v 1.666667 1.666666 2.333333
v 4 1.2 2.8
v 0.833332 1.833333 2.166666
v 0.2 1 3
v 2 1.6 2.4
v 4 2.2 3
v 0.833334 2.833333 3
v 2 2.6 3
v 1.666667 2.666667 3
v 1.6 2.6 3
v 0.416667 2.916667 3
v 0.576923 2.884615 3
v 2 3 3
v 0.4 3 3
v 0.6 3 3
v 0.833334 2.833333 3
v 2 0 3
v 2 0 3
v 1.666667 0.666667 2.333333
v 4 1 2
v 2 0.5 2.5
v 2 0.8 2.2
v 4.25 1.25 1.75
v 4 1.25 2.75
v 2 1.666667 2.333333
v 4 0.2 3
v 2 0.6 3
v 1 0.8 3
v 0.192307 0.961538 3
v 2.5 0.5 3
v 3 0.4 3
v 0.744681 0.851063 3
v 1.428571 1.428571 1.571429
v 1.636364 1.636363 1.363636
v 4 2 4
v 4 2.666666 3.333334
v 0.5 2 4
v 4 2.8 3.2
v 1 2 4
v 1.250001 2.25 3.75
v 0.8 2 4
v 2 2.4 3.6
v 2 2.249999 3.75
v 0.666667 2.666667 3.333333
v 1.666667 2.666666 3.333334
v 4 2 4.2
v 2.5 2 4.5
v 2.884615 2 4.423077
v 0.909091 2 4.818182
v 3 2 4.4
v 1 2 4.8
v 0.961538 2 4.807693
v 2 2 4.6
v 4 2.4 4.6
v 1.428573 3.428571 3.571429
v 1.833333 2.833333 4.166667
v 4 2.833333 4.166667
v 4.666667 3.666666 3.333334
v 4 3 4
v 0 2 2
v 0.8 1 3
v 2 4.4 1
v 2 2 4.6
v 0.833334 2.833333 3
v 2 2 2
v 0.192307 0.961538 3
v 2.5 2 4.5
v 4 2.2 3
v 3 0.4 3
v 0.833333 0.833333 3
v 2 2.6 3
v 0.8 2 4
v 0.576923 2.884615 3
v 2 2.4 1
v 3 2 5
v 3 0 3
v 4 2 2.2
v 0 4 3
v 4.6 2 1
v 4.423077 2.884615 1
v 0.833334 2.833333 3
v 4.5 4 3
v 4 0.2 3
v 3 2 4.4
v 2 4 0.4
v 4.2 4 1
v 4 5 1
v 4 4 2.8
v 3 4 0.6
v 2.6 2 3
v 4 2 4.2
v 2 4 2.4
v 2 3 3
v 5 2 1
v 2 2 2.6
v 3 4.6 1
v 4.4 3 1
v 2.115385 4.423077 1
v 2.5 0.5 3
v 4 4 0
v 2.083333 4 0.416667
v 1 2 4.8
v 4 4 0.8
v 5 4 3
v 2.115385 4.423077 1
v 4.75 4 2
v 2 0.6 3
v 4.078948 4 2.815789
v 4.038461 4.807693 1
v 0.4 2 2
v 1 0.8 3
v 0.909091 2 4.818182
v 4 2.8 1
vn 1 0 0
vn -1 0 0
vn 0 -0.7071 -0.7071
vn 0 0 -1
vn 0 1 0
vn 0 0.7071 0.7071
vn 0 -1 0
vn 0 0 1
vn 0.7071 -0.7071 0
vn -0.7071 0.7071 0
vn -0.7071 0 -0.7071
vn 0.7071 0 0.7071
f 3//1 7//1 11//1
f 17//2 25//2 21//2
f 2//3 1//3 199//3 197//3 60//3 308//3 307//3 73//3 311//3 312//3
f 3//4 2//4 369//4 16//4 252//4 251//4 250//4 248//4 245//4
f 4//3 3//3 387//3 17//3 253//3
f 5//5 4//5 234//5 171//5 390//5 18//5 231//5 391//5
f 6//4 5//4 175//4 376//4 19//4 224//4 395//4
f 7//6 6//6 262//6
f 8//5 7//5 396//5 21//5 278//5 279//5 281//5 150//5 275//5 280//5 398//5
f 9//6 8//6 270//6 268//6 125//6 148//6 272//6 345//6 344//6
f 10//7 9//7 67//7 365//7 23//7 402//7
f 11//3 10//3 325//3 326//3 328//3
f 12//8 11//8 99//8 303//8 383//8 25//8 301//8 304//8 302//8 306//8 354//8
f 13//7 12//7 83//7 186//7 286//7
f 14//6 13//6 187//6 314//6 292//6
f 1//8 14//8 288//8 61//8 87//8 289//8 351//8 28//8 319//8 322//8 360//8
f 14//1 1//1 2//1
f 3//1 4//1 5//1
f 13//1 14//1 2//1
f 11//1 12//1 13//1
f 9//1 10//1 11//1
f 7//1 8//1 11//1
f 5//1 6//1 7//1
f 13//1 2//1 3//1
f 3//1 5//1 7//1
f 8//1 9//1 11//1
f 11//1 13//1 3//1
f 28//2 16//2 15//2
f 17//2 19//2 18//2
f 27//2 16//2 28//2
f 25//2 27//2 26//2
f 23//2 25//2 24//2
f 21//2 25//2 22//2
f 19//2 21//2 20//2
f 27//2 17//2 16//2
f 17//2 21//2 19//2
f 22//2 25//2 23//2
f 25//2 17//2 27//2
f 2//3 312//3 190//3 309//3 15//3 16//3 369//3
f 3//4 245//4 248//4 250//4 251//4 50//4 79//4 252//4 244//4 243//4 16//4 17//4 387//4
f 4//3 253//3 17//3 18//3 390//3 171//3 234//3
f 5//5 391//5 231//5 18//5 19//5 376//5 175//5
f 6//4 395//4 224//4 19//4 20//4 377//4 209//4
f 7//6 262//6 261//6 20//6 21//6 396//6
f 8//5 269//5 270//5 125//5 280//5 275//5 279//5 278//5 21//5 22//5 372//5
f 9//6 344//6 67//6
f 10//7 402//7 23//7 24//7 362//7 329//7 160//7 101//7 325//7
f 11//3 328//3 99//3
f 12//8 354//8 306//8 302//8 155//8 301//8 25//8 26//8 380//8 104//8 83//8
f 13//7 286//7 187//7
f 14//6 292//6 288//6
f 1//8 360//8 322//8 319//8 15//8 366//8 199//8
f 29//4 30//4 31//4 32//4
f 33//4 30//4 29//4
f 30//4 34//4 31//4
f 32//4 31//4 35//4
f 36//4 37//4 30//4 33//4
f 30//4 38//4 34//4
f 34//4 39//4 31//4
f 35//4 31//4 40//4
f 37//9 36//9 41//9 42//9 43//9 44//9
f 37//4 45//4 30//4
f 38//7 30//7 46//7 47//7 48//7
f 34//2 38//2 49//2 364//2 50//2
f 34//4 51//4 39//4
f 31//5 39//5 375//5 52//5 53//5 54//5 241//5
f 40//10 31//10 379//10 55//10 56//10
f 37//9 44//9 57//9 58//9 59//9 60//9 389//9 61//9 62//9 63//9 64//9 65//9 66//9 67//9 68//9 308//9
f 45//2 37//2 308//2 68//2 69//2 70//2 71//2 72//2 73//2 74//2 57//2 75//2
f 30//10 45//10 76//10 77//10 78//10
f 38//7 48//7 49//7
f 30//10 78//10 46//10
f 34//2 50//2 79//2
f 51//9 34//9 79//9 80//9 259//9
f 51//4 81//4 39//4
f 31//5 241//5 54//5 55//5 379//5
f 39//10 82//10 52//10 375//10
f 83//9 325//9 381//9 67//9 66//9
f 67//8 84//8 68//8
f 45//2 75//2 76//2
f 69//2 68//2 85//2
f 72//2 71//2 86//2 87//2 397//2
f 51//9 259//9 255//9
f 81//7 51//7 255//7 89//7 90//7 400//7
f 39//10 81//10 16//10 350//10 91//10 92//10 82//10
f 93//1 326//1 347//1 94//1 67//1 381//1 325//1 83//1 358//1
f 94//8 84//8 67//8
f 68//8 84//8 95//8 85//8
f 87//10 86//10 96//10 97//10 98//10
f 81//7 400//7 90//7 91//7 350//7 16//7
f 99//1 349//1 347//1 326//1 93//1
f 100//8 84//8 94//8
f 95//10 84//10 374//10 101//10 102//10
f 97//10 96//10 103//10 104//10
f 105//9 348//9 349//9 99//9 107//9 108//9
f 100//8 94//8 109//8
f 84//8 100//8 110//8
f 101//7 374//7 84//7 338//7 340//7 111//7
f 112//9 7//9 8//9 348//9 105//9 113//9
f 109//8 94//8 106//8
f 100//8 109//8 114//8
f 84//8 110//8 115//8
f 110//8 100//8 116//8
f 111//7 338//7 84//7 115//7 117//7 357//7 118//7
f 119//5 263//5 264//5 7//5 112//5 120//5
f 121//10 100//10 114//10 122//10 123//10
f 124//1 114//1 109//1 125//1
f 126//2 115//2 110//2 127//2
f 110//8 116//8 128//8
f 129//5 116//5 100//5 130//5
f 117//8 115//8 126//8
f 131//5 132//5 266//5 263//5 119//5
f 130//10 100//10 121//10
f 122//1 114//1 124//1
f 127//8 110//8 133//8
f 134//9 300//9 335//9 346//9 133//9 110//9 128//9 392//9 135//9
f 128//8 116//8 136//8
f 137//8 116//8 129//8
f 138//9 139//9 140//9 141//9 346//9 335//9 303//9 299//9 300//9 134//9
f 135//7 392//7 128//7 342//7 331//7 143//7
f 143//7 331//7 327//7 24//7 91//7 144//7
f 145//10 334//10 136//10 116//10 137//10 146//10 147//10 148//10 149//10 382//10 150//10 151//10 152//10 371//10
f 153//2 333//2 154//2 141//2 140//2 361//2
f 91//10 24//10 334//10 145//10
f 148//5 147//5 156//5 157//5 158//5
f 159//2 160//2 154//2 333//2 153//2
f 158//5 157//5 161//5 162//5
f 163//7 164//7 165//7 160//7 159//7 166//7
f 104//7 164//7 163//7
f 167//1 168//1 122//1 124//1 169//1
f 169//1 124//1 125//1 378//1 132//1 131//1
f 170//5 171//5 172//5 239//5 238//5
f 170//5 238//5 112//5
f 171//4 170//4 176//4
f 176//9 170//9 260//9
f 176//9 260//9 178//9 179//9 180//9
f 181//1 176//1 180//1 179//1 403//1 182//1
f 181//1 182//1 183//1 184//1
f 108//1 107//1 99//1 93//1 185//1
f 185//1 93//1 358//1 83//1 186//1 367//1 187//1
f 72//2 311//2 188//2 74//2 73//2
f 188//2 311//2 312//2 190//2
f 69//2 71//2 70//2
f 71//2 69//2 85//2 95//2 191//2 86//2
f 192//2 193//2 385//2 159//2 153//2 194//2
f 194//2 153//2 361//2 140//2 139//2 138//2
f 195//7 196//7 197//7
f 58//7 195//7 197//7 59//7
f 195//7 198//7 196//7
f 196//7 199//7 197//7
f 57//7 195//7 58//7
f 59//7 197//7 60//7
f 195//7 200//7 198//7
f 198//7 201//7 196//7
f 199//1 196//1 310//1 187//1 367//1 186//1 314//1
f 64//7 197//7 199//7 65//7
f 195//4 57//4 44//4 43//4
f 60//8 197//8 359//8 61//8 389//8
f 200//11 195//11 42//11 41//11
f 202//1 203//1 171//1 176//1 181//1 184//1 198//1 200//1 234//1
f 201//4 198//4 183//4 182//4 403//4 179//4 178//4 177//4 246//4 370//4
f 196//12 201//12 384//12 3//12 2//12 313//12
f 199//1 314//1 292//1 288//1 373//1
f 196//12 313//12 310//12
f 63//7 197//7 64//7
f 65//12 199//12 373//12 288//12 83//12 66//12
f 195//4 43//4 42//4
f 197//11 62//11 61//11 359//11
f 200//11 41//11 36//11 33//11 29//11 32//11 35//11 40//11 56//11 204//11 202//11 234//11
f 203//1 202//1 205//1
f 198//1 184//1 183//1
f 201//4 370//4 246//4 3//4 384//4
f 197//11 63//11 62//11
f 55//11 386//11 204//11 56//11
f 204//5 206//5 205//5 202//5
f 53//4 388//4 207//4 204//4 386//4 55//4 54//4
f 204//5 208//5 206//5
f 205//8 206//8 209//8
f 52//4 352//4 207//4 388//4 53//4
f 210//5 204//5 207//5
f 204//5 211//5 208//5
f 206//5 208//5 212//5
f 92//11 273//11 214//11 207//11 352//11 52//11 82//11
f 210//5 207//5 215//5
f 211//5 204//5 210//5
f 208//5 211//5 216//5
f 174//4 399//4 213//4 227//4 230//4 112//4 175//4
f 120//12 212//12 208//12 167//12 169//12 131//12 119//12
f 91//11 25//11 22//11 273//11 92//11
f 215//5 207//5 214//5
f 151//12 281//12 279//12 276//12 152//12
f 211//5 210//5 217//5
f 168//1 208//1 216//1 122//1
f 216//5 211//5 218//5
f 173//4 219//4 209//4 213//4 399//4 174//4
f 112//12 212//12 120//12
f 167//8 208//8 168//8
f 155//8 363//8 215//8 214//8 368//8 25//8 91//8
f 150//12 210//12 281//12 151//12
f 152//8 276//8 215//8 363//8 155//8 145//8 371//8
f 162//8 211//8 217//8 148//8 158//8
f 149//2 217//2 210//2 150//2 382//2
f 122//12 216//12 123//12
f 123//12 216//12 218//12 137//12 129//12 130//12 121//12
f 218//5 211//5 220//5
f 161//8 211//8 162//8
f 148//2 217//2 149//2
f 137//2 218//2 146//2
f 146//2 218//2 220//2 147//2
f 156//11 220//11 211//11 161//11 157//11
f 147//11 220//11 156//11
f 57//11 221//11 323//11
f 57//11 323//11 88//11 80//11 79//11 50//11 364//11 49//11 76//11 75//11
f 222//7 221//7 57//7
f 221//8 356//8 294//8 144//8 91//8 28//8
f 76//4 49//4 48//4 47//4 77//4
f 74//7 222//7 57//7
f 221//8 222//8 401//8 135//8 143//8 144//8 294//8 356//8
f 77//4 47//4 46//4 78//4
f 222//12 74//12 188//12 190//12 192//12 194//12 138//12 134//12 283//12 287//12 291//12 290//12
f 222//12 290//12 283//12 134//12 135//12 401//12
f 189//2 315//2 193//2 192//2 190//2
f 87//2 159//2 385//2 193//2 315//2 189//2
f 98//8 166//8 159//8 87//8
f 104//8 163//8 166//8 98//8 97//8
f 118//12 102//12 101//12 111//12
f 102//12 118//12 357//12 117//12 95//12
f 95//2 117//2 353//2 223//2 191//2
f 191//2 223//2 160//2 86//2
f 86//11 160//11 165//11 103//11 96//11
f 103//11 165//11 164//11 104//11
f 190//2 312//2 311//2 72//2 397//2 87//2 189//2
f 145//8 155//8 91//8
f 334//10 24//10 136//10
f 273//11 22//11 25//11 368//11 214//11
f 292//6 314//6 187//6 287//6 192//6 315//6 295//6
f 295//6 315//6 192//6 287//6 291//6
f 291//6 287//6 355//6 27//6 293//6
f 300//9 299//9 303//9 335//9
f 346//9 141//9 142//9 127//9 133//9
f 262//6 6//6 209//6 206//6 204//6 207//6 261//6
f 261//6 207//6 204//6 206//6 209//6 377//6 20//6
f 255//9 259//9 80//9 88//9 89//9
f 112//5 238//5 175//5
f 313//12 2//12 3//12 112//12 113//12
f 345//6 272//6 276//6 277//6 274//6 22//6
f 22//8 274//8 277//8 276//8 272//8 148//8 125//8 268//8 270//8 8//8 372//8
f 276//12 279//12 281//12 210//12 215//12
f 348//9 8//9 7//9 394//9 106//9
f 260//9 170//9 112//9 177//9 178//9
f 187//7 286//7 285//7 282//7 283//7 287//7
f 283//7 282//7 26//7 27//7 355//7 287//7
f 7//5 264//5 263//5 267//5 268//5 270//5 8//5
f 8//5 270//5 268//5 109//5 106//5 394//5 7//5
f 290//12 291//12 287//12 283//12
f 280//5 125//5 270//5 269//5 8//5 398//5
f 111//7 340//7 338//7
f 246//4 177//4 112//4 3//4
f 349//9 348//9 106//9 94//9
f 328//3 326//3 325//3 101//3 160//3 333//3 332//3
f 332//3 333//3 160//3 329//3 330//3
f 330//3 329//3 362//3 24//3
f 24//7 327//7 331//7 342//7 339//7 136//7
f 136//7 339//7 342//7 128//7
f 286//7 186//7 83//7 104//7 163//7 166//7 159//7 285//7
f 285//7 159//7 166//7 163//7 104//7 380//7 26//7 282//7
f 275//5 150//5 281//5 279//5
f 323//11 221//11 28//11 91//11 90//11 89//11 88//11
f 288//6 292//6 295//6 87//6 61//6
f 87//6 295//6 291//6 290//6 289//6
f 290//6 291//6 293//6 27//6 28//6 351//6 289//6
f 238//5 239//5 172//5 393//5 173//5 174//5 175//5
f 292//1 314//1 186//1 83//1 288//1
f 312//3 311//3 73//3 307//3 308//3 60//3 197//3 199//3 366//3 15//3 309//3
f 309//3 190//3 312//3
f 16//4 243//4 244//4 252//4
f 252//4 79//4 50//4 251//4
f 263//5 266//5 132//5 378//5 125//5 109//5 268//5 267//5
f 99//3 328//3 332//3 330//3 335//3 303//3
f 303//3 335//3 330//3 24//3 25//3 383//3
f 319//8 28//8 15//8
f 347//1 349//1 94//1
f 310//12 313//12 113//12 105//12 108//12 185//12 187//12

v 4 4 0
v 4 4 1
v 4 5 0
v 4 5 1
f 404//1 406//1 405//1
f 405//1 406//1 407//1

v 0 2 5
v 0 4 3
v 2 4 3
f 408//6 410//6 409//6

v 2 3 5
v 2 2 5
v 1 2 5
v 2 3 4
f 412//6 414//6 413//6
f 411//2 414//2 412//2
f 411//9 413//9 414//9
