v 16 4 0
v 12 8 0
v 8 4 0
v 9.414214 -4.585786 -1.414214
v 16 0 0
v 8 -8 0
v 14.828426 1.171573 -1.171573
v 13.171573 5.171573 -2.828427
v 20 8 0
v 16 8 0
v 16 12 0
v 9.171573 6.828427 -1.171573
v 8 8 0
v 3.414214 1.414214 -1.414214
v 0 0 0
v 4 0 0
v 8.585786 6.585786 -1.414214
v 12 4 -4
v 8 0 0
v 12 0 0
v 14.585786 0.585786 -1.414214
v 8 -4 0
v 12 8 0
v 16 4 0
v 12 0 0
v 3.414214 1.414214 1.414214
v 8 8 0
v 9.171573 6.828427 1.171573
v 13.171573 5.171573 2.828427
v 16 12 0
v 16 8 0
v 20 8 0
v 14.828427 1.171573 1.171573
v 16 0 0
v 9.414214 -4.585786 1.414214
v 8 -8 0
v 8 -4 0
v 14.585786 0.585786 1.414214
v 12 4 4
v 8 0 0
v 8 4 0
v 8.585786 6.585786 1.414214
v 4 0 0
v 10.666667 -2.666667 0
v 5.333333 2.666667 0
v 12 4 0
v 16 0 0
v 16 0 0
v 12 4 0
v 12 8 0
v 10.666667 -2.666667 0
v 12 4 0
v 16 0 0
vn 0 0 1
vn 0.5 -0.5 -0.7071
vn 0.7071 0 -0.7071
vn 0 0.7071 -0.7071
vn -0.5 0.5 -0.7071
vn 0 -0.7071 -0.7071
vn -0.7071 0 -0.7071
vn 0 0 -1
vn -0.5 0.5 0.7071
vn 0 0.7071 0.7071
vn 0.7071 0 0.7071
vn 0.5 -0.5 0.7071
vn -0.7071 0 0.7071
vn 0 -0.7071 0.7071
f 1//1 2//1 3//1 49//1
f 4//2 47//2 5//2 6//2
f 7//3 8//3 1//3
f 1//2 8//2 9//2
f 9//4 8//4 10//4
f 10//3 8//3 11//3
f 11//5 8//5 23//5 2//5
f 8//4 12//4 2//4 23//4
f 13//5 14//5 15//5
f 15//6 14//6 16//6
f 17//2 12//2 3//2
f 3//7 18//7 19//7
f 18//6 20//6 19//6
f 21//5 4//5 20//5
f 22//7 4//7 6//7
f 1//1 9//1 10//1
f 3//1 19//1 20//1
f 15//1 16//1 45//1
f 2//1 13//1 3//1
f 10//1 11//1 2//1
f 20//1 5//1 1//1
f 1//1 10//1 2//1
f 13//1 15//1 45//1
f 3//1 20//1 1//1 49//1
f 4//2 21//2 34//2 5//2 47//2
f 1//3 5//3 48//3 7//3
f 7//3 18//3 8//3
f 5//3 34//3 21//3 7//3 48//3
f 13//4 2//4 12//4
f 8//4 18//4 12//4
f 12//4 17//4 13//4
f 13//5 17//5 14//5
f 3//2 16//2 14//2
f 14//2 17//2 3//2
f 3//7 12//7 18//7
f 18//6 7//6 20//6
f 22//5 20//5 4//5
f 7//5 21//5 20//5
f 23//8 24//8 25//8 52//8
f 26//9 27//9 15//9
f 28//10 29//10 50//10 23//10
f 23//9 50//9 29//9 30//9
f 30//11 29//11 31//11
f 31//10 29//10 32//10
f 32//12 29//12 24//12
f 29//11 33//11 24//11
f 34//12 35//12 36//12
f 36//13 35//13 37//13
f 38//9 33//9 25//9
f 25//14 39//14 40//14
f 39//13 41//13 40//13
f 42//12 26//12 41//12
f 43//14 26//14 15//14
f 23//8 30//8 31//8
f 25//8 40//8 41//8
f 36//8 37//8 25//8 51//8
f 24//8 34//8 25//8
f 31//8 32//8 24//8
f 41//8 27//8 23//8
f 23//8 31//8 24//8
f 34//8 36//8 51//8 25//8
f 25//8 41//8 23//8 52//8
f 26//9 42//9 27//9
f 23//10 27//10 28//10
f 28//10 39//10 29//10
f 27//10 42//10 28//10
f 34//11 24//11 33//11 53//11
f 29//11 39//11 33//11
f 33//11 38//11 34//11 53//11
f 34//12 38//12 35//12
f 25//9 37//9 35//9
f 35//9 38//9 25//9
f 25//14 33//14 39//14
f 39//13 28//13 41//13
f 43//12 41//12 26//12
f 28//12 42//12 41//12
f 45//1 3//1 13//1
f 44//1 5//1 20//1
f 44//1 6//1 5//1
f 45//1 16//1 3//1
