v 2 0.5 0.5
v 2 -0.5 1.5
v -1 1.5 2.5
v -1 3.5 2.5
v -2 2.5 2.5
v 1 1.5 2.5
v 2 1.5 2.5
v 0 3.5 2.5
v -2 4.5 2.5
v -2 3.5 2.5
v 0 2.5 2.5
v 0 1.5 2.5
v 0 -0.5 2.5
v 0 0.5 2.5
v -2 1.5 2.5
v -3 3.5 2.5
v 2 1.5 1.5
v 2 1.5 -0.5
v 2 3.5 -0.5
v 2 4.5 -0.5
v 2 2.5 1.5
v 2 0.5 2.5
v 2 0.5 1.5
v 2 2.5 0.5
v 2 2.5 -0.5
v 2 2.5 -2.5
v 2 2.5 -1.5
v 2 0.5 -0.5
v 0 4.5 -1.5
v 0 4.5 0.5
v 1 4.5 -0.5
v -2 4.5 0.5
v -1 4.5 -1.5
v -3 4.5 0.5
v 1 4.5 -1.5
v 1 4.5 -2.5
v -1 4.5 -0.5
v -1 4.5 0.5
v -1 4.5 2.5
v -1 4.5 1.5
v 1 4.5 0.5
v 2 4.5 -1.5
v -3 2 2
v -3 1 3
v 0 0 1
v 0 0 -1
v 1 0 0
v -2 0 1
v -3 0 1
v -1 0 -1
v 1 0 -2
v 1 0 -1
v -1 0 0
v -1 0 1
v -1 0 3
v -1 0 2
v 1 0 1
v 2 0 -1
v -3 1 1
v -3 3 1
v -3 3 -1
v -3 3 -2
v -3 1 0
v -3 0 2
v -3 1 2
v -3 2 0
v -3 3 0
v -3 5 0
v -3 4 0
v -3 3 2
v -1 4 -2
v -1 2 -2
v -2 3 -2
v 1 2 -2
v 0 4 -2
v 2 2 -2
v -2 4 -2
v -2 5 -2
v 0 3 -2
v 0 2 -2
v 0 0 -2
v 0 1 -2
v -2 2 -2
v -3 4 -2
vn -0.5774 -0.5774 -0.5774
vn 0 0 1
vn 1 0 0
vn 0 1 0
vn 0.5774 0.5774 0.5774
vn 0.7071 0.7071 0
vn -0.7071 0 -0.7071
vn 0 -0.7071 -0.7071
vn 0.8943 0.4472 0
vn 0.8943 0 -0.4472
vn 0 0.4472 -0.8943
vn 0 0.8943 0.4472
vn -0.4472 0.8943 0
vn 0 0.7071 0.7071
vn -0.8943 0 0.4472
vn 0.7071 0 0.7071
vn -0.7071 -0.7071 0
vn 0.4472 0 0.8943
vn 0.4472 -0.8943 0
vn 0 -0.4472 0.8943
vn 0 -1 0
vn -1 0 0
vn 0 0 -1
vn -0.8943 0 -0.4472
vn -0.8943 0.4472 0
vn 0 0.8943 -0.4472
vn 0 -0.4472 -0.8943
vn 0.4472 0 -0.8943
vn 0.8943 -0.4472 0
vn -0.4472 -0.8943 0
vn -0.4472 0 0.8943
vn 0 -0.8943 0.4472
f 1//1 2//1 3//1
f 4//2 5//2 3//2
f 6//2 7//2 8//2
f 4//2 9//2 10//2
f 11//2 6//2 8//2
f 3//2 12//2 11//2
f 13//2 14//2 3//2
f 5//2 15//2 3//2
f 10//2 16//2 5//2
f 11//2 8//2 4//2
f 4//2 10//2 5//2
f 15//2 13//2 3//2
f 3//2 11//2 4//2
f 17//3 1//3 18//3
f 19//3 20//3 21//3
f 17//3 22//3 23//3
f 24//3 19//3 21//3
f 18//3 25//3 24//3
f 26//3 27//3 18//3
f 1//3 28//3 18//3
f 23//3 2//3 1//3
f 24//3 21//3 17//3
f 17//3 23//3 1//3
f 28//3 26//3 18//3
f 18//3 24//3 17//3
f 29//4 30//4 31//4
f 32//4 33//4 34//4
f 29//4 35//4 36//4
f 37//4 33//4 32//4
f 30//4 37//4 38//4
f 39//4 30//4 40//4
f 31//4 30//4 41//4
f 35//4 31//4 42//4
f 37//4 29//4 33//4
f 29//4 31//4 35//4
f 41//4 30//4 39//4
f 30//4 29//4 37//4
f 31//5 19//5 42//5
f 19//6 31//6 41//6
f 20//7 19//7 41//7
f 42//8 24//8 35//8
f 25//9 35//9 24//9
f 35//9 25//9 36//9
f 36//10 25//10 18//10
f 18//1 29//1 36//1
f 33//11 29//11 26//11
f 22//5 17//5 6//5
f 9//5 4//5 40//5
f 30//7 10//7 9//7
f 38//12 10//12 30//12
f 16//12 10//12 38//12
f 37//13 16//13 38//13
f 34//14 5//14 32//14
f 37//5 32//5 5//5
f 15//15 5//15 34//15
f 28//1 15//1 33//1
f 17//16 21//16 6//16
f 22//17 11//17 23//17
f 12//18 23//18 11//18
f 11//1 17//1 6//1
f 7//8 6//8 21//8
f 28//19 1//19 13//19
f 14//16 13//16 1//16
f 27//6 26//6 29//6
f 14//5 1//5 3//5
f 12//20 3//20 2//20
f 12//18 2//18 23//18
f 20//5 39//5 7//5
f 15//1 28//1 13//1
f 28//1 33//1 26//1
f 33//1 15//1 34//1
f 37//1 5//1 16//1
f 39//17 40//17 8//17
f 40//14 4//14 8//14
f 18//5 27//5 29//5
f 43//5 44//5 45//5
f 46//21 47//21 45//21
f 48//21 49//21 50//21
f 46//21 51//21 52//21
f 53//21 48//21 50//21
f 45//21 54//21 53//21
f 55//21 56//21 45//21
f 47//21 57//21 45//21
f 52//21 58//21 47//21
f 53//21 50//21 46//21
f 46//21 52//21 47//21
f 57//21 55//21 45//21
f 45//21 53//21 46//21
f 59//22 43//22 60//22
f 61//22 62//22 63//22
f 59//22 64//22 65//22
f 66//22 61//22 63//22
f 60//22 67//22 66//22
f 68//22 69//22 60//22
f 43//22 70//22 60//22
f 65//22 44//22 43//22
f 66//22 63//22 59//22
f 59//22 65//22 43//22
f 70//22 68//22 60//22
f 60//22 66//22 59//22
f 71//23 72//23 73//23
f 74//23 75//23 76//23
f 71//23 77//23 78//23
f 79//23 75//23 74//23
f 72//23 79//23 80//23
f 81//23 72//23 82//23
f 73//23 72//23 83//23
f 77//23 73//23 84//23
f 79//23 71//23 75//23
f 71//23 73//23 77//23
f 83//23 72//23 81//23
f 72//23 71//23 79//23
f 73//1 61//1 84//1
f 61//7 73//7 83//7
f 62//6 61//6 83//6
f 84//14 66//14 77//14
f 67//24 77//24 66//24
f 77//24 67//24 78//24
f 78//25 67//25 60//25
f 60//5 71//5 78//5
f 75//26 71//26 68//26
f 64//1 59//1 48//1
f 51//1 46//1 82//1
f 72//6 52//6 51//6
f 80//27 52//27 72//27
f 58//27 52//27 80//27
f 79//28 58//28 80//28
f 76//8 47//8 74//8
f 79//1 74//1 47//1
f 57//29 47//29 76//29
f 70//5 57//5 75//5
f 59//17 63//17 48//17
f 64//16 53//16 65//16
f 54//30 65//30 53//30
f 53//5 59//5 48//5
f 49//14 48//14 63//14
f 70//31 43//31 55//31
f 56//17 55//17 43//17
f 69//7 68//7 71//7
f 56//1 43//1 45//1
f 54//32 45//32 44//32
f 54//30 44//30 65//30
f 62//1 81//1 49//1
f 57//5 70//5 55//5
f 70//5 75//5 68//5
f 75//5 57//5 76//5
f 79//5 47//5 58//5
f 81//16 82//16 50//16
f 82//8 46//8 50//8
f 60//1 69//1 71//1