# Processed with obj-simplify dev | 2018-03-17T02:29:40Z | https://github.com/jonnenauha/obj-simplify

# vertices [237]

v 5 0 0
v 3 0 0
v 4 -1e-06 -1
v 3 1e-06 2
v 5 0 1
v 3 1e-06 3
v 5 -1e-06 -1
v 6 -1e-06 -1
v 4 0 1
v 3 0 1
v 2 0 1
v 3 0 -1
v 5 -1e-06 -2
v 4.937634 0.584331 -0.098017
v 2.985508 0.19603 0.098017
v 3.865437 0.371058 -0.995185
v 3.177776 0.234274 2.088387
v 5.033767 0.603454 0.897168
v 3.27391 0.253397 3.083572
v 4.841499 0.565209 -1.093202
v 5.817562 0.75936 -1.191219
v 4.057704 0.409303 0.995185
v 3.081642 0.215152 1.093202
v 1.129517 -0.17315 1.289236
v 2.10558 0.021001 1.191219
v 2.889375 0.176907 -0.897168
v 4.745366 0.546087 -2.088387
v 4.458606 1.642788 -0.290285
v 2.867272 0.579493 0.290285
v 3.421576 0.949867 -0.95694
v 3.349998 0.90204 2.204165
v 4.699969 1.804062 0.666656
v 3.591361 1.063314 3.161106
v 4.217243 1.481514 -1.247225
v 5.01291 2.013162 -1.53751
v 3.904302 1.272414 0.95694
v 3.108635 0.740766 1.247225
v 1.517301 -0.322529 1.827794
v 2.312968 0.209119 1.537509
v 2.62591 0.418219 -0.666656
v 3.975881 1.320241 -2.204165
v 3.60111 2.39623 -0.471397
v 2.621171 0.929649 0.471397
v 2.849247 1.270987 -0.881921
v 3.144959 1.713553 2.235239
v 3.863003 2.788182 0.410525
v 3.406853 2.105505 3.117161
v 3.339216 2.004278 -1.353318
v 3.829185 2.737569 -1.824715
v 3.373034 2.054891 0.881921
v 2.883065 1.321601 1.353318
v 1.903126 -0.144981 2.296112
v 2.393096 0.58831 1.824715
v 2.359277 0.537696 -0.410525
v 3.077322 1.612326 -2.235239
v 2.540987 2.719728 -0.634393
v 2.239374 1.203413 0.634393
v 2.266417 1.339367 -0.77301
v 2.486902 2.44782 2.180414
v 2.664752 3.341931 0.138617
v 2.610665 3.070024 2.953425
v 2.417224 2.097524 -1.407404
v 2.568031 2.855682 -2.041797
v 2.513945 2.583774 0.773011
v 2.363138 1.825617 1.407404
v 2.061523 0.309302 2.67619
v 2.212331 1.067459 2.041797
v 2.11561 0.58121 -0.138617
v 2.29346 1.475321 -2.180414
v 1.486055 2.583774 -0.77301
v 1.733583 1.339367 0.77301
v 1.760626 1.203413 -0.634393
v 1.431969 2.855681 2.041797
v 1.335248 3.341931 -0.138617
v 1.281162 3.613838 2.67619
v 1.636863 1.825617 -1.407404
v 1.513098 2.447821 -2.180414
v 1.459012 2.719728 0.634393
v 1.582776 2.097524 1.407404
v 1.830304 0.853117 2.953425
v 1.70654 1.47532 2.180414
v 1.88439 0.58121 0.138617
v 1.787669 1.06746 -2.041797
v 0.626966 2.054891 -0.881921
v 1.150753 1.270987 0.881921
v 1.378829 0.929648 -0.471397
v 0.170815 2.737568 1.824715
v 0.136997 2.788182 -0.410525
v -0.319155 3.470859 2.296111
v 1.116935 1.321601 -1.353318
v 0.855042 1.713553 -2.235239
v 0.39889 2.39623 0.471397
v 0.660784 2.004277 1.353318
v 1.184571 1.220373 3.11716
v 0.922678 1.612325 2.235239
v 1.640723 0.537696 0.410525
v 1.606905 0.58831 -1.824715
v 0.095698 1.272414 -0.95694
v 0.578424 0.949867 0.95694
v 1.132728 0.579493 -0.290285
v -1.01291 2.013162 1.53751
v -0.699969 1.804062 -0.666656
v -1.808577 2.544809 1.827794
v 0.891365 0.740766 -1.247225
v 0.650002 0.90204 -2.204165
v -0.458606 1.642788 0.290285
v -0.217243 1.481514 1.247225
v 0.265482 1.158967 3.161106
v 0.024119 1.320241 2.204165
v 1.37409 0.418219 0.666656
v 1.687032 0.209119 -1.53751
v -0.057704 0.409303 -0.995185
v 0.134563 0.371058 0.995185
v 1.014492 0.19603 -0.098017
v -1.817562 0.75936 1.191219
v -1.033767 0.603454 -0.897168
v -2.793625 0.953511 1.289236
v 0.918358 0.215152 -1.093202
v 0.822225 0.234275 -2.088387
v -0.937633 0.584332 0.098017
v -0.841499 0.565209 1.093202
v -0.649232 0.526964 3.083571
v -0.745366 0.546087 2.088387
v 1.110626 0.176907 0.897168
v 1.894421 0.021001 -1.191219
v 3.083557 2.615937 -0.55557
v 2.447177 1.079581 0.55557
v 2.552759 1.334479 -0.83147
v 2.872392 2.106141 2.21851
v 3.296164 3.129217 0.275899
v 3.084999 2.619421 3.049979
v 2.870949 2.102657 -1.38704
v 3.189139 2.870835 -1.94261
v 2.977974 2.361039 0.83147
v 2.659785 1.592862 1.38704
v 2.023405 0.056506 2.498181
v 2.341595 0.824684 1.94261
v 2.23457 0.566301 -0.275899
v 2.658342 1.589377 -2.218509
v 1.022026 2.361039 -0.83147
v 1.447241 1.334479 0.83147
v 1.552823 1.079581 -0.55557
v 0.810861 2.870834 1.94261
v 0.703836 3.129217 -0.275899
v 0.492671 3.639012 2.49818
v 1.340215 1.592861 -1.38704
v 1.127608 2.106141 -2.218509
v 0.916444 2.615937 0.55557
v 1.129051 2.102657 1.38704
v 1.554265 1.076097 3.049979
v 1.341658 1.589377 2.218509
v 1.76543 0.566301 0.275899
v 1.658405 0.824684 -1.94261
v 4.753886 1.140697 -0.19509
v 2.941631 0.390037 0.19509
v 3.667519 0.690709 -0.980785
v 3.302111 0.539353 2.156661
v 4.934126 1.215355 0.785695
v 3.482351 0.61401 3.137446
v 4.573647 1.066039 -1.175876
v 5.479774 1.44137 -1.370966
v 4.027999 0.840025 0.980785
v 3.121871 0.464695 1.175876
v 1.309617 -0.285966 1.566056
v 2.215744 0.089364 1.370966
v 2.761392 0.315379 -0.785695
v 4.393406 0.991381 -2.156661
v -0.027999 0.840025 -0.980785
v 0.332481 0.690709 0.980785
v 1.058368 0.390037 -0.19509
v -1.479774 1.44137 1.370966
v -0.934127 1.215355 -0.785695
v -2.385902 1.8167 1.566056
v 0.878129 0.464695 -1.175876
v 0.697889 0.539353 -2.156661
v -0.753887 1.140697 0.19509
v -0.573647 1.066039 1.175876
v -0.213167 0.916723 3.137446
v -0.393407 0.991381 2.156661
v 1.238608 0.315379 0.785695
v 1.784256 0.089364 -1.370966
v 0.315189 1.684812 -0.92388
v 0.856385 1.143615 0.92388
v 1.239068 0.760932 -0.382683
v -0.450179 2.450178 1.689246
v -0.338093 2.338093 -0.541196
v -1.10346 3.10346 2.07193
v 0.96847 1.03153 -1.306563
v 0.697872 1.302129 -2.230443
v -0.067495 2.067495 0.382683
v 0.203103 1.796897 1.306563
v 0.744299 1.2557 3.154322
v 0.473701 1.526299 2.230443
v 1.509666 0.490334 0.541196
v 1.621752 0.378249 -1.689247
v 4.067495 2.067495 -0.382683
v 2.760932 0.760932 0.382683
v 3.143616 1.143615 -0.92388
v 3.302128 1.302129 2.230443
v 4.338093 2.338093 0.541196
v 3.572726 1.572727 3.154322
v 3.796897 1.796897 -1.306563
v 4.450179 2.450178 -1.689247
v 3.684812 1.684812 0.92388
v 3.03153 1.03153 1.306563
v 1.724967 -0.275032 2.07193
v 2.378248 0.378249 1.689246
v 2.490334 0.490334 -0.541196
v 3.526299 1.526299 -2.230443
v 2 2.707107 -0.707107
v 2 1.292893 0.707107
v 2 1.292893 -0.707107
v 2 2.707107 2.12132
v 2 3.414213 0
v 2 3.414213 2.828427
v 2 2 -1.414214
v 2 2.707107 -2.12132
v 2 2.707107 0.707107
v 2 2 1.414214
v 2 0.585786 2.828427
v 2 1.292893 2.12132
v 2 0.585786 0
v 2 1.292893 -2.12132
v 0 0 -1
v 0 0 1
v 1 0 0
v -2 0 1
v -1 0 -1
v -3 0 1
v 1 0 -1
v 1 0 -2
v -1 0 0
v -1 0 1
v -1 0 3
v -1 0 2
v 1 0 1
v 2 0 -1

# normals [238]

vn 0.6037 -0.7704 0.205
vn -0.0489 -0.9895 0.1357
vn -0.25 -0.8534 -0.4574
vn -0.8607 -0.3545 -0.3654
vn 0.7166 -0.6346 0.2893
vn -0.6462 -0.3679 0.6686
vn 0.2483 -0.9048 -0.3458
vn 0.844 -0.4911 -0.2157
vn -0.2088 -0.9704 0.1217
vn -0.6867 -0.5543 0.4703
vn -0.2848 -0.5271 -0.8007
vn 0.4981 -0.5069 -0.7035
vn -0.2561 -0.8334 -0.4897
vn 0.5776 -0.8059 0.1301
vn -0.2227 -0.9644 0.1426
vn 0.2602 -0.743 0.6167
vn -0.844 -0.498 0.199
vn -0.3094 -0.5855 -0.7494
vn 0.6026 -0.4556 -0.6552
vn 0.1413 -0.9479 -0.2855
vn -0.0586 -0.9811 0.1846
vn -0.6459 -0.5456 0.534
vn -0.5521 -0.4531 0.6999
vn -0.8258 -0.4525 -0.3368
vn 0.5961 -0.7345 0.3244
vn 0.9938 -0.1071 -0.03
vn -0.8794 0.156 0.4498
vn 0.3868 -0.3603 0.8489
vn -0.7892 0.3078 0.5314
vn 0.3809 -0.4677 0.7976
vn -0.6689 0.4269 0.6085
vn 0.3393 -0.5834 0.7379
vn -0.5293 0.5069 0.6804
vn 0.2588 -0.6954 0.6704
vn -0.382 0.5449 0.7464
vn 0.1399 -0.7909 0.5957
vn -0.2394 0.5414 0.8059
vn -0.0129 -0.8573 0.5147
vn -0.1127 0.5005 0.8584
vn -0.1912 -0.8832 0.4282
vn -0.0116 0.4289 0.9033
vn -0.3831 -0.8599 0.3375
vn 0.0566 0.3363 0.94
vn -0.5738 -0.7819 0.2438
vn 0.0879 0.2335 0.9684
vn -0.7468 -0.6483 0.1485
vn 0.0817 0.132 0.9879
vn -0.8848 -0.4628 0.0535
vn 0.0404 0.0427 0.9983
vn -0.9713 -0.2344 -0.039
vn -0.0304 -0.0249 0.9992
vn -0.9917 0.0226 -0.1262
vn -0.1237 -0.0637 0.9903
vn -0.9352 0.2889 -0.2048
vn -0.2314 -0.0685 0.9704
vn -0.7968 0.5404 -0.2705
vn -0.2979 -0.1011 0.9492
vn -0.2247 -0.0779 0.9713
vn -0.1565 -0.0867 0.9839
vn -0.1038 -0.1233 0.9869
vn -0.0748 -0.1807 0.9807
vn -0.0752 -0.2496 0.9654
vn -0.1076 -0.3195 0.9414
vn -0.1713 -0.3796 0.9092
vn -0.2622 -0.4195 0.8691
vn -0.3731 -0.4309 0.8216
vn -0.4948 -0.4076 0.7675
vn -0.6163 -0.3465 0.7072
vn -0.726 -0.2479 0.6414
vn -0.8129 -0.1155 0.5709
vn -0.8671 0.044 0.4962
vn -0.6427 0.1323 0.7546
vn -0.5346 0.2268 0.8141
vn -0.4123 0.2821 0.8662
vn -0.2881 0.2967 0.9105
vn -0.1739 0.2724 0.9463
vn -0.081 0.2147 0.9733
vn -0.0181 0.1319 0.9911
vn 0.0086 0.0347 0.9994
vn -0.0034 -0.0648 0.9979
vn -0.0531 -0.1544 0.9866
vn -0.1359 -0.2227 0.9654
vn -0.2437 -0.2598 0.9344
vn -0.3659 -0.2591 0.8938
vn -0.4905 -0.2169 0.844
vn -0.6044 -0.1338 0.7854
vn -0.7537 0.3794 0.5366
vn -0.6022 0.5039 0.6192
vn -0.4257 0.5804 0.6942
vn -0.239 0.6038 0.7605
vn -0.0578 0.5732 0.8174
vn 0.1028 0.4927 0.8641
vn 0.2291 0.3706 0.9001
vn 0.3106 0.2187 0.925
vn 0.3406 0.0516 0.9388
vn 0.317 -0.1146 0.9415
vn 0.2427 -0.2641 0.9335
vn 0.1249 -0.3826 0.9154
vn -0.0251 -0.4586 0.8883
vn -0.1934 -0.4846 0.8531
vn -0.3647 -0.4576 0.8109
vn -0.7945 0.5346 -0.2879
vn -0.6773 0.7073 -0.2023
vn -0.5117 0.8511 -0.1172
vn -0.3052 0.9517 -0.0341
vn -0.0692 0.9966 0.045
vn 0.181 0.9764 0.1177
vn 0.427 0.8859 0.1813
vn 0.6482 0.7251 0.2323
vn 0.8232 0.5012 0.2669
vn 0.9319 0.2289 0.2813
vn 0.9598 -0.0683 0.2723
vn 0.9016 -0.3606 0.2389
vn 0.765 -0.6173 0.1836
vn 0.5704 -0.8136 0.1126
vn 0.3454 -0.9378 0.0346
vn 0.1274 -0.9918 -0.0139
vn -0.3021 0.1248 0.9451
vn -0.1786 0.1506 0.9723
vn -0.0557 0.1326 0.9896
vn 0.0542 0.072 0.9959
vn 0.1387 -0.0273 0.99
vn 0.1856 -0.1583 0.9698
vn 0.1831 -0.3105 0.9328
vn 0.1201 -0.4677 0.8757
vn -0.0097 -0.6075 0.7942
vn -0.2074 -0.7091 0.6739
vn -0.5106 -0.7685 0.3855
vn 0.111 0.3476 -0.9311
vn 0.5689 0.47 -0.6749
vn 0.7594 0.3566 -0.5441
vn 0.8468 -0.4358 0.305
vn 0.7553 -0.6191 0.2151
vn 0.6169 -0.7771 0.1246
vn 0.4406 -0.897 0.0342
vn 0.2392 -0.9694 -0.0556
vn 0.0274 -0.9891 -0.1444
vn -0.1792 -0.956 -0.2323
vn -0.366 -0.8741 -0.3194
vn -0.5208 -0.7513 -0.4053
vn -0.6343 -0.5982 -0.4897
vn -0.7006 -0.4272 -0.5715
vn -0.7175 -0.2517 -0.6495
vn -0.6865 -0.0848 -0.7222
vn -0.6127 0.0609 -0.788
vn 0.8785 0.1907 -0.438
vn -0.5045 0.175 -0.8455
vn 0.9614 -0.0056 0.275
vn 0.9621 -0.2027 0.1821
vn 0.9139 -0.3963 0.0877
vn 0.8195 -0.5731 -0.0075
vn 0.6852 -0.7211 -0.1026
vn 0.5207 -0.8307 -0.1969
vn 0.3379 -0.8956 -0.2894
vn 0.15 -0.913 -0.3794
vn -0.03 -0.8843 -0.466
vn -0.1897 -0.8144 -0.5484
vn -0.3193 -0.7116 -0.6259
vn -0.4116 -0.5865 -0.6976
vn -0.4631 -0.4511 -0.7629
vn -0.4739 -0.3178 -0.8212
vn -0.4476 -0.1984 -0.8719
vn 0.864 -0.2092 -0.4579
vn 0.7503 -0.3537 -0.5585
vn 0.6093 -0.453 -0.6508
vn 0.4574 -0.5039 -0.7327
vn 0.3096 -0.5093 -0.803
vn 0.1777 -0.4755 -0.8616
vn 0.0704 -0.4104 -0.9092
vn -0.0056 -0.3229 -0.9464
vn -0.046 -0.223 -0.9737
vn -0.0491 -0.1216 -0.9914
vn -0.0162 -0.03 -0.9994
vn 0.0478 0.0413 -0.998
vn 0.1354 0.0837 -0.9873
vn 0.2365 0.091 -0.9674
vn 0.3396 0.0603 -0.9386
vn 0.6361 -0.1007 -0.765
vn 0.5346 -0.1951 -0.8223
vn 0.419 -0.2519 -0.8723
vn 0.3011 -0.2695 -0.9147
vn 0.1925 -0.2497 -0.949
vn 0.104 -0.1977 -0.9747
vn 0.044 -0.1216 -0.9916
vn 0.0186 -0.0316 -0.9993
vn 0.0301 0.0607 -0.9977
vn 0.0776 0.1435 -0.9866
vn 0.1565 0.2058 -0.966
vn 0.2592 0.2383 -0.936
vn 0.3756 0.2344 -0.8966
vn 0.494 0.1908 -0.8483
vn 0.6018 0.1078 -0.7913
vn 0.8685 0.1967 -0.4551
vn 0.7694 0.3461 -0.5368
vn 0.6407 0.461 -0.614
vn 0.4931 0.535 -0.686
vn 0.339 0.5652 -0.7521
vn 0.1908 0.5521 -0.8116
vn 0.0605 0.4999 -0.864
vn -0.0417 0.4157 -0.9086
vn -0.1083 0.3094 -0.9447
vn -0.1344 0.1926 -0.972
vn -0.1191 0.0778 -0.9898
vn -0.0646 -0.0228 -0.9976
vn 0.0233 -0.0981 -0.9949
vn 0.1359 -0.1386 -0.981
vn 0.2623 -0.1377 -0.9551
vn -0.4609 0.0078 -0.8874
vn -0.5283 0.1333 -0.8385
vn -0.5574 0.2809 -0.7813
vn -0.5428 0.4387 -0.7162
vn -0.4827 0.5937 -0.6439
vn -0.3791 0.7329 -0.565
vn -0.2376 0.8443 -0.4804
vn -0.0671 0.918 -0.3909
vn 0.1208 0.9471 -0.2973
vn 0.3134 0.9282 -0.2007
vn 0.4973 0.8616 -0.102
vn 0.6596 0.7516 -0.0023
vn 0.7896 0.6058 0.0975
vn 0.8789 0.4347 0.1963
vn 0.9227 0.2504 0.2931
vn 0.9558 0.0998 0.2766
vn 0.9378 0.2949 0.1834
vn 0.8722 0.4811 0.0886
vn 0.7634 0.6459 -0.007
vn 0.6189 0.7787 -0.1026
vn 0.4489 0.8716 -0.1972
vn 0.2652 0.9196 -0.2899
vn 0.0806 0.9214 -0.3801
vn -0.0927 0.8795 -0.4667
vn -0.2434 0.7995 -0.5491
vn -0.3626 0.69 -0.6265
vn -0.4442 0.5615 -0.6981
vn -0.4857 0.4259 -0.7633
vn -0.4879 0.2952 -0.8214
vn -0.4552 0.1804 -0.8719
vn 0.9571 -0.257 0.1335

# objects [1]

o ht3d_012_houndstoothArch

s 1
f 1//1 2//2 3//3
f 4//4 5//5 6//6
f 1//1 7//7 8//8
f 9//9 5//5 4//4
f 2//2 9//9 10//10
f 3//3 2//2 12//11
f 7//7 3//3 13//12
f 9//9 1//1 5//5
f 1//1 3//3 7//7
f 2//2 1//1 9//9
f 224//13 226//14 225//15
f 227//16 229//17 228//18
f 224//13 231//19 230//20
f 232//21 227//16 228//18
f 225//15 233//22 232//21
f 234//23 235//24 225//15
f 226//14 236//25 225//15
f 230//20 237//26 226//14
f 232//21 228//18 224//13
f 224//13 230//20 226//14
f 236//25 234//23 225//15
f 225//15 232//21 224//13
f 117//27 227//16 115//28
f 173//29 115//28 171//30
f 103//31 171//30 101//32
f 187//33 101//32 185//34
f 89//35 185//34 87//36
f 145//37 87//36 143//38
f 75//39 143//38 73//40
f 215//41 73//40 213//42
f 61//43 213//42 59//44
f 131//45 59//44 129//46
f 47//47 129//46 45//48
f 201//49 45//48 199//50
f 33//51 199//50 31//52
f 159//53 31//52 157//54
f 19//55 157//54 17//56
f 6//6 17//56 4//4
f 120//57 227//16 232//21
f 115//28 176//58 171//30
f 171//30 106//59 101//32
f 101//32 190//60 185//34
f 185//34 92//61 87//36
f 87//36 148//62 143//38
f 143//38 78//63 73//40
f 73//40 218//64 213//42
f 213//42 64//65 59//44
f 59//44 134//66 129//46
f 129//46 50//67 45//48
f 45//48 204//68 199//50
f 199//50 36//69 31//52
f 31//52 162//70 157//54
f 157//54 22//71 17//56
f 17//56 9//9 4//4
f 120//57 233//22 121//72
f 176//58 121//72 177//73
f 106//59 177//73 107//74
f 190//60 107//74 191//75
f 92//61 191//75 93//76
f 148//62 93//76 149//77
f 78//63 149//77 79//78
f 218//64 79//78 219//79
f 64//65 219//79 65//80
f 134//66 65//80 135//81
f 50//67 135//81 51//82
f 204//68 51//82 205//83
f 36//69 205//83 37//84
f 162//70 37//84 163//85
f 22//71 163//85 23//86
f 9//9 23//86 10//10
f 121//72 225//15 113//87
f 113//87 177//73 121//72
f 169//88 107//74 177//73
f 99//89 191//75 107//74
f 183//90 93//76 191//75
f 85//91 149//77 93//76
f 141//92 79//78 149//77
f 71//93 219//79 79//78
f 211//94 65//80 219//79
f 57//95 135//81 65//80
f 127//96 51//82 135//81
f 43//97 205//83 51//82
f 197//98 37//84 205//83
f 29//99 163//85 37//84
f 155//100 23//86 163//85
f 15//101 10//10 23//86
f 123//102 225//15 235//24
f 113//87 179//103 169//88
f 169//88 109//104 99//89
f 99//89 193//105 183//90
f 183//90 95//106 85//91
f 85//91 151//107 141//92
f 141//92 81//108 71//93
f 71//93 221//109 211//94
f 211//94 67//110 57//95
f 57//95 137//111 127//96
f 127//96 53//112 43//97
f 43//97 207//113 197//98
f 197//98 39//114 29//99
f 29//99 165//115 155//100
f 155//100 25//116 15//101
f 15//101 11//117 2//2
f 123//102 234//23 122//118
f 122//118 179//103 123//102
f 178//119 109//104 179//103
f 108//120 193//105 109//104
f 192//121 95//106 193//105
f 94//122 151//107 95//106
f 150//123 81//108 151//107
f 80//124 221//109 81//108
f 220//125 67//110 221//109
f 66//126 137//111 67//110
f 136//127 53//112 137//111
f 52//128 207//113 53//112
f 206//129 39//114 207//113
f 38//130 165//115 39//114
f 164//131 25//116 165//115
f 122//118 236//25 124//132
f 178//119 124//132 180//133
f 108//120 180//133 110//134
f 192//121 110//134 194//135
f 94//122 194//135 96//136
f 150//123 96//136 152//137
f 80//124 152//137 82//138
f 220//125 82//138 222//139
f 66//126 222//139 68//140
f 136//127 68//140 138//141
f 52//128 138//141 54//142
f 206//129 54//142 208//143
f 38//130 208//143 40//144
f 164//131 40//144 166//145
f 24//146 166//145 26//147
f 124//132 226//14 114//148
f 114//148 180//133 124//132
f 170//149 110//134 180//133
f 100//150 194//135 110//134
f 184//151 96//136 194//135
f 86//152 152//137 96//136
f 142//153 82//138 152//137
f 72//154 222//139 82//138
f 212//155 68//140 222//139
f 58//156 138//141 68//140
f 128//157 54//142 138//141
f 44//158 208//143 54//142
f 198//159 40//144 208//143
f 30//160 166//145 40//144
f 156//161 26//147 166//145
f 16//162 12//11 26//147
f 114//148 237//26 125//163
f 170//149 125//163 181//164
f 100//150 181//164 111//165
f 184//151 111//165 195//166
f 86//152 195//166 97//167
f 142//153 97//167 153//168
f 72//154 153//168 83//169
f 212//155 83//169 223//170
f 58//156 223//170 69//171
f 128//157 69//171 139//172
f 44//158 139//172 55//173
f 198//159 55//173 209//174
f 30//160 209//174 41//175
f 156//161 41//175 167//176
f 16//162 167//176 27//177
f 3//3 27//177 13//12
f 125//163 230//20 118//178
f 118//178 181//164 125//163
f 174//179 111//165 181//164
f 104//180 195//166 111//165
f 188//181 97//167 195//166
f 90//182 153//168 97//167
f 146//183 83//169 153//168
f 76//184 223//170 83//169
f 216//185 69//171 223//170
f 62//186 139//172 69//171
f 132//187 55//173 139//172
f 48//188 209//174 55//173
f 202//189 41//175 209//174
f 34//190 167//176 41//175
f 160//191 27//177 167//176
f 20//192 13//12 27//177
f 7//7 21//193 8//8
f 20//192 161//194 21//193
f 160//191 35//195 161//194
f 34//190 203//196 35//195
f 202//189 49//197 203//196
f 48//188 133//198 49//197
f 132//187 63//199 133//198
f 62//186 217//200 63//199
f 216//185 77//201 217//200
f 76//184 147//202 77//201
f 146//183 91//203 147//202
f 90//182 189//204 91//203
f 188//181 105//205 189//204
f 104//180 175//206 105//205
f 174//179 119//207 175//206
f 118//178 231//19 119//207
f 119//207 224//13 112//208
f 112//208 175//206 119//207
f 168//209 105//205 175//206
f 98//210 189//204 105//205
f 182//211 91//203 189//204
f 84//212 147//202 91//203
f 140//213 77//201 147//202
f 70//214 217//200 77//201
f 210//215 63//199 217//200
f 56//216 133//198 63//199
f 126//217 49//197 133//198
f 42//218 203//196 49//197
f 196//219 35//195 203//196
f 28//220 161//194 35//195
f 154//221 21//193 161//194
f 14//222 8//8 21//193
f 1//1 18//223 5//5
f 14//222 158//224 18//223
f 154//221 32//225 158//224
f 28//220 200//226 32//225
f 196//219 46//227 200//226
f 42//218 130//228 46//227
f 126//217 60//229 130//228
f 56//216 214//230 60//229
f 210//215 74//231 214//230
f 70//214 144//232 74//231
f 140//213 88//233 144//232
f 84//212 186//234 88//233
f 182//211 102//235 186//234
f 98//210 172//236 102//235
f 168//209 116//237 172//236
f 112//208 228//18 116//237
f 116//237 229//17 117//27
f 172//236 117//27 173//29
f 102//235 173//29 103//31
f 186//234 103//31 187//33
f 88//233 187//33 89//35
f 144//232 89//35 145//37
f 74//231 145//37 75//39
f 214//230 75//39 215//41
f 60//229 215//41 61//43
f 130//228 61//43 131//45
f 46//227 131//45 47//47
f 200//226 47//47 201//49
f 32//225 201//49 33//51
f 158//224 33//51 159//53
f 18//223 159//53 19//55
f 5//5 19//55 6//6
f 11//117 236//238 12//11
f 12//11 2//2 11//117
f 26//147 12//11 236//238
f 24//146 236//238 11//117
f 24//146 11//117 25//116
f 236//238 24//146 26//147
f 117//27 229//17 227//16
f 173//29 117//27 115//28
f 103//31 173//29 171//30
f 187//33 103//31 101//32
f 89//35 187//33 185//34
f 145//37 89//35 87//36
f 75//39 145//37 143//38
f 215//41 75//39 73//40
f 61//43 215//41 213//42
f 131//45 61//43 59//44
f 47//47 131//45 129//46
f 201//49 47//47 45//48
f 33//51 201//49 199//50
f 159//53 33//51 31//52
f 19//55 159//53 157//54
f 6//6 19//55 17//56
f 120//57 115//28 227//16
f 115//28 120//57 176//58
f 171//30 176//58 106//59
f 101//32 106//59 190//60
f 185//34 190//60 92//61
f 87//36 92//61 148//62
f 143//38 148//62 78//63
f 73//40 78//63 218//64
f 213//42 218//64 64//65
f 59//44 64//65 134//66
f 129//46 134//66 50//67
f 45//48 50//67 204//68
f 199//50 204//68 36//69
f 31//52 36//69 162//70
f 157//54 162//70 22//71
f 17//56 22//71 9//9
f 120//57 232//21 233//22
f 176//58 120//57 121//72
f 106//59 176//58 177//73
f 190//60 106//59 107//74
f 92//61 190//60 191//75
f 148//62 92//61 93//76
f 78//63 148//62 149//77
f 218//64 78//63 79//78
f 64//65 218//64 219//79
f 134//66 64//65 65//80
f 50//67 134//66 135//81
f 204//68 50//67 51//82
f 36//69 204//68 205//83
f 162//70 36//69 37//84
f 22//71 162//70 163//85
f 9//9 22//71 23//86
f 121//72 233//22 225//15
f 113//87 169//88 177//73
f 169//88 99//89 107//74
f 99//89 183//90 191//75
f 183//90 85//91 93//76
f 85//91 141//92 149//77
f 141//92 71//93 79//78
f 71//93 211//94 219//79
f 211//94 57//95 65//80
f 57//95 127//96 135//81
f 127//96 43//97 51//82
f 43//97 197//98 205//83
f 197//98 29//99 37//84
f 29//99 155//100 163//85
f 155//100 15//101 23//86
f 15//101 2//2 10//10
f 123//102 113//87 225//15
f 113//87 123//102 179//103
f 169//88 179//103 109//104
f 99//89 109//104 193//105
f 183//90 193//105 95//106
f 85//91 95//106 151//107
f 141//92 151//107 81//108
f 71//93 81//108 221//109
f 211//94 221//109 67//110
f 57//95 67//110 137//111
f 127//96 137//111 53//112
f 43//97 53//112 207//113
f 197//98 207//113 39//114
f 29//99 39//114 165//115
f 155//100 165//115 25//116
f 15//101 25//116 11//117
f 123//102 235//24 234//23
f 122//118 178//119 179//103
f 178//119 108//120 109//104
f 108//120 192//121 193//105
f 192//121 94//122 95//106
f 94//122 150//123 151//107
f 150//123 80//124 81//108
f 80//124 220//125 221//109
f 220//125 66//126 67//110
f 66//126 136//127 137//111
f 136//127 52//128 53//112
f 52//128 206//129 207//113
f 206//129 38//130 39//114
f 38//130 164//131 165//115
f 164//131 24//146 25//116
f 122//118 234//23 236//25
f 178//119 122//118 124//132
f 108//120 178//119 180//133
f 192//121 108//120 110//134
f 94//122 192//121 194//135
f 150//123 94//122 96//136
f 80//124 150//123 152//137
f 220//125 80//124 82//138
f 66//126 220//125 222//139
f 136//127 66//126 68//140
f 52//128 136//127 138//141
f 206//129 52//128 54//142
f 38//130 206//129 208//143
f 164//131 38//130 40//144
f 24//146 164//131 166//145
f 124//132 236//25 226//14
f 114//148 170//149 180//133
f 170//149 100//150 110//134
f 100//150 184//151 194//135
f 184//151 86//152 96//136
f 86//152 142//153 152//137
f 142//153 72//154 82//138
f 72//154 212//155 222//139
f 212//155 58//156 68//140
f 58//156 128//157 138//141
f 128//157 44//158 54//142
f 44//158 198//159 208//143
f 198//159 30//160 40//144
f 30//160 156//161 166//145
f 156//161 16//162 26//147
f 16//162 3//3 12//11
f 114//148 226//14 237//26
f 170//149 114//148 125//163
f 100//150 170//149 181//164
f 184//151 100//150 111//165
f 86//152 184//151 195//166
f 142//153 86//152 97//167
f 72//154 142//153 153//168
f 212//155 72//154 83//169
f 58//156 212//155 223//170
f 128//157 58//156 69//171
f 44//158 128//157 139//172
f 198//159 44//158 55//173
f 30//160 198//159 209//174
f 156//161 30//160 41//175
f 16//162 156//161 167//176
f 3//3 16//162 27//177
f 125//163 237//26 230//20
f 118//178 174//179 181//164
f 174//179 104//180 111//165
f 104//180 188//181 195//166
f 188//181 90//182 97//167
f 90//182 146//183 153//168
f 146//183 76//184 83//169
f 76//184 216//185 223//170
f 216//185 62//186 69//171
f 62//186 132//187 139//172
f 132//187 48//188 55//173
f 48//188 202//189 209//174
f 202//189 34//190 41//175
f 34//190 160//191 167//176
f 160//191 20//192 27//177
f 20//192 7//7 13//12
f 7//7 20//192 21//193
f 20//192 160//191 161//194
f 160//191 34//190 35//195
f 34//190 202//189 203//196
f 202//189 48//188 49//197
f 48//188 132//187 133//198
f 132//187 62//186 63//199
f 62//186 216//185 217//200
f 216//185 76//184 77//201
f 76//184 146//183 147//202
f 146//183 90//182 91//203
f 90//182 188//181 189//204
f 188//181 104//180 105//205
f 104//180 174//179 175//206
f 174//179 118//178 119//207
f 118//178 230//20 231//19
f 119//207 231//19 224//13
f 112//208 168//209 175//206
f 168//209 98//210 105//205
f 98//210 182//211 189//204
f 182//211 84//212 91//203
f 84//212 140//213 147//202
f 140//213 70//214 77//201
f 70//214 210//215 217//200
f 210//215 56//216 63//199
f 56//216 126//217 133//198
f 126//217 42//218 49//197
f 42//218 196//219 203//196
f 196//219 28//220 35//195
f 28//220 154//221 161//194
f 154//221 14//222 21//193
f 14//222 1//1 8//8
f 1//1 14//222 18//223
f 14//222 154//221 158//224
f 154//221 28//220 32//225
f 28//220 196//219 200//226
f 196//219 42//218 46//227
f 42//218 126//217 130//228
f 126//217 56//216 60//229
f 56//216 210//215 214//230
f 210//215 70//214 74//231
f 70//214 140//213 144//232
f 140//213 84//212 88//233
f 84//212 182//211 186//234
f 182//211 98//210 102//235
f 98//210 168//209 172//236
f 168//209 112//208 116//237
f 112//208 224//13 228//18
f 116//237 228//18 229//17
f 172//236 116//237 117//27
f 102//235 172//236 173//29
f 186//234 102//235 103//31
f 88//233 186//234 187//33
f 144//232 88//233 89//35
f 74//231 144//232 145//37
f 214//230 74//231 75//39
f 60//229 214//230 215//41
f 130//228 60//229 61//43
f 46//227 130//228 131//45
f 200//226 46//227 47//47
f 32//225 200//226 201//49
f 158//224 32//225 33//51
f 18//223 158//224 159//53
f 5//5 18//223 19//55

