v 0 3 -2
v 0 5 0
v 2 3 0
v 2 3 1
v -1 5 0
v 0 2 -2
v 0 5 1
v 2 4 0
v -1 3 -2
v 0 5 -1
v 2 2 0
v 1 3 -2
v 1 5 0
v 2 5 0
v 0 4 -2
v 0 5 -2
v 2 3 -1
v 2 3 -2
v 0 5 2
v 2 3 2
v -2 3 -2
v -2 5 0
v 2 1 0
v 0 1 -2
v 2 2 2
v -2 5 1
v -1 1 -2
v 2 1 3
v -1 5 2
v -3 5 2
v -2 2 -2
v -2 0 -2
v 2 1 1
v -2 5 3
v 2 1 2
v -3 1 -2
v -2 5 2
v 2 0 2
v -2 1 -2
v -1 0 1
v -1 2 3
v -3 2 1
v -3 3 1
v 0 2 3
v -1 0 0
v -1 3 3
v -3 2 2
v 0 0 1
v -1 1 3
v -3 2 0
v -2 0 1
v -2 2 3
v -3 2 3
v -1 0 2
v -1 0 3
v -3 1 1
v -3 0 1
v -1 4 3
v -3 4 1
v 1 0 1
v 1 2 3
v -3 2 -1
v -1 0 -1
v -3 4 0
v 1 3 3
v 0 0 -1
v -3 5 -1
v 0 4 3
v 2 4 3
v 1 0 0
v 1 0 -2
v -3 3 -1
v 1 5 3
v -3 4 -1
v 2 0 -1
v 1 4 3
v -3 4 -2
v 1 0 -1
vn 0.5774 0.5774 -0.5773
vn 0.7071 0.7071 0
vn 0 0.7071 -0.7071
vn 0.7071 0 -0.7071
vn -0.5774 -0.5773 -0.5774
vn 0.5773 -0.5774 0.5774
vn 0.5774 -0.5774 0.5774
vn -0.5774 0.5774 0.5774
vn -0.5774 0.5773 0.5774
vn 0 0 -1
vn 1 0 0
vn 0 1 0
vn 0.5774 0.5774 0.5774
vn -0.5773 0.5774 -0.5774
vn 0.5774 -0.5774 -0.5774
vn 0 0 1
vn -1 0 0
vn 0 -1 0
vn -0.5774 0.5774 -0.5774
vn -0.7071 -0.7071 0
vn 0 -0.7071 0.7071
vn -0.7071 0 0.7071
vn -0.5774 -0.5774 0.5774
vn -0.5773 0.5774 0.5774
vn -0.5774 -0.5774 -0.5774
vn 0.5774 0.5774 -0.5774
f 1//1 2//1 3//1
f 2//2 4//2 3//2
f 1//3 5//3 2//3
f 3//4 6//4 1//4
f 7//5 8//5 4//5
f 9//6 10//7 5//7
f 11//8 12//8 6//9
f 8//10 13//10 14//10
f 10//11 15//11 16//11
f 12//12 17//12 18//12
f 14//13 19//13 20//13
f 16//14 21//14 22//14
f 18//15 23//15 24//15
f 19//16 25//16 20//16
f 21//17 26//17 22//17
f 23//18 27//18 24//18
f 28//13 25//13 29//13
f 30//19 26//19 31//19
f 32//15 27//15 33//15
f 34//20 35//20 28//20
f 36//21 37//21 30//21
f 38//22 39//22 32//22
f 35//23 37//23 39//23
f 25//11 33//11 11//11
f 26//12 29//12 7//12
f 27//10 31//10 9//10
f 2//2 7//2 4//2
f 1//3 9//3 5//3
f 3//4 11//4 6//4
f 7//5 13//5 8//5
f 9//6 15//6 10//7
f 11//8 17//24 12//8
f 19//16 29//16 25//16
f 21//17 31//17 26//17
f 23//18 33//18 27//18
f 28//13 29//13 34//13
f 30//19 31//19 36//19
f 32//15 33//15 38//15
f 34//20 37//20 35//20
f 36//21 39//21 37//21
f 38//22 35//22 39//22
f 11//11 3//11 4//11
f 4//11 8//11 14//11
f 14//11 20//11 4//11
f 25//11 28//11 35//11
f 35//11 38//11 33//11
f 33//11 23//11 11//11
f 18//11 17//11 11//11
f 4//11 20//11 25//11
f 23//11 18//11 11//11
f 11//11 4//11 25//11
f 25//11 35//11 33//11
f 7//12 2//12 5//12
f 5//12 10//12 16//12
f 16//12 22//12 5//12
f 26//12 30//12 37//12
f 37//12 34//12 29//12
f 29//12 19//12 7//12
f 14//12 13//12 7//12
f 5//12 22//12 26//12
f 19//12 14//12 7//12
f 7//12 5//12 26//12
f 26//12 37//12 29//12
f 9//10 1//10 6//10
f 6//10 12//10 18//10
f 18//10 24//10 6//10
f 27//10 32//10 39//10
f 39//10 36//10 31//10
f 31//10 21//10 9//10
f 16//10 15//10 9//10
f 6//10 24//10 27//10
f 21//10 16//10 9//10
f 9//10 6//10 27//10
f 27//10 39//10 31//10
f 40//23 41//23 42//23
f 41//22 43//22 42//22
f 40//21 44//21 41//21
f 42//20 45//20 40//20
f 46//15 47//15 43//15
f 48//19 49//19 44//19
f 50//13 51//13 45//13
f 47//18 52//18 53//18
f 49//17 54//17 55//17
f 51//16 56//16 57//16
f 53//8 58//8 59//8
f 55//7 60//7 61//7
f 57//25 62//25 63//25
f 58//12 64//12 59//12
f 60//11 65//11 61//11
f 62//10 66//10 63//10
f 67//8 64//8 68//8
f 69//7 65//7 70//7
f 71//25 66//25 72//25
f 73//4 74//4 67//4
f 75//3 76//3 69//3
f 77//2 78//2 71//2
f 74//26 76//26 78//26
f 64//17 72//17 50//17
f 65//16 68//16 46//16
f 66//18 70//18 48//18
f 41//22 46//22 43//22
f 40//21 48//21 44//21
f 42//20 50//20 45//20
f 46//15 52//15 47//15
f 48//19 54//19 49//19
f 50//13 56//13 51//13
f 58//12 68//12 64//12
f 60//11 70//11 65//11
f 62//10 72//10 66//10
f 67//8 68//8 73//8
f 69//7 70//7 75//7
f 71//25 72//25 77//25
f 73//4 76//4 74//4
f 75//3 78//3 76//3
f 77//2 74//2 78//2
f 50//17 42//17 43//17
f 43//17 47//17 53//17
f 53//17 59//17 43//17
f 64//17 67//17 74//17
f 74//17 77//17 72//17
f 72//17 62//17 50//17
f 57//17 56//17 50//17
f 43//17 59//17 64//17
f 62//17 57//17 50//17
f 50//17 43//17 64//17
f 64//17 74//17 72//17
f 46//16 41//16 44//16
f 44//16 49//16 55//16
f 55//16 61//16 44//16
f 65//16 69//16 76//16
f 76//16 73//16 68//16
f 68//16 58//16 46//16
f 53//16 52//16 46//16
f 44//16 61//16 65//16
f 58//16 53//16 46//16
f 46//16 44//16 65//16
f 65//16 76//16 68//16
f 48//18 40//18 45//18
f 45//18 51//18 57//18
f 57//18 63//18 45//18
f 66//18 71//18 78//18
f 78//18 75//18 70//18
f 70//18 60//18 48//18
f 55//18 54//18 48//18
f 45//18 63//18 66//18
f 60//18 55//18 48//18
f 48//18 45//18 66//18
f 66//18 78//18 70//18
