# Processed with obj-simplify dev | 2018-03-17T02:40:47Z | https://github.com/jonnenauha/obj-simplify

# vertices [36]

v 0 -1.414214 -1
v 1 -1.414214 0
v 0 -1.414214 1
v -2.146446 -0.5 0.646446
v -1 0 -1
v -3 0 1
v -0.707107 -0.414214 -0.707107
v 0.292893 -1 -0.292893
v 0 0 -1
v 1 0 -2
v 1 0 -1
v 2 0 -1
v 1 0 0
v 0.707107 -0.414214 0.707107
v 1 0 1
v -0.646446 -0.5 2.146446
v -1 0 3
v -1 0 2
v 0.646446 -0.5 0.853554
v 0 0 1
v 0 -1.414214 0
v -1 0 1
v -1 0 0
v -0.853554 -0.5 -0.646446
v -2 0 1
v -3 -1.414214 1
v -1 -1.414214 -1
v 1 -1.414214 -2
v 1 -1.414214 -1
v 2 -1.414214 -1
v 1 -1.414214 1
v -1 -1.414214 3
v -1 -1.414214 2
v -1 -1.414214 1
v -1 -1.414214 0
v -2 -1.414214 1

# normals [13]

vn 0 -1 0
vn 0.5774 0.5774 0.5774
vn 0 0.5774 0.8165
vn -0.8165 0.5774 0
vn -0.5774 0.5774 -0.5774
vn 0.8165 0.5774 0
vn 0 0.5774 -0.8165
vn -0.7071 0 -0.7071
vn 0 0 -1
vn 1 0 0
vn 0.7071 0 0.7071
vn -1 0 0
vn 0 0 1

# objects [1]

o ht3d_035_houndstrudeConcaveMiteredByEdges

f 1//1 2//1 3//1
f 4//2 5//2 6//2
f 7//3 8//3 9//3
f 9//2 8//2 10//2
f 10//4 8//4 11//4
f 11//3 8//3 12//3
f 12//5 8//5 13//5
f 8//4 14//4 13//4
f 15//5 16//5 17//5
f 17//6 16//6 18//6
f 19//2 14//2 20//2
f 20//7 21//7 22//7
f 21//6 23//6 22//6
f 24//5 4//5 23//5
f 25//7 4//7 6//7
f 5//8 26//8 6//8
f 9//9 27//9 5//9
f 10//8 1//8 9//8
f 11//10 28//10 10//10
f 12//9 29//9 11//9
f 13//11 30//11 12//11
f 15//10 2//10 13//10
f 17//11 31//11 15//11
f 18//12 32//12 17//12
f 20//8 33//8 18//8
f 22//13 3//13 20//13
f 23//12 34//12 22//12
f 25//11 35//11 23//11
f 6//13 36//13 25//13
f 35//1 36//1 26//1
f 26//1 27//1 35//1
f 1//1 28//1 29//1
f 29//1 30//1 2//1
f 2//1 31//1 3//1
f 32//1 33//1 3//1
f 3//1 34//1 35//1
f 35//1 27//1 1//1
f 1//1 29//1 2//1
f 31//1 32//1 3//1
f 3//1 35//1 1//1
f 4//2 24//2 5//2
f 9//3 5//3 7//3
f 7//3 21//3 8//3
f 5//3 24//3 7//3
f 15//4 13//4 14//4
f 8//4 21//4 14//4
f 14//4 19//4 15//4
f 15//5 19//5 16//5
f 20//2 18//2 16//2
f 16//2 19//2 20//2
f 20//7 14//7 21//7
f 21//6 7//6 23//6
f 25//5 23//5 4//5
f 7//5 24//5 23//5
f 5//8 27//8 26//8
f 9//9 1//9 27//9
f 10//8 28//8 1//8
f 11//10 29//10 28//10
f 12//9 30//9 29//9
f 13//11 2//11 30//11
f 15//10 31//10 2//10
f 17//11 32//11 31//11
f 18//12 33//12 32//12
f 20//8 3//8 33//8
f 22//13 34//13 3//13
f 23//12 35//12 34//12
f 25//11 36//11 35//11
f 6//13 26//13 36//13

