v 0 -1.414214 2
v -1 -2.828427 1
v 1 -2.828427 1
v -1 -2.828427 -1
v -2 -1.414213 0
v 0 -1.414213 -2
v 1 -2.828427 -1
v 2 -1.414214 0
v 1 0 1
v -1 0 1
v -1 0 -1
v 1 0 -1
v 1.5 -2.12132 -0.5
v 1.5 -0.707107 -0.5
v 0.5 -0.707107 -1.5
v -0.042894 -2.474874 -2.75
v -1 -2.828427 -3
v 1.292892 -2.414214 -1.292893
v 2 -1.414214 -1.414214
v 2.5 -2.12132 0.5
v 2.5 -0.707107 0.5
v 1.292893 -0.414213 -1.292893
v -0.042892 -0.353553 -2.75
v -1 0 -3
v -0.5 -0.707106 -2.5
v 1.25 -0.353553 -1.457108
v 2 -1.414214 -2
v 0.5 -2.12132 -1.5
v 1.249999 -2.474874 -1.457107
v -0.5 -2.12132 -2.5
v -1.5 -2.12132 -0.5
v -0.5 -2.12132 -1.5
v -0.5 -0.707107 -1.5
v -2.103553 0.56066 -0.603553
v -2 1.414214 0
v -2 -1.414213 -0.585786
v -1.707107 -1.828426 -1.707107
v -1.5 -3.535534 -0.5
v -0.5 -3.535534 -1.5
v -0.585786 -1.414213 -2
v -0.603553 0.56066 -2.103553
v 0 1.414214 -2
v -0.5 0.707107 -1.5
v -0.603554 -1.267766 -2.103554
v -2 -1.414213 -2
v -1.5 -0.707107 -0.5
v -2.103554 -1.267765 -0.603554
v -1.5 0.707107 -0.5
v -1 -2.828427 0
v 0 -2.828427 1
v 1 -2.828427 0
v 0.646446 -3.328426 -2.146446
v 1 -2.828427 -3
v -0.707107 -3.24264 -0.707108
v -0.292893 -3.828428 0.292892
v -2 -2.828427 1
v -1 -2.828427 2
v 0.707107 -3.242641 0.707106
v 2.146446 -3.328428 -0.646448
v 3 -2.828427 -1
v 2 -2.828427 -1
v 0.853554 -3.328428 0.646444
v 0 -4.24264 0
v 0 -2.828427 -1
v -0.646446 -3.328427 -0.853555
v 1 -2.828427 -2
v -1.5 -2.12132 0.5
v -1.5 -0.707107 0.5
v -0.5 -0.707107 1.5
v 0.042893 -2.474874 2.749999
v 1 -2.828429 3
v -1.292894 -2.414214 1.292893
v -2 -1.414213 1.414214
v -2.5 -2.12132 -0.5
v -2.5 -0.707106 -0.5
v -1.292892 -0.414213 1.292892
v 0.042894 -0.353554 2.749998
v 1 0 3
v 0.5 -0.707107 2.5
v -1.249999 -0.353553 1.457107
v -2 -1.414214 2
v -0.5 -2.12132 1.5
v -1.25 -2.474874 1.457108
v 0.5 -2.12132 2.5
v 0.5 -0.707107 1.5
v 1.5 -0.707107 0.5
v 1.5 -2.12132 0.5
v 0.603553 -3.389087 2.103552
v 0 -4.24264 2
v 0.585786 -1.414214 2
v 1.707107 -1 1.707107
v 0.5 0.707107 1.5
v 1.5 0.707107 0.5
v 2 -1.414214 0.585786
v 2.103553 -3.389086 0.603552
v 2 -4.24264 0
v 1.5 -3.535534 0.5
v 2.103553 -1.560661 0.603553
v 2 -1.414214 2
v 0.5 -2.12132 1.5
v 0.603553 -1.560662 2.103553
v 0.5 -3.535534 1.5
v 0 0 -1
v 1 0 0
v 0 0 1
v -2.146446 0.5 0.646446
v -3 0 1
v -0.707107 0.414213 -0.707107
v 0.292893 1 -0.292893
v 1 0 -2
v 2 0 -1
v 0.707107 0.414213 0.707107
v -0.646446 0.5 2.146446
v -1 0 3
v -1 0 2
v 0.646446 0.5 0.853554
v 0 1.414214 0
v -1 0 0
v -0.853554 0.5 -0.646446
v -2 0 1
vn 0 -0.5774 0.8165
vn -0.8165 -0.5774 0
vn 0 -0.5774 -0.8165
vn 0.8165 -0.5774 0
vn 0 0.5774 0.8165
vn -0.8165 0.5774 0
vn 0 0.5774 -0.8165
vn 0.8165 0.5774 0
vn -0.7071 0 0.7071
vn 0.4082 -0.8165 -0.4082
vn 0.4082 0.8165 -0.4082
vn 0.8165 -0.5773 0
vn 0 0.5773 -0.8165
vn 0.7071 0 0.7071
vn -0.9856 0 0.1691
vn 0 -0.5773 -0.8165
vn 0.1691 0 -0.9856
vn -0.8165 0.5773 0
vn -0.8165 -0.5773 0
vn 0 1 0
vn -0.5773 -0.5774 -0.5773
vn -0.5774 -0.5773 -0.5774
vn 0.5774 -0.5773 0.5774
vn 0.5774 -0.5774 0.5774
vn -0.5774 -0.5773 -0.5773
vn 0.5774 -0.5774 0.5773
vn -0.5774 -0.5774 -0.5774
vn 0 -0.5773 0.8165
vn 0.5773 -0.5774 0.5774
vn 0.5773 -0.5773 0.5774
vn 0.7071 0 -0.7071
vn -0.4082 -0.8165 0.4082
vn -0.4082 0.8165 0.4082
vn 0 0.5773 0.8165
vn -0.7071 0 -0.7071
vn -0.1691 0 0.9856
vn 0.9856 0 -0.1691
vn 0.8165 0.5773 0
vn 0 -1 0
vn -0.5774 0.5774 -0.5774
vn 0.5774 0.5774 0.5774
vn -0.5773 0.5773 -0.5774
vn 0.5774 0.5773 0.5773
f 1//1 2//1 3//1
f 4//2 2//2 5//2
f 6//3 7//3 4//3
f 3//4 7//4 8//4
f 9//5 10//5 1//5
f 10//6 11//6 5//6
f 6//7 11//7 12//7
f 8//8 12//8 9//8
f 13//9 14//9 15//9
f 16//10 7//10 17//10
f 18//4 19//4 13//4
f 13//10 19//10 20//10
f 20//8 19//8 8//8
f 8//4 19//4 21//4
f 21//11 19//11 14//11
f 19//8 22//8 14//8
f 12//11 23//11 24//11
f 24//3 23//3 25//3
f 26//10 22//10 15//10
f 15//7 27//7 6//7
f 27//3 28//3 6//3
f 29//11 16//11 28//11
f 30//7 16//7 17//7
f 30//9 17//9 7//9
f 13//9 20//9 8//9
f 28//9 30//9 7//9
f 15//9 6//9 28//9
f 24//9 25//9 15//9
f 14//9 12//9 15//9
f 8//9 21//9 14//9
f 28//9 7//9 13//9
f 13//9 8//9 14//9
f 12//9 24//9 15//9
f 15//9 28//9 13//9
f 16//10 29//10 7//10
f 13//12 7//12 18//12
f 18//4 27//4 19//4
f 7//12 29//12 18//12
f 12//8 14//8 22//8
f 19//8 27//8 22//8
f 22//8 26//8 12//8
f 12//11 26//11 23//11
f 15//10 25//10 23//10
f 23//10 26//10 15//10
f 15//13 22//13 27//13
f 27//3 18//3 28//3
f 30//11 28//11 16//11
f 18//11 29//11 28//11
f 31//14 32//14 33//14
f 34//15 5//15 35//15
f 36//2 37//2 31//2
f 31//15 37//15 38//15
f 38//16 37//16 4//16
f 4//2 37//2 39//2
f 39//17 37//17 32//17
f 37//16 40//16 32//16
f 6//17 41//17 42//17
f 42//18 41//18 43//18
f 44//15 40//15 33//15
f 33//7 45//7 11//7
f 45//6 46//6 11//6
f 47//17 34//17 46//17
f 48//13 34//13 35//13
f 48//14 35//14 5//14
f 31//14 38//14 4//14
f 46//14 48//14 5//14
f 33//14 11//14 46//14
f 42//14 43//14 33//14
f 32//14 6//14 33//14
f 4//14 39//14 32//14
f 46//14 5//14 31//14
f 31//14 4//14 32//14
f 6//14 42//14 33//14
f 33//14 46//14 31//14
f 34//15 47//15 5//15
f 31//19 5//19 36//19
f 36//2 45//2 37//2
f 5//19 47//19 36//19
f 6//16 32//16 40//16
f 37//3 45//3 40//3
f 40//3 44//3 6//3
f 6//17 44//17 41//17
f 33//15 43//15 41//15
f 41//15 44//15 33//15
f 33//7 40//7 45//7
f 45//6 36//6 46//6
f 48//17 46//17 34//17
f 36//17 47//17 46//17
f 49//20 50//20 51//20
f 52//21 4//21 53//21
f 54//2 55//2 49//2
f 49//22 55//22 56//22
f 56//1 55//1 2//1
f 2//2 55//2 57//2
f 57//23 55//23 50//23
f 55//1 58//1 50//1
f 3//24 59//24 60//24
f 60//16 59//16 61//16
f 62//25 58//25 51//25
f 51//4 63//4 7//4
f 63//3 64//3 7//3
f 65//26 52//26 64//26
f 66//4 52//4 53//4
f 66//20 53//20 4//20
f 49//20 56//20 2//20
f 64//20 66//20 4//20
f 51//20 7//20 64//20
f 60//20 61//20 51//20
f 50//20 3//20 51//20
f 2//20 57//20 50//20
f 64//20 4//20 49//20
f 49//20 2//20 50//20
f 3//20 60//20 51//20
f 51//20 64//20 49//20
f 52//27 65//27 4//27
f 49//2 4//2 54//2
f 54//2 63//2 55//2
f 4//2 65//2 54//2
f 3//28 50//28 58//28
f 55//1 63//1 58//1
f 58//1 62//1 3//1
f 3//24 62//24 59//24
f 51//22 61//22 59//22
f 59//22 62//22 51//22
f 51//4 58//4 63//4
f 63//3 54//3 64//3
f 66//29 64//29 52//29
f 54//30 65//30 64//30
f 67//31 68//31 69//31
f 70//32 2//32 71//32
f 72//19 73//19 67//19
f 67//32 73//32 74//32
f 74//6 73//6 5//6
f 5//19 73//19 75//19
f 75//33 73//33 68//33
f 73//6 76//6 68//6
f 10//33 77//33 78//33
f 78//28 77//28 79//28
f 80//32 76//32 69//32
f 69//5 81//5 1//5
f 81//1 82//1 1//1
f 83//33 70//33 82//33
f 84//34 70//34 71//34
f 84//31 71//31 2//31
f 67//31 74//31 5//31
f 82//31 84//31 2//31
f 69//31 1//31 82//31
f 78//31 79//31 69//31
f 68//31 10//31 69//31
f 5//31 75//31 68//31
f 82//31 2//31 67//31
f 67//31 5//31 68//31
f 10//31 78//31 69//31
f 69//31 82//31 67//31
f 70//32 83//32 2//32
f 67//2 2//2 72//2
f 72//19 81//19 73//19
f 2//2 83//2 72//2
f 10//18 68//18 76//18
f 73//6 81//6 76//6
f 76//18 80//18 10//18
f 10//33 80//33 77//33
f 69//32 79//32 77//32
f 77//32 80//32 69//32
f 69//5 76//5 81//5
f 81//1 72//1 82//1
f 84//33 82//33 70//33
f 72//33 83//33 82//33
f 85//35 86//35 87//35
f 88//36 1//36 89//36
f 90//34 91//34 85//34
f 85//36 91//36 92//36
f 92//8 91//8 9//8
f 9//5 91//5 93//5
f 93//37 91//37 86//37
f 91//8 94//8 86//8
f 8//37 95//37 96//37
f 96//28 95//28 97//28
f 98//36 94//36 87//36
f 87//4 99//4 3//4
f 99//1 100//1 3//1
f 101//37 88//37 100//37
f 102//4 88//4 89//4
f 102//35 89//35 1//35
f 85//35 92//35 9//35
f 100//35 102//35 1//35
f 87//35 3//35 100//35
f 96//35 97//35 87//35
f 86//35 8//35 87//35
f 9//35 93//35 86//35
f 100//35 1//35 85//35
f 85//35 9//35 86//35
f 8//35 96//35 87//35
f 87//35 100//35 85//35
f 88//36 101//36 1//36
f 85//34 1//34 90//34
f 90//34 99//34 91//34
f 1//34 101//34 90//34
f 8//38 86//38 94//38
f 91//38 99//38 94//38
f 94//38 98//38 8//38
f 8//37 98//37 95//37
f 87//36 97//36 95//36
f 95//36 98//36 87//36
f 87//4 94//4 99//4
f 99//1 90//1 100//1
f 102//37 100//37 88//37
f 90//37 101//37 100//37
f 103//39 104//39 105//39
f 106//40 11//40 107//40
f 108//7 109//7 103//7
f 103//40 109//40 110//40
f 110//8 109//8 12//8
f 12//7 109//7 111//7
f 111//41 109//41 104//41
f 109//8 112//8 104//8
f 9//41 113//41 114//41
f 114//6 113//6 115//6
f 116//42 112//42 105//42
f 105//5 117//5 10//5
f 117//6 118//6 10//6
f 119//41 106//41 118//41
f 120//5 106//5 107//5
f 120//39 107//39 11//39
f 103//39 110//39 12//39
f 118//39 120//39 11//39
f 105//39 10//39 118//39
f 114//39 115//39 105//39
f 104//39 9//39 105//39
f 12//39 111//39 104//39
f 118//39 11//39 103//39
f 103//39 12//39 104//39
f 9//39 114//39 105//39
f 105//39 118//39 103//39
f 106//40 119//40 11//40
f 103//7 11//7 108//7
f 108//13 117//13 109//13
f 11//7 119//7 108//7
f 9//8 104//8 112//8
f 109//38 117//38 112//38
f 112//8 116//8 9//8
f 9//41 116//41 113//41
f 105//40 115//40 113//40
f 113//40 116//40 105//40
f 105//5 112//5 117//5
f 117//6 108//6 118//6
f 120//41 118//41 106//41
f 108//43 119//43 118//43
