# Processed with obj-simplify dev | 2018-03-17T02:30:09Z | https://github.com/jonnenauha/obj-simplify

# vertices [48]

v 1 3 -2
v 0 2 -2
v 2 2 0
v 2 3 -1
v 2 3 1
v 0 2 2
v 1 3 2
v -1 3 2
v -2 2 0
v -2 3 1
v -2 3 -1
v -1 3 -2
v 2 1 -1
v 1 1 -2
v 1 1 2
v 2 1 1
v -2 1 1
v -1 1 2
v -1 1 -2
v -2 1 -1
v 2 0 -2
v 2 0 2
v -2 0 2
v -2 0 -2
v 2 -4 -2
v 1 -3 -2
v 1 -1 -2
v 0 -2 -2
v -1 -1 -2
v -1 -3 -2
v -2 -4 -2
v 2 -4 2
v 2 -3 1
v 2 -1 1
v 2 -2 0
v 2 -1 -1
v 2 -3 -1
v -2 -4 2
v -1 -3 2
v -1 -1 2
v 0 -2 2
v 1 -1 2
v 1 -3 2
v -2 -3 -1
v -2 -1 -1
v -2 -2 0
v -2 -1 1
v -2 -3 1

# normals [18]

vn -0.5774 0.5774 0.5774
vn -0.5774 0.5774 -0.5774
vn 0.5774 0.5774 -0.5774
vn 0.5774 0.5774 0.5774
vn 0 1 0
vn 0.7071 0 -0.7071
vn 0.7071 0 0.7071
vn -0.7071 0 0.7071
vn -0.7071 0 -0.7071
vn 0 0 -1
vn 1 0 0
vn 0 0 1
vn -1 0 0
vn 0.5774 -0.5774 -0.5774
vn 0.5774 -0.5774 0.5774
vn -0.5774 -0.5774 0.5774
vn -0.5774 -0.5774 -0.5774
vn 0 -1 0

# objects [1]

o ht3d_020_houndstampLesser

f 2//1 4//1 1//1
f 3//2 7//2 5//2
f 6//3 10//3 8//3
f 9//4 12//4 11//4
f 6//5 2//5 9//5
f 4//6 14//6 1//6
f 7//7 16//7 5//7
f 10//8 18//8 8//8
f 12//9 20//9 11//9
f 14//3 13//3 21//3
f 16//4 15//4 22//4
f 18//1 17//1 23//1
f 20//2 19//2 24//2
f 14//10 29//10 19//10
f 16//11 36//11 13//11
f 18//12 42//12 15//12
f 20//13 47//13 17//13
f 36//14 28//14 27//14
f 42//15 35//15 34//15
f 47//16 41//16 40//16
f 29//17 46//17 45//17
f 35//18 46//18 28//18
f 26//8 36//8 27//8
f 33//9 42//9 34//9
f 39//6 47//6 40//6
f 44//7 29//7 45//7
f 26//16 25//16 37//16
f 33//17 32//17 43//17
f 39//14 38//14 48//14
f 44//15 31//15 30//15
f 2//1 3//1 4//1
f 3//2 6//2 7//2
f 6//3 9//3 10//3
f 9//4 2//4 12//4
f 6//5 3//5 2//5
f 4//6 13//6 14//6
f 7//7 15//7 16//7
f 10//8 17//8 18//8
f 12//9 19//9 20//9
f 2//10 1//10 14//10
f 14//10 21//10 27//10
f 25//10 26//10 27//10
f 27//10 28//10 29//10
f 29//10 30//10 31//10
f 31//10 24//10 29//10
f 19//10 12//10 2//10
f 21//10 25//10 27//10
f 29//10 24//10 19//10
f 14//10 27//10 29//10
f 19//10 2//10 14//10
f 3//11 5//11 16//11
f 16//11 22//11 34//11
f 32//11 33//11 34//11
f 34//11 35//11 36//11
f 36//11 37//11 25//11
f 25//11 21//11 36//11
f 13//11 4//11 3//11
f 22//11 32//11 34//11
f 36//11 21//11 13//11
f 16//11 34//11 36//11
f 13//11 3//11 16//11
f 6//12 8//12 18//12
f 18//12 23//12 40//12
f 38//12 39//12 40//12
f 40//12 41//12 42//12
f 42//12 43//12 32//12
f 32//12 22//12 42//12
f 15//12 7//12 6//12
f 23//12 38//12 40//12
f 42//12 22//12 15//12
f 18//12 40//12 42//12
f 15//12 6//12 18//12
f 9//13 11//13 20//13
f 20//13 24//13 45//13
f 31//13 44//13 45//13
f 45//13 46//13 47//13
f 47//13 48//13 38//13
f 38//13 23//13 47//13
f 17//13 10//13 9//13
f 24//13 31//13 45//13
f 47//13 23//13 17//13
f 20//13 45//13 47//13
f 17//13 9//13 20//13
f 36//14 35//14 28//14
f 42//15 41//15 35//15
f 47//16 46//16 41//16
f 29//17 28//17 46//17
f 35//18 41//18 46//18
f 26//8 37//8 36//8
f 33//9 43//9 42//9
f 39//6 48//6 47//6
f 44//7 30//7 29//7

