v 1 3 -1
v 0 2 0
v 1 2 0
v 0 2 -1
v 1 3 1
v 0 2 1
v -1 3 -1
v -1 2 0
v -1 3 1
v 1 1 1
v 1 1 -1
v -1 1 -1
v -1 1 1
v 2 0 2
v 2 0 -2
v -2 0 -2
v -2 0 2
v 2 -4 -2
v 1 -3 -1
v 2 -3 -1
v 2 -4 2
v 1 -3 1
v 1 -3 2
v -2 -4 2
v -1 -3 1
v -2 -3 1
v -2 -4 -2
v -1 -3 -1
v -1 -3 -2
v 1 -3 -2
v 2 -3 1
v -1 -3 2
v -2 -3 -1
v 1 -1 -1
v 2 -1 -1
v 1 -1 1
v 1 -1 2
v -1 -1 1
v -2 -1 1
v -1 -1 -1
v -1 -1 -2
v 1 -1 -2
v 2 -1 1
v -1 -1 2
v -2 -1 -1
v 2 -2 0
v 0 -2 -2
v 0 -2 2
v -2 -2 0
v 1 -2 0
v 0 -2 -1
v 0 -2 1
v -1 -2 0
v 0 -2 0
vn 0 0.7071 0.7071
vn -0.7071 0.7071 0
vn 0 0.7071 -0.7071
vn 0.7071 0.7071 0
vn 1 0 0
vn 0 0 -1
vn 0 0 1
vn -1 0 0
vn 0 -0.7071 0.7071
vn -0.7071 -0.7071 0
vn 0 -0.7071 -0.7071
vn 0.7071 -0.7071 0
f 1//1 2//1 3//1
f 1//2 4//2 2//2
f 5//2 2//2 6//2
f 5//3 3//3 2//3
f 7//1 8//1 2//1
f 7//4 2//4 4//4
f 9//3 2//3 8//3
f 9//4 6//4 2//4
f 3//5 10//5 11//5
f 4//6 11//6 12//6
f 6//7 13//7 10//7
f 8//8 12//8 13//8
f 10//4 15//4 11//4
f 11//3 16//3 12//3
f 13//1 14//1 10//1
f 12//2 17//2 13//2
f 18//9 20//9 19//9
f 21//10 23//10 22//10
f 24//11 26//11 25//11
f 27//12 29//12 28//12
f 18//10 19//10 30//10
f 21//11 22//11 31//11
f 24//12 25//12 32//12
f 27//9 28//9 33//9
f 34//7 19//7 20//7
f 36//8 22//8 23//8
f 38//6 25//6 26//6
f 40//5 28//5 29//5
f 30//8 19//8 34//8
f 31//6 22//6 36//6
f 32//5 25//5 38//5
f 33//7 28//7 40//7
f 43//5 15//5 14//5
f 42//6 16//6 15//6
f 44//7 14//7 17//7
f 45//8 17//8 16//8
f 50//8 36//8 34//8
f 51//7 34//7 40//7
f 52//6 38//6 36//6
f 53//5 40//5 38//5
f 35//11 46//11 50//11
f 37//12 48//12 52//12
f 39//9 49//9 53//9
f 41//10 47//10 51//10
f 50//9 46//9 43//9
f 52//10 48//10 44//10
f 53//11 49//11 45//11
f 51//12 47//12 42//12
f 54//12 34//12 36//12
f 54//11 40//11 34//11
f 54//9 36//9 38//9
f 54//10 38//10 40//10
f 11//5 1//5 3//5
f 3//5 5//5 10//5
f 12//6 7//6 4//6
f 4//6 1//6 11//6
f 10//7 5//7 6//7
f 6//7 9//7 13//7
f 13//8 9//8 8//8
f 8//8 7//8 12//8
f 10//4 14//4 15//4
f 11//3 15//3 16//3
f 13//1 17//1 14//1
f 12//2 16//2 17//2
f 34//7 20//7 35//7
f 36//8 23//8 37//8
f 38//6 26//6 39//6
f 40//5 29//5 41//5
f 30//8 34//8 42//8
f 31//6 36//6 43//6
f 32//5 38//5 44//5
f 33//7 40//7 45//7
f 15//5 20//5 18//5
f 35//5 43//5 46//5
f 15//5 35//5 20//5
f 31//5 14//5 21//5
f 15//5 43//5 35//5
f 43//5 14//5 31//5
f 16//6 29//6 27//6
f 41//6 42//6 47//6
f 16//6 41//6 29//6
f 30//6 15//6 18//6
f 16//6 42//6 41//6
f 42//6 15//6 30//6
f 14//7 23//7 21//7
f 37//7 44//7 48//7
f 14//7 37//7 23//7
f 32//7 17//7 24//7
f 14//7 44//7 37//7
f 44//7 17//7 32//7
f 17//8 26//8 24//8
f 39//8 45//8 49//8
f 17//8 39//8 26//8
f 33//8 16//8 27//8
f 17//8 45//8 39//8
f 45//8 16//8 33//8
f 35//11 50//11 34//11
f 37//12 52//12 36//12
f 39//9 53//9 38//9
f 41//10 51//10 40//10
f 50//9 43//9 36//9
f 52//10 44//10 38//10
f 53//11 45//11 40//11
f 51//12 42//12 34//12
