v -3 0 1
v -5 0 -1
v -3 2 -1
v 1 0 1
v -3 4 1
v -3 2 3
v -1 0 -1
v -1 0 3
v -3 2 2
v 2 0 -1
v -3 5 -1
v -3 4 0
v 1 0 0
v -1 0 2
v -3 3 1
v -3 3 -1
v 1 0 -1
v -3 4 -1
v 0 0 -1
v -3 4 -2
v -1 0 0
v -3 2 0
v -3 1 1
v -2 0 1
v 0 0 1
v -3 2 1
v -1 0 1
v 1 0 -2
v -7 0 0
v -3 -4 0
v -3 -4 1
v -5 0 3
v -5 0 2
v -8 0 -1
v -7 0 1
v -6 0 1
v -6 0 -1
v -7 0 -1
v -7 0 -2
v -5 0 0
v -4 0 1
v -5 0 1
v -3 -4 -1
v -3 -2 2
v -3 -3 1
v -3 -2 -1
v -3 -3 -1
v -3 -5 -1
v -3 -4 -2
v -3 -2 0
v -3 -1 1
v -3 -2 1
v -3 -2 3
vn 0.5774 -0.5774 -0.5774
vn 0.5774 0.5774 0.5774
vn -0.5774 -0.5774 -0.5774
vn -0.7071 -0.7071 0
vn 0.7071 0.7071 0
vn 0 0 -1
vn 0 0 1
vn 0.7071 -0.7071 0
vn -0.5774 0.5774 0.5774
vn -0.7071 0.7071 0
vn 0.5774 0.5774 -0.5774
vn -0.5774 -0.5774 0.5774
vn -0.5774 0.5774 -0.5774
vn 0.5774 -0.5774 0.5774
f 1//1 2//1 3//1
f 4//2 5//2 6//2
f 1//3 3//3 7//3
f 8//4 6//4 9//4
f 10//2 11//2 12//2
f 13//5 12//5 5//5
f 14//3 9//3 15//3
f 7//6 3//6 16//6
f 17//6 18//6 11//6
f 19//3 16//3 20//3
f 21//2 22//2 23//2
f 24//7 23//7 1//7
f 25//7 15//7 26//7
f 27//4 26//4 22//4
f 28//5 20//5 18//5
f 29//4 30//4 31//4
f 6//8 32//8 33//8
f 11//9 34//9 29//9
f 12//10 29//10 35//10
f 9//1 33//1 36//1
f 3//6 2//6 37//6
f 18//6 38//6 34//6
f 16//1 37//1 39//1
f 22//9 40//9 41//9
f 23//7 41//7 1//7
f 15//7 36//7 42//7
f 26//8 42//8 40//8
f 20//10 39//10 38//10
f 5//9 35//9 32//9
f 43//6 17//6 10//6
f 33//11 44//11 45//11
f 2//6 46//6 47//6
f 38//6 43//6 48//6
f 37//11 47//11 49//11
f 40//12 50//12 51//12
f 41//7 51//7 1//7
f 36//7 45//7 52//7
f 42//5 52//5 50//5
f 39//4 49//4 43//4
f 35//12 31//12 53//12
f 1//11 46//11 2//11
f 32//5 53//5 44//5
f 34//12 48//12 30//12
f 47//13 19//13 28//13
f 50//14 21//14 24//14
f 51//7 24//7 1//7
f 45//7 25//7 27//7
f 52//10 27//10 21//10
f 49//8 28//8 17//8
f 31//14 4//14 8//14
f 1//13 7//13 46//13
f 53//10 8//10 14//10
f 48//14 10//14 13//14
f 30//8 13//8 4//8
f 44//13 14//13 25//13
f 46//6 7//6 19//6
f 4//2 6//2 8//2
f 8//4 9//4 14//4
f 10//2 12//2 13//2
f 13//5 5//5 4//5
f 14//3 15//3 25//3
f 7//6 16//6 19//6
f 17//6 11//6 10//6
f 19//3 20//3 28//3
f 21//2 23//2 24//2
f 25//7 26//7 27//7
f 27//4 22//4 21//4
f 28//5 18//5 17//5
f 29//4 31//4 35//4
f 6//8 33//8 9//8
f 11//9 29//9 12//9
f 12//10 35//10 5//10
f 9//1 36//1 15//1
f 3//6 37//6 16//6
f 18//6 34//6 11//6
f 16//1 39//1 20//1
f 22//9 41//9 23//9
f 15//7 42//7 26//7
f 26//8 40//8 22//8
f 20//10 38//10 18//10
f 5//9 32//9 6//9
f 43//6 10//6 48//6
f 33//11 45//11 36//11
f 2//6 47//6 37//6
f 38//6 48//6 34//6
f 37//11 49//11 39//11
f 40//12 51//12 41//12
f 36//7 52//7 42//7
f 42//5 50//5 40//5
f 39//4 43//4 38//4
f 35//12 53//12 32//12
f 32//5 44//5 33//5
f 34//12 30//12 29//12
f 47//13 28//13 49//13
f 50//14 24//14 51//14
f 45//7 27//7 52//7
f 52//10 21//10 50//10
f 49//8 17//8 43//8
f 31//14 8//14 53//14
f 53//10 14//10 44//10
f 48//14 13//14 30//14
f 30//8 4//8 31//8
f 44//13 25//13 45//13
f 46//6 19//6 47//6