v 0 1 1
v 1 1 1
v 1 1 0
v 0 0 -1
v 1 0 0
v 0 0 1
v -3 0 1
v -1 1 -1
v -1 0 -1
v 0 1 -1
v 1 1 -2
v 1 0 -2
v 1 1 -1
v 1 0 -1
v 2 1 -1
v 2 0 -1
v 1 0 1
v -1 1 3
v -1 0 3
v -1 1 2
v -1 0 2
v -1 1 1
v -1 0 1
v -1 1 0
v -1 0 0
v -2 1 1
v -2 0 1
v -3 1 1
v 3 1 -1
v 1 2 1
v 0 2 1
v -1 2 2
v -1 2 1
v -2 2 1
v -1 2 0
v -1 2 -1
v 1 2 -3
v 1 1 -3
v 1 2 -2
v 0 2 -1
v 1 2 -1
v 1 2 0
v 2 2 -1
v 3 2 -1
v 0 0 -3
v 0 2 0
v -1 3 1
v 0 3 1
v 0 2 2
v -1 -2 -1
v 0 -2 -1
v -1 -1 -1
v 0 -1 -1
v 0 0 0
v -1 0 -2
v 0 0 -2
v -1 0 -3
v 3 0 1
v -1 3 0
v -2 2 0
v 1 -2 0
v 1 -2 1
v 1 -1 0
v 1 -1 1
v 2 0 0
v 2 0 1
v 3 0 0
v -3 2 0
v 1 -1 -1
v -1 4 -1
v -1 4 0
v -1 3 -1
v -2 2 -1
v -3 2 -1
v 1 2 3
v 0 4 1
v 1 4 1
v 1 3 1
v 1 2 2
v 0 2 3
vn 0 1 0
vn 0 -1 0
vn -0.7071 0 -0.7071
vn 0 0 -1
vn 1 0 0
vn 0.7071 0 0.7071
vn -1 0 0
vn 0 0 1
vn 0 0.7071 -0.7071
vn 0 -0.7071 0.7071
vn 0.7071 0.7071 0
vn -0.7071 -0.7071 0
f 1//1 2//1 3//1
f 4//2 5//2 6//2
f 7//3 8//3 9//3
f 9//4 10//4 4//4
f 4//3 11//3 12//3
f 12//5 13//5 14//5
f 14//4 15//4 16//4
f 16//6 3//6 5//6
f 5//5 2//5 17//5
f 17//6 18//6 19//6
f 19//7 20//7 21//7
f 21//3 1//3 6//3
f 6//8 22//8 23//8
f 23//7 24//7 25//7
f 25//6 26//6 27//6
f 27//8 28//8 7//8
f 8//1 28//1 26//1
f 24//1 22//1 1//1
f 8//1 26//1 24//1
f 13//1 11//1 10//1
f 10//1 8//1 24//1
f 1//1 20//1 18//1
f 3//1 15//1 13//1
f 1//1 18//1 2//1
f 3//1 10//1 1//1
f 27//2 7//2 9//2
f 4//2 12//2 14//2
f 25//2 27//2 9//2
f 6//2 23//2 25//2
f 19//2 21//2 6//2
f 25//2 9//2 4//2
f 4//2 14//2 5//2
f 17//2 19//2 6//2
f 6//2 25//2 4//2
f 7//3 28//3 8//3
f 9//4 8//4 10//4
f 4//3 10//3 11//3
f 12//5 11//5 13//5
f 14//4 13//4 15//4
f 16//6 15//6 3//6
f 5//5 3//5 2//5
f 17//6 2//6 18//6
f 19//7 18//7 20//7
f 21//3 20//3 1//3
f 6//8 1//8 22//8
f 23//7 22//7 24//7
f 25//6 24//6 26//6
f 27//8 26//8 28//8
f 1//2 24//2 10//2
f 29//6 30//6 2//6
f 2//8 31//8 1//8
f 1//6 32//6 20//6
f 20//7 33//7 22//7
f 22//8 34//8 26//8
f 26//3 35//3 24//3
f 24//7 36//7 8//7
f 8//3 37//3 38//3
f 38//5 39//5 11//5
f 11//6 40//6 10//6
f 10//4 41//4 13//4
f 13//5 42//5 3//5
f 3//3 43//3 15//3
f 15//4 44//4 29//4
f 30//1 44//1 43//1
f 42//1 41//1 40//1
f 30//1 43//1 42//1
f 33//1 32//1 31//1
f 40//1 39//1 37//1
f 31//1 42//1 40//1
f 35//1 34//1 33//1
f 33//1 31//1 35//1
f 40//1 37//1 36//1
f 35//1 31//1 40//1
f 15//2 29//2 2//2
f 1//2 20//2 22//2
f 3//2 15//2 2//2
f 10//2 13//2 3//2
f 38//2 11//2 10//2
f 22//2 26//2 24//2
f 8//2 38//2 10//2
f 29//6 44//6 30//6
f 2//8 30//8 31//8
f 1//6 31//6 32//6
f 20//7 32//7 33//7
f 22//8 33//8 34//8
f 26//3 34//3 35//3
f 24//7 35//7 36//7
f 8//3 36//3 37//3
f 38//5 37//5 39//5
f 11//6 39//6 40//6
f 10//4 40//4 41//4
f 13//5 41//5 42//5
f 3//3 42//3 43//3
f 15//4 43//4 44//4
f 25//7 23//7 22//7
f 45//9 36//9 40//9
f 40//1 35//1 46//1
f 46//9 47//9 48//9
f 48//8 33//8 31//8
f 31//1 32//1 49//1
f 49//10 22//10 1//10
f 1//8 23//8 6//8
f 6//10 50//10 51//10
f 51//4 52//4 53//4
f 53//9 25//9 54//9
f 54//2 9//2 4//2
f 4//4 8//4 10//4
f 10//10 55//10 56//10
f 56//2 57//2 45//2
f 36//7 57//7 55//7
f 8//7 9//7 25//7
f 36//7 55//7 8//7
f 35//7 36//7 8//7
f 25//7 52//7 50//7
f 35//7 8//7 25//7
f 22//7 32//7 33//7
f 33//7 35//7 22//7
f 25//7 50//7 23//7
f 22//7 35//7 25//7
f 56//5 45//5 40//5
f 46//5 48//5 31//5
f 10//5 56//5 40//5
f 54//5 4//5 10//5
f 51//5 53//5 54//5
f 31//5 49//5 1//5
f 10//5 40//5 46//5
f 6//5 51//5 54//5
f 45//9 57//9 36//9
f 40//1 36//1 35//1
f 46//9 35//9 47//9
f 48//8 47//8 33//8
f 49//10 32//10 22//10
f 1//8 22//8 23//8
f 6//10 23//10 50//10
f 51//4 50//4 52//4
f 53//9 52//9 25//9
f 54//2 25//2 9//2
f 4//4 9//4 8//4
f 10//10 8//10 55//10
f 56//2 55//2 57//2
f 31//8 22//8 6//8
f 58//11 42//11 30//11
f 30//1 46//1 31//1
f 31//11 59//11 47//11
f 47//7 35//7 33//7
f 33//1 60//1 34//1
f 34//12 24//12 22//12
f 23//12 61//12 62//12
f 62//5 63//5 64//5
f 64//11 54//11 6//11
f 6//2 5//2 17//2
f 17//5 3//5 2//5
f 2//12 65//12 66//12
f 66//2 67//2 58//2
f 42//4 67//4 65//4
f 42//4 65//4 3//4
f 35//4 59//4 46//4
f 46//4 42//4 3//4
f 54//4 63//4 61//4
f 46//4 3//4 54//4
f 24//4 60//4 35//4
f 54//4 61//4 25//4
f 24//4 46//4 54//4
f 66//8 58//8 30//8
f 31//8 47//8 33//8
f 2//8 66//8 30//8
f 6//8 17//8 2//8
f 62//8 64//8 6//8
f 31//8 33//8 22//8
f 23//8 62//8 6//8
f 6//8 2//8 31//8
f 58//11 67//11 42//11
f 30//1 42//1 46//1
f 31//11 46//11 59//11
f 47//7 59//7 35//7
f 33//1 35//1 60//1
f 34//12 60//12 24//12
f 22//7 24//7 25//7
f 23//12 25//12 61//12
f 62//5 61//5 63//5
f 64//11 63//11 54//11
f 6//2 54//2 5//2
f 17//5 5//5 3//5
f 2//12 3//12 65//12
f 66//2 65//2 67//2
f 68//12 9//12 25//12
f 25//2 4//2 54//2
f 54//12 69//12 63//12
f 63//5 14//5 5//5
f 5//2 16//2 65//2
f 65//11 13//11 3//11
f 3//5 41//5 42//5
f 42//11 70//11 71//11
f 71//7 72//7 59//7
f 59//12 40//12 46//12
f 46//1 36//1 35//1
f 35//7 8//7 24//7
f 24//11 73//11 60//11
f 60//1 74//1 68//1
f 9//4 74//4 73//4
f 8//4 36//4 40//4
f 9//4 73//4 8//4
f 40//4 72//4 70//4
f 4//4 8//4 40//4
f 13//4 16//4 14//4
f 14//4 4//4 13//4
f 40//4 70//4 41//4
f 13//4 4//4 40//4
f 60//8 68//8 25//8
f 54//8 63//8 5//8
f 24//8 60//8 25//8
f 46//8 35//8 24//8
f 71//8 59//8 46//8
f 5//8 65//8 3//8
f 24//8 25//8 54//8
f 54//8 5//8 3//8
f 42//8 71//8 46//8
f 68//12 74//12 9//12
f 54//12 4//12 69//12
f 63//5 69//5 14//5
f 5//2 14//2 16//2
f 65//11 16//11 13//11
f 3//5 13//5 41//5
f 42//11 41//11 70//11
f 71//7 70//7 72//7
f 59//12 72//12 40//12
f 46//1 40//1 36//1
f 24//11 8//11 73//11
f 60//1 73//1 74//1
f 5//5 13//5 42//5
f 75//10 6//10 17//10
f 17//2 54//2 5//2
f 5//10 53//10 69//10
f 69//4 4//4 14//4
f 14//2 56//2 12//2
f 12//9 10//9 13//9
f 13//4 40//4 41//4
f 41//9 76//9 77//9
f 77//8 48//8 78//8
f 78//10 46//10 42//10
f 42//1 31//1 30//1
f 30//8 1//8 2//8
f 2//9 49//9 79//9
f 79//1 80//1 75//1
f 6//7 80//7 49//7
f 1//7 31//7 46//7
f 6//7 49//7 1//7
f 4//7 53//7 54//7
f 54//7 6//7 1//7
f 46//7 48//7 76//7
f 54//7 1//7 46//7
f 10//7 56//7 4//7
f 46//7 76//7 40//7
f 10//7 54//7 46//7
f 79//5 75//5 17//5
f 5//5 69//5 14//5
f 2//5 79//5 17//5
f 42//5 30//5 2//5
f 77//5 78//5 42//5
f 5//5 14//5 13//5
f 41//5 77//5 42//5
f 42//5 2//5 5//5
f 75//10 80//10 6//10
f 17//2 6//2 54//2
f 5//10 54//10 53//10
f 69//4 53//4 4//4
f 14//2 4//2 56//2
f 12//9 56//9 10//9
f 13//4 10//4 40//4
f 41//9 40//9 76//9
f 77//8 76//8 48//8
f 78//10 48//10 46//10
f 42//1 46//1 31//1
f 30//8 31//8 1//8
f 2//9 1//9 49//9
f 79//1 49//1 80//1