v 1 2 -1
v 1 1 0
v 1 1 -1
v 0 1 -1
v 0 -2 1
v -1 -2 1
v -1 -3 1
v -1 -2 0
v 1 -1 -1
v 0 -1 -1
v 0 -1 0
v 1 -1 0
v 2 1 -1
v 1 0 -1
v 1 1 -2
v 1 1 1
v 0 -1 2
v 1 0 1
v -1 0 2
v -1 -1 3
v -1 -1 2
v 0 0 1
v 0 1 1
v -2 -1 0
v -2 -1 1
v -3 -1 1
v -2 0 1
v -1 0 0
v -1 0 -1
v -1 1 -1
v -1 1 0
v 1 -1 1
v -1 -1 -1
v -1 1 1
v -1 -1 1
vn 1 0 0
vn -0.5774 0.5774 0.5774
vn 0 0 -1
vn 0 0 1
vn -1 0 0
vn 0.7071 -0.7071 0
vn 0 -0.7071 -0.7071
vn 0 0.7071 0.7071
vn -0.7071 0.7071 0
vn 0 1 0
vn 0.5774 -0.5774 0.5774
vn -0.5774 -0.5774 -0.5774
vn 0.7071 0 0.7071
vn 0 -1 0
vn -0.7071 0 -0.7071
f 1//1 2//1 3//1
f 1//2 4//2 2//2
f 1//3 3//3 4//3
f 5//4 6//4 7//4
f 8//5 7//5 6//5
f 9//6 5//6 7//6
f 9//7 8//7 10//7
f 11//8 5//8 12//8
f 8//9 11//9 10//9
f 3//10 2//10 13//10
f 13//11 2//11 14//11
f 13//3 14//3 3//3
f 15//1 3//1 14//1
f 15//10 4//10 3//10
f 15//12 14//12 4//12
f 16//13 17//13 18//13
f 16//8 19//8 20//8
f 17//14 20//14 21//14
f 19//5 21//5 20//5
f 17//7 22//7 18//7
f 22//15 19//15 23//15
f 24//14 25//14 26//14
f 27//4 26//4 25//4
f 28//6 24//6 29//6
f 28//13 27//13 25//13
f 30//15 24//15 26//15
f 30//9 27//9 31//9
f 2//1 32//1 14//1
f 33//3 30//3 4//3
f 22//4 34//4 35//4
f 4//10 34//10 2//10
f 11//14 32//14 35//14
f 34//5 31//5 28//5
f 9//6 12//6 5//6
f 9//7 7//7 8//7
f 11//8 6//8 5//8
f 8//9 6//9 11//9
f 16//13 20//13 17//13
f 16//8 23//8 19//8
f 17//7 21//7 22//7
f 22//15 21//15 19//15
f 28//6 25//6 24//6
f 28//13 31//13 27//13
f 30//15 29//15 24//15
f 30//9 26//9 27//9
f 9//1 14//1 32//1
f 2//1 16//1 32//1
f 4//3 14//3 33//3
f 9//3 33//3 14//3
f 32//4 18//4 22//4
f 22//4 23//4 34//4
f 35//4 32//4 22//4
f 16//10 2//10 34//10
f 4//10 30//10 34//10
f 33//14 10//14 11//14
f 11//14 12//14 32//14
f 35//14 33//14 11//14
f 28//5 29//5 33//5
f 35//5 34//5 28//5
f 28//5 33//5 35//5