v 5 1 -2
v 5 0 -1
v 2 2 0
v 2 4 2e-06
v 1 3 0
v 4 2 0
v 5 2 0
v 3 4 2e-06
v 1 5 2e-06
v 1 4 2e-06
v 3 3 0
v 3 2 0
v 3 0 0
v 3 1 0
v 1 2 0
v 0 4 2e-06
v 5 2 -1
v 5 2 -3
v 5 4 -3
v 5 5 -3
v 5 3 -1
v 5 1 0
v 5 1 -1
v 5 3 -2
v 5 3 -3
v 5 3 -5
v 5 3 -4
v 5 1 -3
v 3 5 -4
v 3 5 -2
v 4 5 -3
v 1 5 -2
v 2 5 -4
v 0 5 -2
v 4 5 -4
v 4 5 -5
v 2 5 -3
v 2 5 -2
v 2 5 2e-06
v 2 5 -1
v 4 5 -2
v 5 5 -4
v 0 4.5 -2.5
v 3 3.5 -4.5
v 0 5.5 -3.5
v 0 4.5 -3.5
v 2 4.5 -4.5
v 2 3.5 -4.5
v 0 3.5 -3.5
v 2 5.5 -4.5
v 2 2.5 -4.5
v 0 4.5 -4.5
v 0 3.5 -1.5
v 0 4.5 -1.5
v 4 3.5 -4.5
v 3 1.5 -4.5
v 1 3.5 -4.5
v 0 2.5 -2.5
v 4 2.5 -4.5
v 2 1.5 -4.5
v 0 2.5 -3.5
v 0 2.5 -1.5
v 0 2.5 0.5
v 3 0.5 -0.5
v 5 0.5 -2.5
v 4 1.5 -4.5
v 3 0.5 -3.5
v 0 3.5 -4.5
v 1 0.5 0.5
v 1 0.5 -0.5
v 0 1.5 -1.5
v 0 2.5 -0.5
v 4 0.5 -2.5
v 4 0.5 -4.5
v 5 1.5 -4.5
v 3 0.5 -4.5
v 2 0.5 -0.5
v 0 0.5 -0.5
v 0 0.5 -1.5
v 3 0.5 -1.5
v 2 0.5 -2.5
v 3 0.5 -2.5
v 1 0.5 -1.5
v 1 0.5 -2.5
vn -0.5774 -0.5774 -0.5774
vn 0 0 1
vn 1 0 0
vn 0 1 0
vn 0.5774 0.5774 0.5774
vn 0.7071 0.7071 0
vn -0.7071 0 -0.7071
vn 0 -0.7071 -0.7071
vn 0.8944 0.4472 0
vn 0.8944 0 -0.4472
vn -0.5774 -0.5773 -0.5774
vn 0 0.4472 -0.8944
vn 0 0.8944 0.4472
vn -0.4472 0.8944 0
vn 0 0.7071 0.7071
vn 0.5774 0.5773 0.5774
vn -0.8944 0 0.4472
vn 0.7071 0 0.7071
vn -0.7071 -0.7071 0
vn 0.4472 0 0.8944
vn 0.4472 -0.8944 0
vn 0 -0.4472 0.8944
vn -1 0 0
vn -0.4472 0 -0.8944
vn 0 0 -1
vn -0.8944 -0.4472 0
vn 0.5773 0.5773 0.5774
vn 0 -1 0
vn 0 -0.8944 -0.4472
f 1//1 2//1 3//1
f 4//2 5//2 3//2
f 6//2 7//2 8//2
f 4//2 9//2 10//2
f 11//2 6//2 8//2
f 3//2 12//2 11//2
f 13//2 14//2 3//2
f 5//2 15//2 3//2
f 10//2 16//2 5//2
f 11//2 8//2 4//2
f 4//2 10//2 5//2
f 15//2 13//2 3//2
f 3//2 11//2 4//2
f 17//3 1//3 18//3
f 19//3 20//3 21//3
f 17//3 22//3 23//3
f 24//3 19//3 21//3
f 18//3 25//3 24//3
f 26//3 27//3 18//3
f 1//3 28//3 18//3
f 23//3 2//3 1//3
f 24//3 21//3 17//3
f 17//3 23//3 1//3
f 28//3 26//3 18//3
f 18//3 24//3 17//3
f 29//4 30//4 31//4
f 32//4 33//4 34//4
f 29//4 35//4 36//4
f 37//4 33//4 32//4
f 30//4 37//4 38//4
f 39//4 30//4 40//4
f 31//4 30//4 41//4
f 35//4 31//4 42//4
f 37//4 29//4 33//4
f 29//4 31//4 35//4
f 41//4 30//4 39//4
f 30//4 29//4 37//4
f 31//5 19//5 42//5
f 19//6 31//6 41//6
f 20//7 19//7 41//7
f 42//8 24//8 35//8
f 25//9 35//9 24//9
f 35//9 25//9 36//9
f 36//10 25//10 18//10
f 18//11 29//11 36//11
f 33//12 29//12 26//12
f 22//5 17//5 6//5
f 9//5 4//5 40//5
f 30//7 10//7 9//7
f 38//13 10//13 30//13
f 16//13 10//13 38//13
f 37//14 16//14 38//14
f 34//15 5//15 32//15
f 37//16 32//16 5//16
f 15//17 5//17 34//17
f 28//1 15//1 33//1
f 17//18 21//18 6//18
f 22//19 11//19 23//19
f 12//20 23//20 11//20
f 11//11 17//11 6//11
f 7//8 6//8 21//8
f 28//21 1//21 13//21
f 14//18 13//18 1//18
f 27//6 26//6 29//6
f 14//16 1//16 3//16
f 12//22 3//22 2//22
f 12//20 2//20 23//20
f 20//16 39//16 7//16
f 15//1 28//1 13//1
f 28//1 33//1 26//1
f 33//1 15//1 34//1
f 37//11 5//11 16//11
f 39//19 40//19 8//19
f 40//15 4//15 8//15
f 18//5 27//5 29//5
f 43//5 44//5 45//5
f 46//23 43//23 45//23
f 47//11 44//11 43//11
f 48//12 45//12 44//12
f 48//24 46//24 45//24
f 49//23 43//23 46//23
f 47//7 43//7 50//7
f 50//25 44//25 47//25
f 44//25 51//25 48//25
f 48//24 51//24 46//24
f 49//23 46//23 52//23
f 49//23 53//23 43//23
f 54//14 50//14 43//14
f 55//25 44//25 50//25
f 44//25 56//25 51//25
f 52//6 46//6 51//6
f 52//11 57//11 49//11
f 53//23 49//23 58//23
f 43//23 53//23 54//23
f 55//5 50//5 54//5
f 59//25 44//25 55//25
f 56//25 44//25 59//25
f 51//25 56//25 60//25
f 51//5 57//5 49//5
f 49//7 57//7 61//7
f 53//23 58//23 62//23
f 58//23 49//23 61//23
f 54//23 53//23 63//23
f 54//16 64//16 55//16
f 55//10 65//10 59//10
f 56//25 59//25 66//25
f 51//25 60//25 57//25
f 67//8 60//8 56//8
f 68//15 61//15 57//15
f 69//17 53//17 62//17
f 62//26 58//26 70//26
f 58//23 61//23 71//23
f 54//16 63//16 64//16
f 63//23 53//23 72//23
f 64//16 65//16 55//16
f 65//8 73//8 59//8
f 56//25 66//25 74//25
f 66//25 59//25 75//25
f 57//25 60//25 68//25
f 74//11 67//11 56//11
f 76//6 60//6 67//6
f 70//26 69//26 62//26
f 53//27 69//27 77//27
f 78//15 70//15 58//15
f 71//23 61//23 79//23
f 64//22 63//22 77//22
f 72//19 77//19 63//19
f 53//11 77//11 72//11
f 73//28 65//28 64//28
f 80//11 59//11 73//11
f 81//18 74//18 66//18
f 75//29 82//29 66//29
f 80//16 75//16 59//16
f 76//28 67//28 81//28
f 77//28 69//28 70//28
f 70//28 78//28 83//28
f 79//18 84//18 71//18
f 80//28 64//28 77//28
f 80//28 73//28 64//28
f 82//29 81//29 66//29
f 80//21 82//21 75//21
f 84//28 76//28 81//28
f 77//28 70//28 83//28
f 83//1 78//1 71//1
f 71//19 84//19 83//19
f 81//28 80//28 77//28
f 81//28 82//28 80//28
f 83//28 84//28 81//28
f 77//28 83//28 81//28
f 79//1 68//1 76//1
