v 0.5 -1.414214 1.5
v 0 -1.414214 -1
v 1 -1.414214 0
v 0 1.414214 -1
v -1.5 1.414214 -0.5
v 1 1.414214 0
v 1.5 -0.707107 -0.5
v 2 -1.414214 -1
v 1 -0.707107 -1
v 1 -1.414214 -1
v 0.5 -0.707107 -1.5
v 1 -1.414214 -2
v 1.5 0.707107 -0.5
v 1 0.707107 0
v 2 1.414214 -1
v 1 0.707107 -1
v 1 1.414214 -1
v 0.5 0.707107 -1.5
v 1 1.414214 -2
v 1 -0.707107 0
v 1 -1.414214 1
v -1 -1.414214 -1
v 0 -0.707107 -1
v 1 0.707107 1
v -1 0.707107 -1
v 0 0.707107 -1
v 1 -0.707107 1
v 0 0 -1
v -1 -0.707107 -1
v 1 0 0
v -1 1.414214 -1
v -2 -0.707107 0
v -2 0.707107 0
v 0 -0.707107 2
v 0 0.707107 2
v -2 0.707107 1
v -3 0.707107 1
v -2 0 1
v -2.5 0 0.5
v -2 -0.707107 1
v -3 -0.707107 1
v -1 0.707107 2
v -0.5 0.707107 1.5
v -1 0.707107 3
v -1 0 2
v -0.5 0 2.5
v -1 -0.707107 2
v -1 -0.707107 3
v -1.5 0.707107 0.5
v -1.5 -1.414214 -0.5
v -1.5 -0.707107 0.5
v 0 1.414214 1
v 0 -1.414214 1
v -0.5 -0.707107 1.5
v -1 1.414214 0
v -1 -0.707107 1
v -1 -1.414214 0
v -1 0.707107 1
v 0.5 1.414214 1.5
v 1 1.414214 1
vn 0 -1 0
vn 0 1 0
vn 0.7071 0 0.7071
vn 0.5 0.7071 -0.5
vn 0 0 -1
vn -0.7071 0 -0.7071
vn 1 0 0
vn 0.5 -0.7071 -0.5
vn 0 0 1
vn -0.5 -0.7071 0.5
vn -0.5 0.7071 0.5
vn -1 0 0
f 1//1 2//1 3//1
f 4//2 5//2 6//2
f 7//3 3//3 8//3
f 8//4 9//4 7//4
f 8//5 10//5 9//5
f 2//6 11//6 12//6
f 12//4 11//4 9//4
f 12//7 9//7 10//7
f 13//3 6//3 14//3
f 15//8 13//8 16//8
f 15//5 16//5 17//5
f 18//6 4//6 19//6
f 19//8 16//8 18//8
f 19//7 17//7 16//7
f 20//7 21//7 3//7
f 22//5 23//5 2//5
f 6//7 24//7 14//7
f 25//5 4//5 26//5
f 23//2 27//2 20//2
f 26//1 13//1 14//1
f 28//8 27//8 29//8
f 24//4 28//4 25//4
f 30//7 24//7 27//7
f 28//5 29//5 25//5
f 31//6 32//6 33//6
f 34//3 21//3 35//3
f 36//2 33//2 37//2
f 37//9 38//9 36//9
f 37//10 39//10 38//10
f 32//1 40//1 41//1
f 41//9 40//9 38//9
f 41//11 38//11 39//11
f 42//2 35//2 43//2
f 44//12 42//12 45//12
f 44//10 45//10 46//10
f 47//1 34//1 48//1
f 48//12 45//12 47//12
f 48//11 46//11 45//11
f 49//11 5//11 33//11
f 50//10 51//10 32//10
f 35//11 52//11 43//11
f 53//10 34//10 54//10
f 51//3 55//3 49//3
f 54//6 42//6 43//6
f 56//12 55//12 57//12
f 52//9 56//9 53//9
f 58//11 52//11 55//11
f 56//10 57//10 53//10
f 10//1 8//1 3//1
f 3//1 21//1 1//1
f 1//1 50//1 2//1
f 2//1 12//1 10//1
f 50//1 22//1 2//1
f 10//1 3//1 2//1
f 6//2 15//2 17//2
f 17//2 19//2 4//2
f 4//2 31//2 5//2
f 5//2 59//2 6//2
f 6//2 17//2 4//2
f 59//2 60//2 6//2
f 7//3 20//3 3//3
f 2//6 23//6 11//6
f 13//3 15//3 6//3
f 18//6 26//6 4//6
f 20//7 27//7 21//7
f 22//5 29//5 23//5
f 6//7 60//7 24//7
f 25//5 31//5 4//5
f 20//2 7//2 11//2
f 23//2 29//2 27//2
f 20//2 11//2 23//2
f 24//1 25//1 26//1
f 26//1 18//1 13//1
f 14//1 24//1 26//1
f 28//8 30//8 27//8
f 24//4 30//4 28//4
f 39//6 37//6 33//6
f 33//6 5//6 31//6
f 31//6 22//6 32//6
f 32//6 41//6 39//6
f 22//6 50//6 32//6
f 39//6 33//6 32//6
f 35//3 44//3 46//3
f 46//3 48//3 34//3
f 34//3 1//3 21//3
f 21//3 60//3 35//3
f 35//3 46//3 34//3
f 60//3 59//3 35//3
f 36//2 49//2 33//2
f 32//1 51//1 40//1
f 42//2 44//2 35//2
f 47//1 54//1 34//1
f 49//11 55//11 5//11
f 50//10 57//10 51//10
f 35//11 59//11 52//11
f 53//10 1//10 34//10
f 49//3 36//3 40//3
f 51//3 57//3 55//3
f 49//3 40//3 51//3
f 52//6 53//6 54//6
f 54//6 47//6 42//6
f 43//6 52//6 54//6
f 56//12 58//12 55//12
f 52//9 58//9 56//9