v 2 3.5 1
v 2 1.5 1
v 2 0.5 2
v 2 -0.5 2
v 2 -0.5 -2
v 2 0.5 -2
v 2 1.5 -1
v 2 3.5 -1
v 2 2.5 0
v -2 3.5 1
v -2 2.5 0
v -2 3.5 -1
v -2 1.5 -1
v -2 0.5 -2
v -2 -0.5 -2
v -2 -0.5 2
v -2 0.5 2
v -2 1.5 1
v 1 2.5 1
v 1 1.5 1
v 1 2.5 0
v 1 1.5 -1
v 1 2.5 -1
v -1 2.5 1
v -1 1.5 1
v -1 2.5 0
v -1 2.5 -1
v -1 1.5 -1
v 1 0.5 2
v 1 0.5 -2
v -1 0.5 2
v -1 0.5 -2
v 0 1.5 -1
v 0 1.5 1
v -1 -3.5 -2
v -1 -1.5 -2
v 1 -1.5 -2
v 1 -3.5 -2
v 0 -2.5 -2
v -1 -3.5 2
v 0 -2.5 2
v 1 -3.5 2
v 1 -1.5 2
v -1 -1.5 2
v -1 -2.5 -1
v -1 -1.5 -1
v 0 -2.5 -1
v 1 -1.5 -1
v 1 -2.5 -1
v -1 -2.5 1
v -1 -1.5 1
v 0 -2.5 1
v 1 -2.5 1
v 1 -1.5 1
v -2 -0.5 -1
v 2 -0.5 -1
v -2 -0.5 1
v 2 -0.5 1
v 1 -1.5 0
v -1 -1.5 0
vn 1 0 0
vn -1 0 0
vn 0 0 1
vn -0.7071 0.7071 0
vn 0 0.7071 -0.7071
vn 0 0 -1
vn 0 0.7071 0.7071
vn 0.7071 0.7071 0
vn 0 -0.7071 0.7071
vn 0.7071 -0.7071 0
vn -0.7071 -0.7071 0
vn 0 -0.7071 -0.7071
f 4//1 7//1 2//1
f 13//2 15//2 18//2
f 19//3 2//3 1//3
f 1//4 21//4 19//4
f 1//5 9//5 21//5
f 7//6 23//6 8//6
f 8//4 23//4 21//4
f 8//7 21//7 9//7
f 24//3 18//3 25//3
f 10//8 24//8 26//8
f 10//5 26//5 11//5
f 27//6 13//6 12//6
f 12//8 26//8 27//8
f 12//7 11//7 26//7
f 20//7 3//7 2//7
f 6//5 22//5 7//5
f 18//7 31//7 25//7
f 32//5 13//5 28//5
f 22//2 29//2 20//2
f 28//1 24//1 25//1
f 33//8 29//8 30//8
f 31//4 33//4 32//4
f 34//7 31//7 29//7
f 33//5 30//5 32//5
f 14//6 37//6 36//6
f 43//3 3//3 44//3
f 45//2 36//2 35//2
f 35//9 47//9 45//9
f 35//10 39//10 47//10
f 37//1 49//1 38//1
f 38//9 49//9 47//9
f 38//11 47//11 39//11
f 50//2 44//2 51//2
f 40//12 50//12 52//12
f 40//10 52//10 41//10
f 53//1 43//1 42//1
f 42//12 52//12 53//12
f 42//11 41//11 52//11
f 46//11 15//11 36//11
f 5//10 48//10 37//10
f 44//11 57//11 51//11
f 58//10 43//10 54//10
f 48//3 55//3 46//3
f 54//6 50//6 51//6
f 59//12 55//12 56//12
f 57//9 59//9 58//9
f 60//11 57//11 55//11
f 59//10 56//10 58//10
f 9//1 1//1 2//1
f 2//1 3//1 4//1
f 4//1 5//1 7//1
f 7//1 8//1 9//1
f 5//1 6//1 7//1
f 9//1 2//1 7//1
f 18//2 10//2 11//2
f 11//2 12//2 13//2
f 13//2 14//2 15//2
f 15//2 16//2 18//2
f 18//2 11//2 13//2
f 16//2 17//2 18//2
f 19//3 20//3 2//3
f 7//6 22//6 23//6
f 24//3 10//3 18//3
f 27//6 28//6 13//6
f 20//7 29//7 3//7
f 6//5 30//5 22//5
f 18//7 17//7 31//7
f 32//5 14//5 13//5
f 20//2 19//2 23//2
f 22//2 30//2 29//2
f 20//2 23//2 22//2
f 31//1 32//1 28//1
f 28//1 27//1 24//1
f 25//1 31//1 28//1
f 33//8 34//8 29//8
f 31//4 34//4 33//4
f 39//6 35//6 36//6
f 36//6 15//6 14//6
f 14//6 6//6 37//6
f 37//6 38//6 39//6
f 6//6 5//6 37//6
f 39//6 36//6 37//6
f 44//3 40//3 41//3
f 41//3 42//3 43//3
f 43//3 4//3 3//3
f 3//3 17//3 44//3
f 44//3 41//3 43//3
f 17//3 16//3 44//3
f 45//2 46//2 36//2
f 37//1 48//1 49//1
f 50//2 40//2 44//2
f 53//1 54//1 43//1
f 46//11 55//11 15//11
f 5//10 56//10 48//10
f 44//11 16//11 57//11
f 58//10 4//10 43//10
f 46//3 45//3 49//3
f 48//3 56//3 55//3
f 46//3 49//3 48//3
f 57//6 58//6 54//6
f 54//6 53//6 50//6
f 51//6 57//6 54//6
f 59//12 60//12 55//12
f 57//9 60//9 59//9
