v -1 5 2
v -1 5 0
v -2 5 1
v -2 3 3
v 0 3 3
v -1 4 3
v -3 4 1
v -3 2 1
v -3 3 2
v -2 5 2
v -3 4 2
v -2 4 3
v -2 5 3
v -3 5 2
v -3 4 3
v 0 5 2
v -2 5 0
v -2 2 3
v 0 4 3
v 2 5 0
v -3 4 0
v 0 5 -2
v -3 2 2
v 0 0 3
v 2 2 3
v 1 5 0
v -3 2 -2
v 0 5 -1
v -3 0 0
v 0 1 3
v 1 2 3
v 0 5 1
v -3 2 -1
v -1 2 3
v 0 5 0
v -3 3 0
v 0 2 3
v -3 2 0
v -3 1 0
v 1 0 0
v -1 0 0
v 0 0 -1
v 2 2 -1
v 2 2 1
v 2 1 0
v 0 1 -2
v 0 3 -2
v 1 2 -2
v 1 0 -1
v 1 1 -2
v 2 1 -1
v 2 0 -1
v 1 0 -2
v 2 1 -2
v 1 0 1
v -1 0 -1
v 2 3 -1
v 2 1 1
v -1 0 3
v -1 1 -2
v -3 0 1
v 1 3 -2
v 2 5 1
v 2 3 3
v -1 0 2
v -3 3 -2
v -2 0 1
v -1 5 -2
v 2 4 1
v 2 3 2
v 0 0 1
v -2 3 -2
v 2 3 0
v -1 0 1
v -1 2 -2
v 2 3 1
v -1 3 -2
v -1 4 -2
vn 0 1 0
vn 0 0 1
vn -1 0 0
vn -0.57735 0.57735 0.57735
vn 0.57735 0.57735 0.57735
vn -0.57735 0.57735 -0.57735
vn -0.57735 -0.57735 0.57735
vn 0 0.7071 0.7071
vn -0.7071 0.7071 0
vn -0.7071 0 0.7071
vn 0 -0.7071 -0.7071
vn 0.7071 -0.7071 0
vn 0.7071 0 -0.7071
vn -0.57735 -0.57735 -0.57735
vn 0.57735 -0.57735 0.57735
vn 0.57735 0.57735 -0.57735
vn 1 0 0
vn 0 0 -1
vn 0 -1 0
vn 0.57735 -0.57735 -0.57735
f 1//1 2//1 3//1
f 4//2 5//2 6//2
f 7//3 8//3 9//3
f 10//4 11//4 12//4
f 10//3 12//3 13//3
f 14//2 11//2 10//2
f 15//1 12//1 11//1
f 13//5 6//5 1//5
f 14//6 3//6 7//6
f 15//7 9//7 4//7
f 6//8 16//8 1//8
f 7//9 3//9 17//9
f 9//10 18//10 4//10
f 19//5 20//5 16//5
f 21//6 17//6 22//6
f 23//7 24//7 18//7
f 25//11 26//11 20//11
f 27//12 22//12 28//12
f 29//13 30//13 24//13
f 31//14 32//14 26//14
f 2//15 33//15 28//15
f 30//16 8//16 34//16
f 5//17 35//17 32//17
f 35//18 36//18 2//18
f 37//19 34//19 8//19
f 38//20 35//20 37//20
f 10//1 13//1 1//1
f 1//1 16//1 32//1
f 20//1 26//1 32//1
f 32//1 35//1 2//1
f 2//1 28//1 22//1
f 22//1 17//1 2//1
f 3//1 14//1 10//1
f 16//1 20//1 32//1
f 2//1 17//1 3//1
f 1//1 32//1 2//1
f 3//1 10//1 1//1
f 12//2 15//2 4//2
f 4//2 18//2 34//2
f 24//2 30//2 34//2
f 34//2 37//2 5//2
f 5//2 31//2 25//2
f 25//2 19//2 5//2
f 6//2 13//2 12//2
f 18//2 24//2 34//2
f 5//2 19//2 6//2
f 4//2 34//2 5//2
f 6//2 12//2 4//2
f 11//3 14//3 7//3
f 7//3 21//3 36//3
f 27//3 33//3 36//3
f 36//3 38//3 8//3
f 8//3 39//3 29//3
f 29//3 23//3 8//3
f 9//3 15//3 11//3
f 21//3 27//3 36//3
f 8//3 23//3 9//3
f 7//3 36//3 8//3
f 9//3 11//3 7//3
f 6//8 19//8 16//8
f 7//9 17//9 21//9
f 9//10 23//10 18//10
f 19//5 25//5 20//5
f 21//6 22//6 27//6
f 23//7 29//7 24//7
f 25//11 31//11 26//11
f 27//12 28//12 33//12
f 29//13 39//13 30//13
f 31//14 5//14 32//14
f 2//15 36//15 33//15
f 30//16 39//16 8//16
f 5//17 37//17 35//17
f 35//18 38//18 36//18
f 37//19 8//19 38//19
f 40//19 41//19 42//19
f 43//17 44//17 45//17
f 46//18 47//18 48//18
f 49//20 50//20 51//20
f 49//18 51//18 52//18
f 53//17 50//17 49//17
f 54//19 51//19 50//19
f 52//15 45//15 40//15
f 53//14 42//14 46//14
f 54//16 48//16 43//16
f 45//12 55//12 40//12
f 46//11 42//11 56//11
f 48//13 57//13 43//13
f 58//15 59//15 55//15
f 60//14 56//14 61//14
f 62//16 63//16 57//16
f 64//9 65//9 59//9
f 66//8 61//8 67//8
f 68//10 69//10 63//10
f 70//6 71//6 65//6
f 41//5 72//5 67//5
f 69//7 47//7 73//7
f 44//2 74//2 71//2
f 74//3 75//3 41//3
f 76//1 73//1 47//1
f 77//4 74//4 76//4
f 49//19 52//19 40//19
f 40//19 55//19 71//19
f 59//19 65//19 71//19
f 71//19 74//19 41//19
f 41//19 67//19 61//19
f 61//19 56//19 41//19
f 42//19 53//19 49//19
f 55//19 59//19 71//19
f 41//19 56//19 42//19
f 40//19 71//19 41//19
f 42//19 49//19 40//19
f 51//17 54//17 43//17
f 43//17 57//17 73//17
f 63//17 69//17 73//17
f 73//17 76//17 44//17
f 44//17 70//17 64//17
f 64//17 58//17 44//17
f 45//17 52//17 51//17
f 57//17 63//17 73//17
f 44//17 58//17 45//17
f 43//17 73//17 44//17
f 45//17 51//17 43//17
f 50//18 53//18 46//18
f 46//18 60//18 75//18
f 66//18 72//18 75//18
f 75//18 77//18 47//18
f 47//18 78//18 68//18
f 68//18 62//18 47//18
f 48//18 54//18 50//18
f 60//18 66//18 75//18
f 47//18 62//18 48//18
f 46//18 75//18 47//18
f 48//18 50//18 46//18
f 45//12 58//12 55//12
f 46//11 56//11 60//11
f 48//13 62//13 57//13
f 58//15 64//15 59//15
f 60//14 61//14 66//14
f 62//16 68//16 63//16
f 64//9 70//9 65//9
f 66//8 67//8 72//8
f 68//10 78//10 69//10
f 70//6 44//6 71//6
f 41//5 75//5 72//5
f 69//7 78//7 47//7
f 44//2 76//2 74//2
f 74//3 77//3 75//3
f 76//1 47//1 77//1
