v 2 1e-06 1e-06
v -1e-06 2 0
v -1e-06 0 2
v -1 0 2
v -1e-06 2 -1
v 2 -1 1e-06
v -1 2 0
v -1e-06 1 2
v 2 1e-06 -1
v 1 2 0
v -1e-06 -1 2
v 2 1e-06 1
v -1e-06 2 1
v -1e-06 2 2
v 2 1 1e-06
v 2 2 1e-06
v 1 0 2
v 2 1e-06 2
v -2 2 0
v -2 0 2
v 2 1e-06 -2
v 0 2 -2
v 0 -2 2
v 2 -2 1e-06
v -2 -1 2
v -1 2 -2
v 2 -2 -1
v -3 -2 2
v -2 2 -1
v -2 2 -3
v 2 -1 -2
v 2 -3 -2
v -1 -2 2
v -3 2 -2
v -2 -2 2
v 2 -2 -3
v -2 2 -2
v -2 -3 2
v 2 -2 -2
v -1 -3 -1
v -3 -1 -1
v -1 -1 -3
v -1 0 -3
v -3 -1 0
v 0 -3 -1
v -3 0 -1
v -2 -1 -3
v -1 -3 0
v -3 -2 -1
v 0 -1 -3
v -1 -3 -2
v -3 -1 -2
v -3 -1 -3
v -2 -3 -1
v -3 -3 -1
v -1 -2 -3
v -1 -3 -3
v -3 1 -1
v -1 1 -3
v -1 -3 1
v -3 -1 1
v 1 -1 -3
v 1 -3 -1
v 0 1 -3
v -3 0 1
v 1 -3 0
v 1 2 -3
v -3 1 0
v -3 1 2
v 0 -3 1
v 2 -3 1
v 1 0 -3
v -3 2 1
v 1 1 -3
v 1 -3 2
v -3 1 1
v 2 1 -3
v 1 -3 1
vn 0.5774 0.5774 0.5774
vn 0 0.7071 0.7071
vn 0.7071 0.7071 0
vn 0.7071 0 0.7071
vn 0.5774 -0.5774 -0.5774
vn -0.5774 -0.5774 0.5774
vn -0.5774 0.5774 -0.5774
vn 1 0 0
vn 0 0 1
vn 0 1 0
vn -0.5774 0.5774 0.5774
vn 0.5774 0.5774 -0.5774
vn 0.5774 -0.5774 0.5774
vn -1 0 0
vn 0 0 -1
vn 0 -1 0
vn -0.5774 0.5773 0.5774
vn 0.5774 -0.5773 0.5774
vn 0 -0.7071 -0.7071
vn -0.7071 -0.7071 0
vn -0.7071 0 -0.7071
vn -0.5773 -0.5774 -0.5774
vn 0.5774 -0.5774 -0.5773
vn -0.5774 -0.5774 -0.5774
vn 0.5774 0.5774 -0.5773
f 1//1 2//1 3//1
f 2//2 4//2 3//2
f 1//3 5//3 2//3
f 3//4 6//4 1//4
f 7//5 8//5 4//5
f 9//6 10//6 5//6
f 11//7 12//7 6//7
f 8//8 13//8 14//8
f 10//9 15//9 16//9
f 12//10 17//10 18//10
f 14//11 19//11 20//11
f 16//12 21//12 22//12
f 18//13 23//13 24//13
f 19//14 25//14 20//14
f 21//15 26//15 22//15
f 23//16 27//16 24//16
f 28//11 25//11 29//17
f 30//12 26//12 31//12
f 32//13 27//13 33//18
f 34//19 35//19 28//19
f 36//20 37//20 30//20
f 38//21 39//21 32//21
f 35//22 37//22 39//22
f 25//9 33//9 11//9
f 26//10 29//10 7//10
f 27//8 31//8 9//8
f 2//2 7//2 4//2
f 1//3 9//3 5//3
f 3//4 11//4 6//4
f 7//5 13//23 8//5
f 9//6 15//6 10//6
f 11//7 17//7 12//7
f 19//14 29//14 25//14
f 21//15 31//15 26//15
f 23//16 33//16 27//16
f 28//11 29//17 34//17
f 30//12 31//12 36//12
f 32//13 33//18 38//18
f 34//19 37//19 35//19
f 36//20 39//20 37//20
f 38//21 35//21 39//21
f 11//9 3//9 4//9
f 4//9 8//9 14//9
f 14//9 20//9 4//9
f 25//9 28//9 35//9
f 35//9 38//9 33//9
f 33//9 23//9 11//9
f 18//9 17//9 11//9
f 4//9 20//9 25//9
f 23//9 18//9 11//9
f 11//9 4//9 25//9
f 25//9 35//9 33//9
f 7//10 2//10 5//10
f 5//10 10//10 16//10
f 16//10 22//10 5//10
f 26//10 30//10 37//10
f 37//10 34//10 29//10
f 29//10 19//10 7//10
f 14//10 13//10 7//10
f 5//10 22//10 26//10
f 19//10 14//10 7//10
f 7//10 5//10 26//10
f 26//10 37//10 29//10
f 9//8 1//8 6//8
f 6//8 12//8 18//8
f 18//8 24//8 6//8
f 27//8 32//8 39//8
f 39//8 36//8 31//8
f 31//8 21//8 9//8
f 16//8 15//8 9//8
f 6//8 24//8 27//8
f 21//8 16//8 9//8
f 9//8 6//8 27//8
f 27//8 39//8 31//8
f 40//24 41//24 42//24
f 41//21 43//21 42//21
f 40//20 44//20 41//20
f 42//19 45//19 40//19
f 46//13 47//13 43//13
f 48//12 49//12 44//12
f 50//11 51//11 45//11
f 47//16 52//16 53//16
f 49//15 54//15 55//15
f 51//14 56//14 57//14
f 53//7 58//7 59//7
f 55//6 60//6 61//6
f 57//5 62//5 63//5
f 58//10 64//10 59//10
f 60//9 65//9 61//9
f 62//8 66//8 63//8
f 67//7 64//7 68//7
f 69//6 65//6 70//6
f 71//5 66//5 72//5
f 73//4 74//4 67//4
f 75//3 76//3 69//3
f 77//2 78//2 71//2
f 74//1 76//1 78//1
f 64//15 72//15 50//15
f 65//14 68//14 46//14
f 66//16 70//16 48//16
f 41//21 46//21 43//21
f 40//20 48//20 44//20
f 42//19 50//19 45//19
f 46//13 52//13 47//13
f 48//12 54//25 49//12
f 50//11 56//11 51//11
f 58//10 68//10 64//10
f 60//9 70//9 65//9
f 62//8 72//8 66//8
f 67//7 68//7 73//7
f 69//6 70//6 75//6
f 71//5 72//5 77//5
f 73//4 76//4 74//4
f 75//3 78//3 76//3
f 77//2 74//2 78//2
f 50//15 42//15 43//15
f 43//15 47//15 53//15
f 53//15 59//15 43//15
f 64//15 67//15 74//15
f 74//15 77//15 72//15
f 72//15 62//15 50//15
f 57//15 56//15 50//15
f 43//15 59//15 64//15
f 62//15 57//15 50//15
f 50//15 43//15 64//15
f 64//15 74//15 72//15
f 46//14 41//14 44//14
f 44//14 49//14 55//14
f 55//14 61//14 44//14
f 65//14 69//14 76//14
f 76//14 73//14 68//14
f 68//14 58//14 46//14
f 53//14 52//14 46//14
f 44//14 61//14 65//14
f 58//14 53//14 46//14
f 46//14 44//14 65//14
f 65//14 76//14 68//14
f 48//16 40//16 45//16
f 45//16 51//16 57//16
f 57//16 63//16 45//16
f 66//16 71//16 78//16
f 78//16 75//16 70//16
f 70//16 60//16 48//16
f 55//16 54//16 48//16
f 45//16 63//16 66//16
f 60//16 55//16 48//16
f 48//16 45//16 66//16
f 66//16 78//16 70//16
