v -1 0 1
v -1 2 3
v -3 2 1
v -3 3 1
v 0 2 3
v -1 0 0
v -1 3 3
v -3 2 2
v 0 0 1
v -1 1 3
v -3 2 0
v -2 0 1
v -2 2 3
v -3 2 3
v -1 0 2
v -1 0 3
v -3 1 1
v -3 0 1
v -1 4 3
v -3 4 1
v 1 0 1
v 1 2 3
v -3 2 -1
v -1 0 -1
v -3 4 0
v 1 3 3
v 0 0 -1
v -3 5 -1
v 0 4 3
v 2 4 3
v 1 0 0
v 1 0 -2
v -3 3 -1
v 1 5 3
v -3 4 -1
v 2 0 -1
v 1 4 3
v -3 4 -2
v 1 0 -1
vn -0.5774 -0.5774 0.5774
vn -0.7071 0 0.7071
vn 0 -0.7071 0.7071
vn -0.7071 -0.7071 0
vn 0.5774 -0.5774 -0.5774
vn -0.5774 0.5774 -0.5774
vn 0.5774 0.5774 0.5774
vn 0 -1 0
vn -1 0 0
vn 0 0 1
vn -0.5774 0.5774 0.5774
vn 0.5774 -0.5774 0.5774
vn -0.5774 -0.5774 -0.5774
vn 0 1 0
vn 1 0 0
vn 0 0 -1
vn 0.7071 0 -0.7071
vn 0 0.7071 -0.7071
vn 0.7071 0.7071 0
vn 0.5774 0.5774 -0.5774
f 1//1 2//1 3//1
f 2//2 4//2 3//2
f 1//3 5//3 2//3
f 3//4 6//4 1//4
f 7//5 8//5 4//5
f 9//6 10//6 5//6
f 11//7 12//7 6//7
f 8//8 13//8 14//8
f 10//9 15//9 16//9
f 12//10 17//10 18//10
f 14//11 19//11 20//11
f 16//12 21//12 22//12
f 18//13 23//13 24//13
f 19//14 25//14 20//14
f 21//15 26//15 22//15
f 23//16 27//16 24//16
f 28//11 25//11 29//11
f 30//12 26//12 31//12
f 32//13 27//13 33//13
f 34//17 35//17 28//17
f 36//18 37//18 30//18
f 38//19 39//19 32//19
f 35//20 37//20 39//20
f 25//9 33//9 11//9
f 26//10 29//10 7//10
f 27//8 31//8 9//8
f 2//2 7//2 4//2
f 1//3 9//3 5//3
f 3//4 11//4 6//4
f 7//5 13//5 8//5
f 9//6 15//6 10//6
f 11//7 17//7 12//7
f 19//14 29//14 25//14
f 21//15 31//15 26//15
f 23//16 33//16 27//16
f 28//11 29//11 34//11
f 30//12 31//12 36//12
f 32//13 33//13 38//13
f 34//17 37//17 35//17
f 36//18 39//18 37//18
f 38//19 35//19 39//19
f 11//9 3//9 4//9
f 4//9 8//9 14//9
f 14//9 20//9 4//9
f 25//9 28//9 35//9
f 35//9 38//9 33//9
f 33//9 23//9 11//9
f 18//9 17//9 11//9
f 4//9 20//9 25//9
f 23//9 18//9 11//9
f 11//9 4//9 25//9
f 25//9 35//9 33//9
f 7//10 2//10 5//10
f 5//10 10//10 16//10
f 16//10 22//10 5//10
f 26//10 30//10 37//10
f 37//10 34//10 29//10
f 29//10 19//10 7//10
f 14//10 13//10 7//10
f 5//10 22//10 26//10
f 19//10 14//10 7//10
f 7//10 5//10 26//10
f 26//10 37//10 29//10
f 9//8 1//8 6//8
f 6//8 12//8 18//8
f 18//8 24//8 6//8
f 27//8 32//8 39//8
f 39//8 36//8 31//8
f 31//8 21//8 9//8
f 16//8 15//8 9//8
f 6//8 24//8 27//8
f 21//8 16//8 9//8
f 9//8 6//8 27//8
f 27//8 39//8 31//8