v 5 1 -2
v 5 0 -1
v 2 2 0
v 2 4 2e-06
v 1 3 0
v 4 2 0
v 5 2 0
v 3 4 2e-06
v 1 5 2e-06
v 1 4 2e-06
v 3 3 0
v 3 2 0
v 3 0 0
v 3 1 0
v 1 2 0
v 0 4 2e-06
v 5 2 -1
v 5 2 -3
v 5 4 -2.999998
v 5 5 -2.999998
v 5 3 -1
v 5 1 0
v 5 1 -1
v 5 3 -2
v 5 3 -3
v 5 3.000002 -5
v 5 3.000002 -4
v 5 1 -3
v 3 5 -3.999998
v 3 5 -1.999998
v 4 5 -2.999998
v 1 5 -1.999998
v 2 5 -3.999998
v 0 5 -1.999998
v 4 5 -3.999998
v 4 5.000002 -4.999998
v 2 5 -2.999998
v 2 5 -1.999998
v 2 5 2e-06
v 2 5 -0.999998
v 4 5 -1.999998
v 5 5 -3.999998
v 0 2.499999 -0.5
v 0 1.499999 0.5
v 3 0.499999 -1.5
v 3 0.499997 -3.5
v 4 0.499999 -2.5
v 1 0.499999 -1.5
v 0 0.499999 -1.5
v 2 0.499997 -3.5
v 4 0.499997 -4.5
v 4 0.499998 -3.5
v 2 0.499999 -2.5
v 2 0.499999 -1.5
v 2 0.5 0.5
v 2 0.499999 -0.5
v 4 0.499999 -1.5
v 5 0.499998 -3.5
v 0 1.499999 -1.5
v 0 3.499999 -1.5
v -1e-06 3.499997 -3.5
v -1e-06 3.499997 -4.5
v 0 1.499998 -2.5
v 0 0.499999 -0.5
v 0 1.499999 -0.5
v -1e-06 2.499998 -2.5
v -1e-06 3.499998 -2.5
v -1e-06 5.499998 -2.500002
v -1e-06 4.499999 -2.500002
v 0 3.499999 -0.500001
v 1.999999 4.499997 -4.5
v 1.999999 2.499997 -4.5
v 0.999999 3.499997 -4.5
v 3.999999 2.499997 -4.5
v 2.999999 4.499997 -4.500001
v 4.999999 2.499997 -4.5
v 0.999999 4.499997 -4.5
v 0.999999 5.499997 -4.500002
v 2.999999 3.499997 -4.500001
v 2.999999 2.499997 -4.5
v 3 0.499997 -4.5
v 2.999999 1.499997 -4.5
v 0.999999 2.499997 -4.5
v -1e-06 4.499997 -4.5
vn -0.5774 -0.5774 -0.5774
vn 0 0 1
vn 1 0 0
vn 0 1 0
vn 0.5774 0.5774 0.5774
vn 0.7071 0.7071 0
vn -0.7071 0 -0.7071
vn 0 -0.7071 -0.7071
vn 0.8944 0.4472 0
vn 0.8944 0 -0.4472
vn -0.5774 -0.5773 -0.5774
vn 0 0.4472 -0.8944
vn 0 0.8944 0.4472
vn -0.4472 0.8944 0
vn 0 0.7071 0.7071
vn 0.5774 0.5773 0.5774
vn -0.8944 0 0.4472
vn 0.7071 0 0.7071
vn -0.7071 -0.7071 0
vn 0.4472 0 0.8944
vn 0.4472 -0.8944 0
vn 0 -0.4472 0.8944
vn 0.5774 0.5774 0.5773
vn 0 -1 0
vn -1 0 0
vn 0 0 -1
vn -0.8944 0 -0.4472
vn -0.8944 0.4472 0
vn 0.5773 0.5774 0.5773
vn 0 0.8944 -0.4472
vn 0 -0.4472 -0.8944
vn 0.4472 0 -0.8944
vn -0.5774 -0.5774 -0.5773
vn 0.8944 -0.4472 0
vn -0.4472 -0.8944 0
vn -0.4472 0 0.8944
vn 0 -0.8944 0.4472
vn -0.5773 -0.5774 -0.5774
f 1//1 2//1 3//1
f 4//2 5//2 3//2
f 6//2 7//2 8//2
f 4//2 9//2 10//2
f 11//2 6//2 8//2
f 3//2 12//2 11//2
f 13//2 14//2 3//2
f 5//2 15//2 3//2
f 10//2 16//2 5//2
f 11//2 8//2 4//2
f 4//2 10//2 5//2
f 15//2 13//2 3//2
f 3//2 11//2 4//2
f 17//3 1//3 18//3
f 19//3 20//3 21//3
f 17//3 22//3 23//3
f 24//3 19//3 21//3
f 18//3 25//3 24//3
f 26//3 27//3 18//3
f 1//3 28//3 18//3
f 23//3 2//3 1//3
f 24//3 21//3 17//3
f 17//3 23//3 1//3
f 28//3 26//3 18//3
f 18//3 24//3 17//3
f 29//4 30//4 31//4
f 32//4 33//4 34//4
f 29//4 35//4 36//4
f 37//4 33//4 32//4
f 30//4 37//4 38//4
f 39//4 30//4 40//4
f 31//4 30//4 41//4
f 35//4 31//4 42//4
f 37//4 29//4 33//4
f 29//4 31//4 35//4
f 41//4 30//4 39//4
f 30//4 29//4 37//4
f 31//5 19//5 42//5
f 19//6 31//6 41//6
f 20//7 19//7 41//7
f 42//8 24//8 35//8
f 25//9 35//9 24//9
f 35//9 25//9 36//9
f 36//10 25//10 18//10
f 18//11 29//11 36//11
f 33//12 29//12 26//12
f 22//5 17//5 6//5
f 9//5 4//5 40//5
f 30//7 10//7 9//7
f 38//13 10//13 30//13
f 16//13 10//13 38//13
f 37//14 16//14 38//14
f 34//15 5//15 32//15
f 37//16 32//16 5//16
f 15//17 5//17 34//17
f 28//1 15//1 33//1
f 17//18 21//18 6//18
f 22//19 11//19 23//19
f 12//20 23//20 11//20
f 11//11 17//11 6//11
f 7//8 6//8 21//8
f 28//21 1//21 13//21
f 14//18 13//18 1//18
f 27//6 26//6 29//6
f 14//16 1//16 3//16
f 12//22 3//22 2//22
f 12//20 2//20 23//20
f 20//16 39//16 7//16
f 15//1 28//1 13//1
f 28//1 33//1 26//1
f 33//1 15//1 34//1
f 37//11 5//11 16//11
f 39//19 40//19 8//19
f 40//15 4//15 8//15
f 18//5 27//5 29//5
f 43//23 44//23 45//23
f 46//24 47//24 45//24
f 48//24 49//24 50//24
f 46//24 51//24 52//24
f 53//24 48//24 50//24
f 45//24 54//24 53//24
f 55//24 56//24 45//24
f 47//24 57//24 45//24
f 52//24 58//24 47//24
f 53//24 50//24 46//24
f 46//24 52//24 47//24
f 57//24 55//24 45//24
f 45//24 53//24 46//24
f 59//25 43//25 60//25
f 61//25 62//25 63//25
f 59//25 64//25 65//25
f 66//25 61//25 63//25
f 60//25 67//25 66//25
f 68//25 69//25 60//25
f 43//25 70//25 60//25
f 65//25 44//25 43//25
f 66//25 63//25 59//25
f 59//25 65//25 43//25
f 70//25 68//25 60//25
f 60//25 66//25 59//25
f 71//26 72//26 73//26
f 74//26 75//26 76//26
f 71//26 77//26 78//26
f 79//26 75//26 74//26
f 72//26 79//26 80//26
f 81//26 72//26 82//26
f 73//26 72//26 83//26
f 77//26 73//26 84//26
f 79//26 71//26 75//26
f 71//26 73//26 77//26
f 83//26 72//26 81//26
f 72//26 71//26 79//26
f 73//1 61//1 84//1
f 61//7 73//7 83//7
f 62//6 61//6 83//6
f 84//15 66//15 77//15
f 67//27 77//27 66//27
f 77//27 67//27 78//27
f 78//28 67//28 60//28
f 60//29 71//29 78//29
f 75//30 71//30 68//30
f 64//1 59//1 48//1
f 51//1 46//1 82//1
f 72//6 52//6 51//6
f 80//31 52//31 72//31
f 58//31 52//31 80//31
f 79//32 58//32 80//32
f 76//8 47//8 74//8
f 79//33 74//33 47//33
f 57//34 47//34 76//34
f 70//23 57//23 75//23
f 59//19 63//19 48//19
f 64//18 53//18 65//18
f 54//35 65//35 53//35
f 53//5 59//5 48//5
f 49//15 48//15 63//15
f 70//36 43//36 55//36
f 56//19 55//19 43//19
f 69//7 68//7 71//7
f 56//33 43//33 45//33
f 54//37 45//37 44//37
f 54//35 44//35 65//35
f 62//33 81//33 49//33
f 57//23 70//23 55//5
f 70//23 75//23 68//23
f 75//23 57//23 76//23
f 79//23 47//23 58//23
f 81//18 82//18 50//18
f 82//8 46//8 50//8
f 60//38 69//38 71//38

