v -0.646446 -0.5 2.146446
v 1 0 1
v -1 0 3
v 0.707107 -0.414214 0.707107
v 0.292893 -1 -0.292893
v 1 0 0
v 2 0 -1
v 1 0 -1
v 1 0 -2
v 0 0 -1
v -0.707107 -0.414214 -0.707107
v -1 0 -1
v -2.146446 -0.5 0.646446
v -3 0 1
v -2 0 1
v -0.853554 -0.5 -0.646446
v -1 0 0
v 0 -1.414214 0
v -1 0 1
v 0 0 1
v 0.646446 -0.5 0.853554
v -1 0 2
v -2.146446 0.5 0.646446
v -0.707107 0.414214 -0.707107
v 0.292893 1 -0.292893
v 0.707107 0.414214 0.707107
v -0.646446 0.5 2.146446
v 0.646446 0.5 0.853554
v 0 1.414214 0
v -0.853554 0.5 -0.646446
vn 0.57735 -0.57735 0.57735
vn 0.8165 -0.57735 0
vn 0 -0.57735 -0.8165
vn -0.57735 -0.57735 -0.57735
vn 0 -0.57735 0.8165
vn -0.8165 -0.57735 0
vn -0.57735 0.57735 -0.57735
vn 0 0.57735 -0.8165
vn 0.8165 0.57735 0
vn 0.57735 0.57735 0.57735
vn -0.8165 0.57735 0
vn 0 0.57735 0.8165
f 1//1 2//1 3//1
f 4//2 5//2 6//2
f 6//1 5//1 7//1
f 7//3 5//3 8//3
f 8//2 5//2 9//2
f 9//4 5//4 10//4
f 5//3 11//3 10//3
f 12//4 13//4 14//4
f 14//5 13//5 15//5
f 16//1 11//1 17//1
f 17//6 18//6 19//6
f 18//5 20//5 19//5
f 21//4 1//4 20//4
f 22//6 1//6 3//6
f 1//1 21//1 2//1
f 6//2 2//2 4//2
f 4//2 18//2 5//2
f 2//2 21//2 4//2
f 12//3 10//3 11//3
f 5//3 18//3 11//3
f 11//3 16//3 12//3
f 12//4 16//4 13//4
f 17//1 15//1 13//1
f 13//1 16//1 17//1
f 17//6 11//6 18//6
f 18//5 4//5 20//5
f 22//4 20//4 1//4
f 4//4 21//4 20//4
f 23//7 12//7 14//7
f 24//8 25//8 10//8
f 10//7 25//7 9//7
f 9//9 25//9 8//9
f 8//8 25//8 7//8
f 7//10 25//10 6//10
f 25//9 26//9 6//9
f 2//10 27//10 3//10
f 3//11 27//11 22//11
f 28//7 26//7 20//7
f 20//12 29//12 19//12
f 29//11 17//11 19//11
f 30//10 23//10 17//10
f 15//12 23//12 14//12
f 23//7 30//7 12//7
f 10//8 12//8 24//8
f 24//8 29//8 25//8
f 12//8 30//8 24//8
f 2//9 6//9 26//9
f 25//9 29//9 26//9
f 26//9 28//9 2//9
f 2//10 28//10 27//10
f 20//7 22//7 27//7
f 27//7 28//7 20//7
f 20//12 26//12 29//12
f 29//11 24//11 17//11
f 15//10 17//10 23//10
f 24//10 30//10 17//10
