v 0 -1.414214 -2
v -1 -2.828427 -1
v 1 -2.828427 -1
v 1 -2.828427 1
v 2 -1.414214 0
v -1 -2.828427 1
v 0 -1.414214 2
v -2 -1.414214 0
v 1 0 -1
v 1 0 1
v -1 0 1
v -1 0 -1
v 2.749972 -0.353554 0.042892
v 3 0 1
v 1.292892 -0.414214 -1.292892
v 1.414214 -1.414214 -2
v 0.5 -0.707107 -1.5
v -0.5 -0.707107 -2.5
v -0.5 -2.1213 -2.5
v 0.5 -2.1213 -1.5
v 1.292892 -2.41419 -1.292892
v 2.749972 -2.47485 0.042892
v 3 -2.828427 1
v 2.5 -2.1213 0.5
v 1.457094 -2.47485 -1.249988
v 1.5 -2.1213 -0.5
v 2 -1.414214 -2
v 1.5 -0.707107 -0.5
v 1.457093 -0.353554 -1.249987
v 2.5 -0.707107 0.5
v -2.103553 0.560654 -0.603547
v -2 1.414214 0
v -2 -1.414214 -0.585785
v -1.707107 -1.828409 -1.707107
v -1.5 -2.1213 -0.5
v -1.5 -3.5355 -0.5
v -0.5 -3.5355 -1.5
v -0.5 -2.1213 -1.5
v -0.585785 -1.414214 -2
v -0.603547 0.560654 -2.103553
v 0 1.414214 -2
v -0.5 0.707107 -1.5
v -0.603548 -1.267753 -2.103553
v -0.5 -0.707107 -1.5
v -2 -1.414199 -2
v -1.5 -0.707107 -0.5
v -2.103553 -1.267753 -0.603548
v -1.5 0.707107 -0.5
v 0.646439 -3.328394 -2.146426
v 1 -2.828398 -3
v -0.707101 -3.242608 -0.707107
v -0.292892 -3.828391 0.292892
v -1 -2.828427 0
v -2 -2.828427 1
v -1 -2.828427 2
v 0 -2.828427 1
v 0.707107 -3.242609 0.707098
v 2.146425 -3.328396 -0.646446
v 3 -2.828427 -1
v 2 -2.828427 -1
v 0.853546 -3.328396 0.646435
v 1 -2.828427 0
v 0 -4.2426 0
v 0 -2.828427 -1
v -0.646446 -3.328395 -0.853554
v 1 -2.828396 -2
v -2.749972 -0.353554 -0.042892
v -3 0 -1
v -1.292892 -0.414214 1.292892
v -1.414214 -1.414214 2
v -0.5 -0.707107 1.5
v 0.5 -0.707107 2.5
v 0.5 -2.1213 2.5
v -0.5 -2.1213 1.5
v -1.292892 -2.414191 1.292892
v -2.749972 -2.47485 -0.042892
v -3 -2.828399 -1
v -2.5 -2.1213 -0.5
v -1.457093 -2.47485 1.249987
v -1.5 -2.1213 0.5
v -2 -1.414214 2
v -1.5 -0.707107 0.5
v -1.457094 -0.353554 1.249988
v -2.5 -0.707107 -0.5
v 0.603547 -3.389055 2.103532
v 0 -4.2426 2
v 0.58578 -1.414214 2
v 1.707107 -1 1.707107
v 0.5 -0.707107 1.5
v 0.5 0.707107 1.5
v 1.5 0.707107 0.5
v 1.5 -0.707107 0.5
v 2 -1.414214 0.58578
v 2.103553 -3.389053 0.603543
v 2 -4.2426 0
v 1.5 -3.5355 0.5
v 2.103553 -1.560646 0.603548
v 1.5 -2.1213 0.5
v 2 -1.414214 2
v 0.5 -2.1213 1.5
v 0.603548 -1.560647 2.103553
v 0.5 -3.5355 1.5
v -2.146425 0.5 0.64644
v -3 0 1
v -0.707107 0.414214 -0.7071
v 0.292892 1 -0.292892
v 0 0 -1
v 1 0 -2
v 2 0 -1
v 1 0 0
v 0.707107 0.414214 0.7071
v -0.646446 0.5 2.146425
v -1 0 3
v -1 0 2
v 0.646446 0.5 0.853546
v 0 0 1
v 0 1.414214 0
v -1 0 0
v -0.853546 0.5 -0.64644
v -2 0 1
vn 0 -0.5774 -0.8165
vn 0.8165 -0.5774 0
vn 0 -0.5774 0.8165
vn -0.8165 -0.5774 0
vn 0.8165 0.5774 0
vn 0 0.5774 0.8165
vn -0.8165 0.5774 0
vn 0 0.5774 -0.8165
vn 0.4082 0.8165 -0.4082
vn 0.4082 -0.8165 -0.4082
vn -0.7071 0 0.7071
vn -0.9856 0 0.1691
vn 0.1691 0 -0.9856
vn 0.7071 0 0.7071
vn -0.5774 -0.5774 -0.5774
vn 0.5774 -0.5774 0.5774
vn 0 1 0
vn -0.4082 0.8165 0.4082
vn -0.4082 -0.8165 0.4082
vn 0.7071 0 -0.7071
vn -0.1691 0 0.9856
vn 0.9856 0 -0.1691
vn -0.7071 0 -0.7071
vn -0.5774 0.5774 -0.5774
vn 0.5774 0.5774 0.5774
vn 0 -1 0
f 1//1 3//1 2//1
f 4//2 3//2 5//2
f 6//3 4//3 7//3
f 2//4 6//4 8//4
f 9//5 10//5 5//5
f 10//6 11//6 7//6
f 8//7 11//7 12//7
f 12//8 9//8 1//8
f 13//9 9//9 14//9
f 15//8 16//8 17//8
f 17//9 16//9 18//9
f 18//1 16//1 1//1
f 1//8 16//8 19//8
f 19//10 16//10 20//10
f 16//1 21//1 20//1
f 3//10 22//10 23//10
f 23//5 22//5 24//5
f 25//9 21//9 26//9
f 26//2 27//2 5//2
f 27//5 28//5 5//5
f 29//10 13//10 28//10
f 30//2 13//2 14//2
f 30//11 14//11 9//11
f 17//11 18//11 1//11
f 28//11 30//11 9//11
f 23//11 24//11 26//11
f 1//11 19//11 20//11
f 3//11 23//11 26//11
f 13//9 29//9 9//9
f 17//8 9//8 15//8
f 15//8 27//8 16//8
f 9//8 29//8 15//8
f 3//1 20//1 21//1
f 16//1 27//1 21//1
f 21//1 25//1 3//1
f 3//10 25//10 22//10
f 26//9 24//9 22//9
f 22//9 25//9 26//9
f 26//2 21//2 27//2
f 27//5 15//5 28//5
f 30//10 28//10 13//10
f 15//10 29//10 28//10
f 31//12 8//12 32//12
f 33//4 34//4 35//4
f 35//12 34//12 36//12
f 36//1 34//1 2//1
f 2//4 34//4 37//4
f 37//13 34//13 38//13
f 34//1 39//1 38//1
f 1//13 40//13 41//13
f 41//7 40//7 42//7
f 43//12 39//12 44//12
f 44//8 45//8 12//8
f 45//7 46//7 12//7
f 47//13 31//13 46//13
f 48//8 31//8 32//8
f 48//14 32//14 8//14
f 35//14 36//14 2//14
f 46//14 48//14 8//14
f 41//14 42//14 44//14
f 2//14 37//14 38//14
f 1//14 41//14 44//14
f 31//12 47//12 8//12
f 35//4 8//4 33//4
f 33//4 45//4 34//4
f 8//4 47//4 33//4
f 1//1 38//1 39//1
f 34//1 45//1 39//1
f 39//1 43//1 1//1
f 1//13 43//13 40//13
f 44//12 42//12 40//12
f 40//12 43//12 44//12
f 44//8 39//8 45//8
f 45//7 33//7 46//7
f 48//13 46//13 31//13
f 33//13 47//13 46//13
f 49//15 2//15 50//15
f 51//4 52//4 53//4
f 53//15 52//15 54//15
f 54//3 52//3 6//3
f 6//4 52//4 55//4
f 55//16 52//16 56//16
f 52//3 57//3 56//3
f 4//16 58//16 59//16
f 59//1 58//1 60//1
f 61//15 57//15 62//15
f 62//2 63//2 3//2
f 63//1 64//1 3//1
f 65//16 49//16 64//16
f 66//2 49//2 50//2
f 66//17 50//17 2//17
f 53//17 54//17 6//17
f 64//17 66//17 2//17
f 59//17 60//17 62//17
f 6//17 55//17 56//17
f 4//17 59//17 62//17
f 49//15 65//15 2//15
f 53//4 2//4 51//4
f 51//4 63//4 52//4
f 2//4 65//4 51//4
f 4//3 56//3 57//3
f 52//3 63//3 57//3
f 57//3 61//3 4//3
f 4//16 61//16 58//16
f 62//15 60//15 58//15
f 58//15 61//15 62//15
f 62//2 57//2 63//2
f 63//1 51//1 64//1
f 66//16 64//16 49//16
f 51//16 65//16 64//16
f 67//18 11//18 68//18
f 69//6 70//6 71//6
f 71//18 70//18 72//18
f 72//3 70//3 7//3
f 7//6 70//6 73//6
f 73//19 70//19 74//19
f 70//3 75//3 74//3
f 6//19 76//19 77//19
f 77//7 76//7 78//7
f 79//18 75//18 80//18
f 80//4 81//4 8//4
f 81//7 82//7 8//7
f 83//19 67//19 82//19
f 84//4 67//4 68//4
f 84//20 68//20 11//20
f 71//20 72//20 7//20
f 82//20 84//20 11//20
f 77//20 78//20 80//20
f 7//20 73//20 74//20
f 6//20 77//20 80//20
f 67//18 83//18 11//18
f 71//6 11//6 69//6
f 69//6 81//6 70//6
f 11//6 83//6 69//6
f 6//3 74//3 75//3
f 70//3 81//3 75//3
f 75//3 79//3 6//3
f 6//19 79//19 76//19
f 80//18 78//18 76//18
f 76//18 79//18 80//18
f 80//4 75//4 81//4
f 81//7 69//7 82//7
f 84//19 82//19 67//19
f 69//19 83//19 82//19
f 85//21 7//21 86//21
f 87//6 88//6 89//6
f 89//21 88//21 90//21
f 90//5 88//5 10//5
f 10//6 88//6 91//6
f 91//22 88//22 92//22
f 88//5 93//5 92//5
f 5//22 94//22 95//22
f 95//3 94//3 96//3
f 97//21 93//21 98//21
f 98//2 99//2 4//2
f 99//3 100//3 4//3
f 101//22 85//22 100//22
f 102//2 85//2 86//2
f 102//23 86//23 7//23
f 89//23 90//23 10//23
f 100//23 102//23 7//23
f 95//23 96//23 98//23
f 10//23 91//23 92//23
f 5//23 95//23 98//23
f 85//21 101//21 7//21
f 89//6 7//6 87//6
f 87//6 99//6 88//6
f 7//6 101//6 87//6
f 5//5 92//5 93//5
f 88//5 99//5 93//5
f 93//5 97//5 5//5
f 5//22 97//22 94//22
f 98//21 96//21 94//21
f 94//21 97//21 98//21
f 98//2 93//2 99//2
f 99//3 87//3 100//3
f 102//22 100//22 85//22
f 87//22 101//22 100//22
f 103//24 12//24 104//24
f 105//8 106//8 107//8
f 107//24 106//24 108//24
f 108//5 106//5 9//5
f 9//8 106//8 109//8
f 109//25 106//25 110//25
f 106//5 111//5 110//5
f 10//25 112//25 113//25
f 113//7 112//7 114//7
f 115//24 111//24 116//24
f 116//6 117//6 11//6
f 117//7 118//7 11//7
f 119//25 103//25 118//25
f 120//6 103//6 104//6
f 120//26 104//26 12//26
f 107//26 108//26 9//26
f 118//26 120//26 12//26
f 113//26 114//26 116//26
f 9//26 109//26 110//26
f 10//26 113//26 116//26
f 103//24 119//24 12//24
f 107//8 12//8 105//8
f 105//8 117//8 106//8
f 12//8 119//8 105//8
f 10//5 110//5 111//5
f 106//5 117//5 111//5
f 111//5 115//5 10//5
f 10//25 115//25 112//25
f 116//24 114//24 112//24
f 112//24 115//24 116//24
f 116//6 111//6 117//6
f 117//7 105//7 118//7
f 120//25 118//25 103//25
f 105//25 119//25 118//25