v 2 -0.999999 -1
v -1 -1.7071 1
v 0 -1 1
v 2 1.000001 -1
v -1 0.2929 1
v 1 0.292901 -1
v 0 1 1
v 1 -1.707099 -1
v -1 -0.2929 2
v 1 -1 1
v -1 -1 3
v -1 1.7071 2
v 1 1 1
v 1 1.7071 0
v 1 -0.2929 0
v -1 1 3
v -1 -1.707099 -1
v -2 -1 1
v 0 -0.999999 -1
v -1 0.292901 -1
v -2 1 1
v -3 0.2929 1
v -3 -1.7071 1
v 0 1.000001 -1
v -1 -0.2929 0
v 1 -0.999999 -1
v 1 -0.292899 -2
v -1 1.7071 0
v 1 1.000001 -1
v -1 1 1
v -1 -1 1
v 1 1.707101 -2
vn -0.5 0.7071 -0.5
vn 0.5 -0.7071 0.5
vn -0.7071 0 -0.7071
vn 0 0 -1
vn 0.7071 0 0.7071
vn 0 0 1
vn -0.5 -0.7071 -0.5
vn 0.5 0.7071 0.5
vn 1 0 0
vn -1 0 0
f 1//1 2//1 3//1
f 4//2 5//2 6//2
f 1//3 7//3 4//3
f 3//4 5//4 7//4
f 2//5 6//5 5//5
f 8//6 4//6 6//6
f 9//7 10//7 11//7
f 12//8 13//8 14//8
f 15//3 12//3 14//3
f 11//5 13//5 16//5
f 10//9 14//9 13//9
f 9//10 16//10 12//10
f 17//1 18//1 19//1
f 20//2 21//2 22//2
f 23//5 20//5 22//5
f 18//4 22//4 21//4
f 17//6 24//6 20//6
f 19//3 21//3 24//3
f 25//8 26//8 27//8
f 28//7 29//7 30//7
f 26//3 30//3 29//3
f 31//9 28//9 30//9
f 25//5 32//5 28//5
f 27//10 29//10 32//10
f 1//1 8//1 2//1
f 4//2 7//2 5//2
f 1//3 3//3 7//3
f 3//4 2//4 5//4
f 2//5 8//5 6//5
f 8//6 1//6 4//6
f 9//7 15//7 10//7
f 12//8 16//8 13//8
f 15//3 9//3 12//3
f 11//5 10//5 13//5
f 10//9 15//9 14//9
f 9//10 11//10 16//10
f 17//1 23//1 18//1
f 20//2 24//2 21//2
f 23//5 17//5 20//5
f 18//4 23//4 22//4
f 17//6 19//6 24//6
f 19//3 18//3 21//3
f 25//8 31//8 26//8
f 28//7 32//7 29//7
f 26//3 31//3 30//3
f 31//9 25//9 28//9
f 25//5 27//5 32//5
f 27//10 26//10 29//10
