v 0 -1 -2
v -1 0 -1
v 0 0 -1
v 1 0 -2
v 0 0 -3
v -1 -1 -2
v -2 0 -5
v -1 -2 -2
v -2 -3 -2
v 1 0 -5
v 1 -2 -2
v 1 -3 -2
v 1 0 -3
v 1 -1 -2
v 1 0 -4
v 2 -1 -2
v 0 0 -5
v -1 -4 -2
v 0 -3 -2
v -1 0 -6
v -1 -5 -2
v -1 0 -4
v -1 -3 -2
v -1 0 -5
v 2 0 -3
v -1 0 -3
v -3 -3 -2
v -1 0 -7
v -3 0 -5
v 1 0 -1
v 1 1 -2
v -1 0 0
v -2 0 1
v 1 0 0
v 1 0 1
v 2 0 -1
v -1 0 2
v 0 0 1
v -1 0 3
v -1 0 1
v -3 0 1
v -1 4 -2
v 2 1 -2
v 1 2 -2
v 0 3 -2
v -1 5 -2
v -1 3 -2
v -1 2 -2
v -3 3 -2
v -1 1 -2
v 1 3 -2
v -2 3 -2
v 0 1 -2
vn 0 0.7071 -0.7071
vn -0.5774 0.5774 0.5774
vn 0 0.7071 0.7071
vn 0.5774 -0.5774 -0.5774
vn 1 0 0
vn -1 0 0
vn 0 -0.7071 -0.7071
vn 0.5774 -0.5774 0.5774
vn -0.5774 0.5774 -0.5774
vn 0 -0.7071 0.7071
vn 0.5774 0.5774 0.5774
vn -0.5774 -0.5774 -0.5774
vn -0.5774 -0.5774 0.5774
vn 0.5774 0.5774 -0.5774
f 1//1 2//1 3//1
f 4//2 5//2 1//2
f 5//3 6//3 1//3
f 7//4 8//4 9//4
f 10//5 11//5 12//5
f 13//5 4//5 14//5
f 15//4 16//4 11//4
f 17//2 18//2 19//2
f 20//6 21//6 18//6
f 22//6 23//6 8//6
f 24//7 19//7 23//7
f 25//3 14//3 16//3
f 26//2 27//2 6//2
f 28//4 12//4 21//4
f 29//7 9//7 27//7
f 30//5 4//5 31//5
f 9//8 32//8 33//8
f 12//5 34//5 35//5
f 14//5 4//5 30//5
f 11//8 36//8 34//8
f 19//9 37//9 38//9
f 18//6 39//6 37//6
f 8//6 40//6 32//6
f 23//10 38//10 40//10
f 16//1 30//1 36//1
f 6//9 41//9 2//9
f 21//8 35//8 39//8
f 27//10 33//10 41//10
f 4//9 1//9 3//9
f 42//6 28//6 20//6
f 34//11 43//11 44//11
f 38//12 42//12 45//12
f 37//6 46//6 42//6
f 32//6 47//6 48//6
f 40//3 45//3 47//3
f 36//7 31//7 43//7
f 2//12 49//12 50//12
f 39//11 51//11 46//11
f 41//3 52//3 49//3
f 4//12 3//12 53//12
f 3//7 50//7 53//7
f 33//11 48//11 52//11
f 35//5 44//5 51//5
f 48//6 24//6 22//6
f 47//1 17//1 24//1
f 43//10 13//10 25//10
f 50//13 29//13 26//13
f 46//14 10//14 28//14
f 49//1 7//1 29//1
f 4//13 53//13 5//13
f 53//10 26//10 5//10
f 52//14 22//14 7//14
f 51//5 15//5 10//5
f 31//5 4//5 13//5
f 44//14 25//14 15//14
f 45//13 20//13 17//13
f 1//1 6//1 2//1
f 5//3 26//3 6//3
f 7//4 22//4 8//4
f 10//5 15//5 11//5
f 15//4 25//4 16//4
f 17//2 20//2 18//2
f 20//6 28//6 21//6
f 22//6 24//6 23//6
f 24//7 17//7 19//7
f 25//3 13//3 14//3
f 26//2 29//2 27//2
f 28//4 10//4 12//4
f 29//7 7//7 9//7
f 9//8 8//8 32//8
f 12//5 11//5 34//5
f 11//8 16//8 36//8
f 19//9 18//9 37//9
f 18//6 21//6 39//6
f 8//6 23//6 40//6
f 23//10 19//10 38//10
f 16//1 14//1 30//1
f 6//9 27//9 41//9
f 21//8 12//8 35//8
f 27//10 9//10 33//10
f 42//6 46//6 28//6
f 34//11 36//11 43//11
f 38//12 37//12 42//12
f 37//6 39//6 46//6
f 32//6 40//6 47//6
f 40//3 38//3 45//3
f 36//7 30//7 31//7
f 2//12 41//12 49//12
f 39//11 35//11 51//11
f 41//3 33//3 52//3
f 3//7 2//7 50//7
f 33//11 32//11 48//11
f 35//5 34//5 44//5
f 48//6 47//6 24//6
f 47//1 45//1 17//1
f 43//10 31//10 13//10
f 50//13 49//13 29//13
f 46//14 51//14 10//14
f 49//1 52//1 7//1
f 53//10 50//10 26//10
f 52//14 48//14 22//14
f 51//5 44//5 15//5
f 44//14 43//14 25//14
f 45//13 42//13 20//13
