v -1.707090 -0.707092 1.707103
v 0.000000 0.000000 -1.000000
v 0.000000 -0.000000 1.000000
v 1.000000 0.000000 0.000000
v -2.000000 -0.000000 1.000000
v -1.000000 0.000000 -1.000000
v -3.000000 -0.000000 1.000000
v 1.000000 0.000000 -1.000000
v 1.000000 0.000000 -2.000000
v -1.000000 0.000000 0.000000
v -1.000000 -0.000000 1.000000
v -1.000000 -0.000000 3.000000
v -1.000000 -0.000000 2.000000
v 1.000000 -0.000000 1.000000
v 2.000000 0.000000 -1.000000
v -4.707094 -0.707102 1.707103
v -1.292890 -0.707111 -1.707117
v -0.292899 -0.707118 -1.707118
v 1.707122 -0.707114 -3.707118
v 1.707099 -0.707102 -1.707102
v 3.707114 -0.707113 -1.707111
v 1.707109 -0.707106 0.292892
v 1.707100 -0.707106 1.292892
v -1.707110 -0.707110 4.707115
vn 0.0000 1.0000 0.0000
vn -0.5000 0.7071 -0.5000
vn 0.0000 0.7071 0.7071
vn -0.7071 0.7071 0.0000
vn 0.5000 0.7071 0.5000
vn 0.0000 0.7071 -0.7071
vn 0.7071 0.7071 0.0000
vn 0.0000 -1.0000 -0.0000
f 2//1 3//1 4//1
f 5//1 6//1 7//1
f 2//1 8//1 9//1
f 10//1 6//1 5//1
f 3//1 10//1 11//1
f 12//1 3//1 13//1
f 4//1 3//1 14//1
f 10//1 2//1 6//1
f 2//1 4//1 8//1
f 3//1 2//1 10//1
f 8//1 4//1 15//1
f 14//1 3//1 12//1
f 13//2 3//2 1//2
f 11//3 1//3 3//3
f 11//4 10//4 1//4
f 10//5 5//5 1//5
f 16//3 5//3 7//3
f 16//2 6//2 17//2
f 17//6 2//6 18//6
f 19//2 2//2 9//2
f 19//7 8//7 20//7
f 21//6 8//6 15//6
f 21//5 4//5 22//5
f 23//7 4//7 14//7
f 23//5 12//5 24//5
f 12//4 1//4 24//4
f 20//8 22//8 18//8
f 16//3 1//3 5//3
f 16//2 7//2 6//2
f 17//6 6//6 2//6
f 19//2 18//2 2//2
f 19//7 9//7 8//7
f 21//6 20//6 8//6
f 21//5 15//5 4//5
f 23//7 22//7 4//7
f 23//5 14//5 12//5
f 12//4 13//4 1//4
f 1//8 16//8 17//8
f 18//8 19//8 20//8
f 1//8 17//8 18//8
f 23//8 24//8 1//8
f 20//8 21//8 22//8
f 22//8 23//8 1//8
f 1//8 18//8 22//8
