v 2 1 -1
v 1 1 -1
v -2 1 1
v 1 1 -2
v 1 1 1
v 1 1 0
v -3 1 1
v -1 1 2
v -1 1 3
v -3 1 3
v -3 1 2
v -3 2 0
v -3 3 -1
v -3 0 2
v -3 3 2
v -3 2 2
v -3 3 0
v -3 3 -2
v -3 4 0
v -3 3 1
v -3 1 0
v -3 5 0
v -2 1 3
v -2 1 2
v -2 3 -1
v -2 0 2
v -2 3 2
v -2 2 2
v -2 3 0
v -2 3 -2
v -2 4 0
v -2 3 1
v -2 5 0
v -1 3 -1
v -1 3 2
v -1 3 0
v -1 3 -2
v -1 4 0
v -1 3 1
v -1 5 0
v 0 3 -1
v 0 3 0
v 0 3 -2
v 0 4 0
v 0 3 1
v 0 5 0
v 1 1 3
v 1 1 2
v 2 1 2
v 2 1 3
v 2 3 -1
v 1 0 2
v 2 0 2
v 2 3 2
v 2 3 0
v 1 3 -2
v 2 3 -2
v 2 1 1
v 1 4 0
v 2 3 1
v 2 4 0
v 2 1 0
v 1 5 0
v 2 5 0
v -2 5 2
v -2 4 2
v -2 4 3
v -2 5 3
v -1 2 2
v 0 1 2
v 0 1 3
v -3 4 2
v -3 4 3
v 0 4 2
v 0 4 3
v 0 2 2
v 0 2 3
v 0 0 2
v 0 0 3
v -2 3 3
v 1 2 2
v 0 3 2
v 0 3 3
v 1 2 3
v -2 2 3
v 2 2 2
v 2 2 3
v 0 1 1
v 0 2 1
v 0 0 1
v 1 2 1
v 2 2 1
v -1 2 0
v 0 1 0
v 0 2 0
v 0 0 0
v 1 2 0
v 2 2 0
v -2 5 -1
v -2 4 -1
v 0 1 -1
v -3 4 -1
v 0 4 -1
v -1 4 -1
v 0 0 -1
v 1 2 -1
v 2 2 -1
v -2 5 -2
v -2 4 -2
v -1 2 -2
v 0 1 -2
v -3 4 -2
v 0 4 -2
v -1 4 -2
v 0 2 -2
v 0 0 -2
v 1 2 -2
v -2 2 -2
v 2 2 -2
v 2 4 -1
v 1 4 -1
v 1 5 -1
v 2 5 -1
v -2 5 1
v 1 4 -2
v 1 5 -2
v 1 5 1
v -1 5 1
v -3 5 1
v 0 5 -1
v -1 4 2
v 0 5 1
v -1 5 2
v -1 5 -1
v -1 4 3
v -1 5 3
v -1 3 3
v -2 2 1
v -1 2 1
v -3 2 1
v -1 2 3
v 2 0 -1
v 1 0 -1
v -1 0 0
v -2 0 1
v 1 0 -2
v 1 0 1
v 1 0 0
v -1 0 1
v -3 0 1
v -1 0 2
v -1 0 -1
v -1 0 3
v -2 1 0
v -3 4 1
v -3 2 -1
v -2 4 1
v -2 2 -1
v -1 4 1
v 1 4 1
v 2 4 1
v 1 3 2
v 1 3 3
v 1 3 1
v 1 3 -1
v -1 1 -1
v -1 1 -2
v 0 5 2
v -2 0 0
v -2 2 0
v -1 2 -1
v 0 4 1
v 0 2 -1
v -1 1 1
v 1 3 0
v -1 1 0
v -1.5 1.5 -0.5
v 0.5 2.5 -1.5
v 1.5 2.5 -0.5
v 0.5 3.5 1.5
v -0.5 1.5 2.5
v -2.5 3.5 0.5
v -1.5 4.5 0.5
v -0.5 0.5 1.5
vn 0 0 -1
vn 0.7071 0 0.7071
vn 1 0 0
vn -1 0 0
vn 0 0 1
vn -0.7071 0 -0.7071
vn 0 -0.7071 -0.7071
vn 0 -1 0
vn 0 0.7071 0.7071
vn 0 1 0
vn -0.7071 -0.7071 0
vn 0.7071 0.7071 0
f 1//1 106//1 107//1
f 176//2 138//2 3//2
f 4//3 106//3 2//3
f 5//3 97//3 91//3
f 174//4 93//4 176//4
f 7//5 138//5 140//5
f 4//6 173//6 117//6
f 8//6 89//6 88//6
f 154//7 158//7 177//7
f 8//4 141//4 69//4
f 107//7 62//7 6//7
f 174//5 89//5 139//5
f 141//2 181//2 76//2
f 101//1 171//1 173//1
f 10//8 24//8 23//8
f 12//9 25//9 13//9
f 14//5 24//5 11//5
f 15//5 28//5 27//5
f 17//1 170//1 12//1
f 18//10 25//10 30//10
f 14//7 3//7 26//7
f 29//11 182//11 19//11
f 156//7 154//7 21//7
f 19//1 33//1 31//1
f 10//9 28//9 16//9
f 20//10 29//10 17//10
f 155//6 129//6 33//6
f 154//8 7//8 21//8
f 23//8 8//8 9//8
f 170//9 34//9 25//9
f 26//5 8//5 24//5
f 27//5 69//5 35//5
f 29//1 93//1 170//1
f 30//10 34//10 37//10
f 26//7 174//7 151//7
f 31//7 39//7 32//7
f 166//6 154//6 177//6
f 31//1 40//1 38//1
f 28//11 9//11 85//11
f 29//10 39//10 36//10
f 40//9 183//9 159//9
f 3//8 176//8 174//8
f 9//10 70//10 8//10
f 93//9 41//9 34//9
f 151//1 70//1 78//1
f 35//5 76//5 82//5
f 36//1 95//1 93//1
f 37//10 41//10 43//10
f 174//7 184//7 151//7
f 38//7 45//7 39//7
f 171//7 94//7 176//7
f 38//1 46//1 44//1
f 141//12 71//12 181//12
f 36//10 45//10 42//10
f 159//9 46//9 40//9
f 176//8 88//8 174//8
f 71//8 48//8 47//8
f 95//9 165//9 41//9
f 78//5 48//5 70//5
f 42//1 97//1 95//1
f 43//10 165//10 56//10
f 5//2 78//2 147//2
f 44//7 164//7 45//7
f 173//7 6//7 94//7
f 44//1 63//1 59//1
f 71//9 81//9 76//9
f 42//10 164//10 175//10
f 172//9 63//9 46//9
f 94//8 5//8 88//8
f 47//8 49//8 50//8
f 52//5 49//5 48//5
f 162//5 86//5 54//5
f 98//1 175//1 55//1
f 56//10 51//10 57//10
f 52//7 58//7 53//7
f 59//7 60//7 164//7
f 6//2 1//2 107//2
f 59//1 64//1 61//1
f 47//9 86//9 81//9
f 175//10 60//10 55//10
f 160//9 64//9 63//9
f 6//8 58//8 5//8
f 65//4 67//4 68//4
f 76//9 181//9 71//9
f 72//10 67//10 66//10
f 74//10 135//10 75//10
f 141//8 76//8 77//8
f 78//3 71//3 79//3
f 72//11 80//11 73//11
f 81//11 83//11 82//11
f 28//9 23//9 9//9
f 81//8 87//8 84//8
f 65//12 135//12 131//12
f 76//3 83//3 77//3
f 162//12 87//12 86//12
f 28//4 80//4 27//4
f 124//4 66//4 65//4
f 139//12 70//12 88//12
f 155//10 66//10 157//10
f 131//8 159//8 172//8
f 89//8 69//8 139//8
f 90//3 70//3 78//3
f 27//9 155//9 15//9
f 91//11 82//11 45//11
f 174//11 28//11 138//11
f 91//8 86//8 81//8
f 124//12 131//12 159//12
f 89//3 82//3 76//3
f 164//12 86//12 92//12
f 138//4 27//4 32//4
f 33//4 157//4 124//4
f 93//12 88//12 94//12
f 19//10 157//10 31//10
f 44//10 159//10 172//10
f 95//8 139//8 93//8
f 96//3 88//3 90//3
f 29//6 20//6 182//6
f 97//11 45//11 42//11
f 176//11 138//11 170//11
f 97//8 92//8 91//8
f 159//12 183//12 124//12
f 95//3 45//3 89//3
f 175//12 92//12 98//12
f 170//4 32//4 29//4
f 99//4 31//4 33//4
f 171//12 94//12 101//12
f 102//10 31//10 100//10
f 103//10 38//10 44//10
f 173//8 93//8 171//8
f 105//3 94//3 96//3
f 102//11 29//11 19//11
f 106//11 42//11 41//11
f 158//11 166//11 177//11
f 106//8 98//8 97//8
f 134//6 104//6 33//6
f 173//3 42//3 95//3
f 25//4 170//4 29//4
f 108//4 100//4 99//4
f 110//12 101//12 111//12
f 112//10 100//10 109//10
f 113//10 104//10 103//10
f 115//8 171//8 110//8
f 116//3 101//3 105//3
f 112//11 25//11 102//11
f 173//7 43//7 178//7
f 167//11 158//11 118//11
f 117//8 107//8 106//8
f 108//12 104//12 114//12
f 173//3 115//3 43//3
f 57//7 107//7 56//7
f 158//4 30//4 118//4
f 120//1 122//1 123//1
f 40//2 124//2 183//2
f 125//3 122//3 121//3
f 127//3 160//3 63//3
f 159//4 128//4 40//4
f 155//5 124//5 129//5
f 125//6 130//6 126//6
f 131//6 132//6 172//6
f 104//12 99//12 33//12
f 131//4 136//4 133//4
f 120//2 63//2 59//2
f 159//5 132//5 128//5
f 74//2 136//2 135//2
f 104//1 130//1 103//1
f 51//1 121//1 120//1
f 36//2 157//2 32//2
f 56//3 121//3 165//3
f 175//3 59//3 164//3
f 39//4 38//4 36//4
f 20//5 157//5 155//5
f 125//6 56//6 103//6
f 35//6 172//6 45//6
f 29//6 104//6 34//6
f 35//4 135//4 131//4
f 51//2 59//2 175//2
f 39//5 172//5 159//5
f 82//2 135//2 137//2
f 34//1 103//1 41//1
f 107//1 165//1 51//1
f 93//2 32//2 138//2
f 117//3 165//3 106//3
f 91//3 175//3 164//3
f 139//4 36//4 93//4
f 43//11 117//11 178//11
f 69//6 45//6 89//6
f 170//6 34//6 171//6
f 69//4 137//4 35//4
f 139//5 45//5 39//5
f 76//2 137//2 141//2
f 171//1 41//1 173//1
f 142//1 2//1 1//1
f 144//2 3//2 145//2
f 146//3 2//3 143//3
f 147//3 6//3 5//3
f 149//4 176//4 144//4
f 150//5 3//5 7//5
f 146//6 101//6 4//6
f 90//6 151//6 184//6
f 169//6 166//6 152//6
f 151//4 9//4 8//4
f 142//2 6//2 148//2
f 174//5 149//5 90//5
f 78//11 79//11 9//11
f 166//1 105//1 152//1
f 78//7 5//7 52//7
f 150//6 154//6 169//6
f 91//2 82//2 76//2
f 20//4 17//4 140//4
f 160//9 180//9 162//9
f 19//7 182//7 20//7
f 160//2 168//2 74//2
f 155//9 33//9 22//9
f 116//11 166//11 167//11
f 103//12 175//12 165//12
f 105//11 176//11 166//11
f 44//12 164//12 175//12
f 96//11 174//11 176//11
f 74//2 180//2 160//2
f 174//11 90//11 184//11
f 74//12 163//12 162//12
f 153//2 78//2 9//2
f 162//9 161//9 160//9
f 119//12 56//12 107//12
f 162//12 180//12 74//12
f 173//6 178//6 117//6
f 35//9 172//9 159//9
f 37//7 173//7 171//7
f 27//9 159//9 157//9
f 30//7 171//7 158//7
f 27//11 72//11 155//11
f 18//7 158//7 156//7
f 5//2 76//2 70//2
f 7//6 170//6 154//6
f 119//1 117//1 56//1
f 117//1 43//1 56//1
f 56//1 43//1 113//1
f 114//1 113//1 43//1
f 37//1 114//1 43//1
f 114//1 109//1 108//1
f 114//1 37//1 109//1
f 109//1 37//1 30//1
f 109//1 30//1 112//1
f 43//1 115//1 37//1
f 115//1 110//1 37//1
f 37//1 110//1 30//1
f 118//1 30//1 110//1
f 118//1 110//1 167//1
f 110//1 111//1 167//1
f 116//1 167//1 111//1
f 64//3 161//3 61//3
f 61//3 161//3 60//3
f 161//3 54//3 60//3
f 54//3 86//3 60//3
f 92//3 60//3 86//3
f 60//3 92//3 55//3
f 92//3 98//3 55//3
f 98//3 92//3 58//3
f 58//3 62//3 98//3
f 62//3 107//3 98//3
f 98//3 107//3 51//3
f 57//3 51//3 107//3
f 92//3 86//3 49//3
f 50//3 49//3 86//3
f 92//3 49//3 58//3
f 53//3 58//3 49//3
f 87//5 163//5 84//5
f 84//5 163//5 83//5
f 163//5 75//5 83//5
f 75//5 135//5 83//5
f 137//5 83//5 135//5
f 137//5 135//5 67//5
f 68//5 67//5 135//5
f 73//5 80//5 67//5
f 67//5 80//5 137//5
f 137//5 80//5 141//5
f 83//5 137//5 77//5
f 141//5 77//5 137//5
f 80//5 85//5 141//5
f 85//5 9//5 141//5
f 141//5 9//5 71//5
f 79//5 71//5 9//5
f 22//4 19//4 155//4
f 19//4 20//4 155//4
f 155//4 20//4 15//4
f 16//4 15//4 20//4
f 20//4 140//4 16//4
f 17//4 12//4 140//4
f 18//4 156//4 13//4
f 13//4 156//4 12//4
f 156//4 21//4 12//4
f 140//4 12//4 7//4
f 21//4 7//4 12//4
f 16//4 140//4 11//4
f 7//4 11//4 140//4
f 16//4 11//4 10//4
f 11//4 7//4 14//4
f 129//10 124//10 33//10
f 40//10 33//10 124//10
f 33//10 40//10 134//10
f 46//10 130//10 40//10
f 130//10 134//10 40//10
f 126//10 130//10 122//10
f 123//10 122//10 63//10
f 63//10 122//10 46//10
f 46//10 122//10 130//10
f 132//10 46//10 128//10
f 128//10 46//10 40//10
f 127//10 63//10 132//10
f 46//10 132//10 63//10
f 127//10 132//10 168//10
f 132//10 133//10 168//10
f 168//10 133//10 136//10
f 148//8 143//8 142//8
f 146//8 143//8 105//8
f 96//8 143//8 148//8
f 143//8 96//8 105//8
f 147//8 90//8 148//8
f 148//8 90//8 96//8
f 78//8 90//8 147//8
f 90//8 78//8 151//8
f 78//8 153//8 151//8
f 90//8 149//8 96//8
f 149//8 144//8 96//8
f 96//8 144//8 105//8
f 152//8 105//8 144//8
f 152//8 144//8 169//8
f 144//8 145//8 169//8
f 150//8 169//8 145//8
f 103//12 56//12 113//12
f 98//12 179//12 175//12
f 175//2 179//2 51//2
f 98//9 51//9 179//9
f 81//1 76//1 82//1
f 1//1 2//1 106//1
f 176//2 93//2 138//2
f 4//3 117//3 106//3
f 5//3 6//3 97//3
f 174//4 139//4 93//4
f 7//5 3//5 138//5
f 4//6 101//6 173//6
f 8//6 69//6 89//6
f 8//4 9//4 141//4
f 174//5 88//5 89//5
f 10//8 11//8 24//8
f 12//9 170//9 25//9
f 14//5 26//5 24//5
f 15//5 16//5 28//5
f 17//1 29//1 170//1
f 18//10 13//10 25//10
f 14//7 7//7 3//7
f 156//7 158//7 154//7
f 19//1 22//1 33//1
f 10//9 23//9 28//9
f 23//8 24//8 8//8
f 170//9 93//9 34//9
f 26//5 151//5 8//5
f 27//5 28//5 69//5
f 29//1 36//1 93//1
f 30//10 25//10 34//10
f 26//7 3//7 174//7
f 31//7 38//7 39//7
f 31//1 33//1 40//1
f 29//10 32//10 39//10
f 9//10 71//10 70//10
f 93//9 95//9 41//9
f 151//1 8//1 70//1
f 35//5 69//5 76//5
f 36//1 42//1 95//1
f 37//10 34//10 41//10
f 38//7 44//7 45//7
f 171//7 173//7 94//7
f 38//1 40//1 46//1
f 36//10 39//10 45//10
f 159//9 172//9 46//9
f 176//8 94//8 88//8
f 71//8 70//8 48//8
f 95//9 97//9 165//9
f 78//5 52//5 48//5
f 42//1 175//1 97//1
f 43//10 41//10 165//10
f 44//7 59//7 164//7
f 173//7 106//7 6//7
f 44//1 46//1 63//1
f 71//9 47//9 81//9
f 42//10 45//10 164//10
f 172//9 160//9 63//9
f 94//8 6//8 5//8
f 47//8 48//8 49//8
f 52//5 53//5 49//5
f 162//5 81//5 86//5
f 56//10 165//10 51//10
f 52//7 5//7 58//7
f 59//7 61//7 60//7
f 59//1 63//1 64//1
f 47//9 50//9 86//9
f 175//10 164//10 60//10
f 160//9 161//9 64//9
f 6//8 62//8 58//8
f 65//4 66//4 67//4
f 72//10 73//10 67//10
f 78//3 70//3 71//3
f 72//11 27//11 80//11
f 81//11 84//11 83//11
f 81//8 86//8 87//8
f 65//12 68//12 135//12
f 76//3 82//3 83//3
f 162//12 163//12 87//12
f 28//4 85//4 80//4
f 124//4 157//4 66//4
f 139//12 69//12 70//12
f 155//10 72//10 66//10
f 89//8 76//8 69//8
f 90//3 88//3 70//3
f 91//11 81//11 82//11
f 174//11 8//11 28//11
f 91//8 92//8 86//8
f 124//12 65//12 131//12
f 89//3 45//3 82//3
f 164//12 162//12 86//12
f 138//4 28//4 27//4
f 33//4 31//4 157//4
f 93//12 139//12 88//12
f 19//10 155//10 157//10
f 44//10 38//10 159//10
f 95//8 89//8 139//8
f 96//3 94//3 88//3
f 97//11 91//11 45//11
f 176//11 174//11 138//11
f 97//8 98//8 92//8
f 95//3 42//3 45//3
f 175//12 164//12 92//12
f 170//4 138//4 32//4
f 99//4 100//4 31//4
f 171//12 93//12 94//12
f 102//10 19//10 31//10
f 103//10 104//10 38//10
f 173//8 95//8 93//8
f 105//3 101//3 94//3
f 102//11 25//11 29//11
f 106//11 97//11 42//11
f 106//8 107//8 98//8
f 173//3 41//3 42//3
f 108//4 109//4 100//4
f 110//12 171//12 101//12
f 112//10 102//10 100//10
f 113//10 114//10 104//10
f 115//8 173//8 171//8
f 116//3 111//3 101//3
f 112//11 30//11 25//11
f 167//11 166//11 158//11
f 117//8 119//8 107//8
f 108//12 99//12 104//12
f 120//1 121//1 122//1
f 125//3 126//3 122//3
f 155//5 157//5 124//5
f 125//6 103//6 130//6
f 131//6 133//6 132//6
f 131//4 135//4 136//4
f 120//2 123//2 63//2
f 159//5 172//5 132//5
f 74//2 168//2 136//2
f 104//1 134//1 130//1
f 51//1 165//1 121//1
f 36//2 38//2 157//2
f 56//3 125//3 121//3
f 39//4 159//4 38//4
f 20//5 32//5 157//5
f 35//6 131//6 172//6
f 29//6 31//6 104//6
f 35//4 137//4 135//4
f 51//2 120//2 59//2
f 39//5 45//5 172//5
f 82//2 74//2 135//2
f 34//1 104//1 103//1
f 107//1 106//1 165//1
f 93//2 36//2 32//2
f 117//3 56//3 165//3
f 91//3 97//3 175//3
f 139//4 39//4 36//4
f 69//6 35//6 45//6
f 170//6 29//6 34//6
f 69//4 141//4 137//4
f 139//5 89//5 45//5
f 76//2 82//2 137//2
f 171//1 34//1 41//1
f 142//1 143//1 2//1
f 144//2 176//2 3//2
f 146//3 4//3 2//3
f 147//3 148//3 6//3
f 149//4 174//4 176//4
f 150//5 145//5 3//5
f 146//6 105//6 101//6
f 169//6 154//6 166//6
f 151//4 153//4 9//4
f 142//2 1//2 6//2
f 150//6 7//6 154//6
f 91//2 164//2 82//2
f 160//2 127//2 168//2
f 116//11 105//11 166//11
f 103//12 44//12 175//12
f 105//11 96//11 176//11
f 44//12 172//12 164//12
f 96//11 90//11 174//11
f 74//12 75//12 163//12
f 162//9 54//9 161//9
f 35//9 82//9 172//9
f 37//7 43//7 173//7
f 27//9 35//9 159//9
f 30//7 37//7 171//7
f 18//7 30//7 158//7
f 5//2 91//2 76//2
f 7//6 140//6 170//6