v 16 4 0
v 12 8 0
v 8 4 0
v 9.414214 -4.585786 -1.414214
v 16 0 0
v 8 -8 0
v 14.828426 1.171573 -1.171573
v 13.171573 5.171573 -2.828427
v 20 8 0
v 16 8 0
v 16 12 0
v 9.171573 6.828427 -1.171573
v 8 8 0
v 3.414214 1.414214 -1.414214
v 0 0 0
v 4 0 0
v 8.585786 6.585786 -1.414214
v 12 4 -4
v 8 0 0
v 12 0 0
v 14.585786 0.585786 -1.414214
v 8 -4 0
v 3.414214 1.414214 1.414214
v 9.171573 6.828427 1.171573
v 13.171573 5.171573 2.828427
v 14.828427 1.171573 1.171573
v 9.414214 -4.585786 1.414214
v 14.585786 0.585786 1.414214
v 12 4 4
v 8.585786 6.585786 1.414214
v 10.666667 -2.666667 0
v 5.333333 2.666667 0
v 12 4 0
vn 0 0 1
vn 0.5 -0.5 -0.7071
vn 0.7071 0 -0.7071
vn 0 0.7071 -0.7071
vn -0.5 0.5 -0.7071
vn 0 -0.7071 -0.7071
vn -0.7071 0 -0.7071
vn 0 0 -1
vn -0.5 0.5 0.7071
vn 0 0.7071 0.7071
vn 0.7071 0 0.7071
vn 0.5 -0.5 0.7071
vn -0.7071 0 0.7071
vn 0 -0.7071 0.7071
f 1//1 2//1 3//1 33//1
f 4//2 5//2 5//2 6//2
f 7//3 8//3 1//3
f 1//2 8//2 9//2
f 9//4 8//4 10//4
f 10//3 8//3 11//3
f 11//5 8//5 2//5 2//5
f 8//4 12//4 2//4 2//4
f 13//5 14//5 15//5
f 15//6 14//6 16//6
f 17//2 12//2 3//2
f 3//7 18//7 19//7
f 18//6 20//6 19//6
f 21//5 4//5 20//5
f 22//7 4//7 6//7
f 1//1 9//1 10//1
f 3//1 19//1 20//1
f 15//1 16//1 32//1
f 2//1 13//1 3//1
f 10//1 11//1 2//1
f 20//1 5//1 1//1
f 1//1 10//1 2//1
f 13//1 15//1 32//1
f 3//1 20//1 1//1 33//1
f 4//2 21//2 5//2 5//2
f 1//3 5//3 5//3 7//3
f 7//3 18//3 8//3
f 5//3 5//3 21//3 7//3
f 13//4 2//4 12//4
f 8//4 18//4 12//4
f 12//4 17//4 13//4
f 13//5 17//5 14//5
f 3//2 16//2 14//2
f 14//2 17//2 3//2
f 3//7 12//7 18//7
f 18//6 7//6 20//6
f 22//5 20//5 4//5
f 7//5 21//5 20//5
f 2//8 1//8 20//8 33//8
f 23//9 13//9 15//9
f 24//10 25//10 2//10 2//10
f 2//9 2//9 25//9 11//9
f 11//11 25//11 10//11
f 10//10 25//10 9//10
f 9//12 25//12 1//12
f 25//11 26//11 1//11
f 5//12 27//12 6//12
f 6//13 27//13 22//13
f 28//9 26//9 20//9
f 20//14 29//14 19//14
f 29//13 3//13 19//13
f 30//12 23//12 3//12
f 16//14 23//14 15//14
f 2//8 11//8 10//8
f 20//8 19//8 3//8
f 6//8 22//8 20//8 31//8
f 1//8 5//8 20//8
f 10//8 9//8 1//8
f 3//8 13//8 2//8
f 2//8 10//8 1//8
f 5//8 6//8 31//8 20//8
f 20//8 3//8 2//8 33//8
f 23//9 30//9 13//9
f 2//10 13//10 24//10
f 24//10 29//10 25//10
f 13//10 30//10 24//10
f 5//11 1//11 26//11 5//11
f 25//11 29//11 26//11
f 26//11 28//11 5//11 5//11
f 5//12 28//12 27//12
f 20//9 22//9 27//9
f 27//9 28//9 20//9
f 20//14 26//14 29//14
f 29//13 24//13 3//13
f 16//12 3//12 23//12
f 24//12 30//12 3//12
f 32//1 3//1 13//1
f 31//1 5//1 20//1
f 31//1 6//1 5//1
f 32//1 16//1 3//1
