v 0 -1.4142 -2
v 1 -2.8284 -1
v -1 -2.8284 -1
v 1 -2.8284 1
v 2 -1.4142 0
v -1 -2.8284 1
v 0 -1.4142 2
v -2 -1.4142 0
v 1 0 -1
v 1 0 1
v -1 0 1
v -1 0 -1
v 2.749971 -0.35355 0.042894
v 3 0 1
v 1.29288 -0.414209 -1.29288
v 1.4142 -1.4142 -2
v 0.5 -0.7071 -1.5
v -0.5 -0.7071 -2.5
v -0.5 -2.1213 -2.5
v 0.5 -2.1213 -1.5
v 1.292881 -2.41419 -1.292881
v 2.749973 -2.47485 0.042891
v 3 -2.8284 1
v 2.5 -2.1213 0.5
v 1.457094 -2.47485 -1.249988
v 1.5 -2.1213 -0.5
v 2 -1.4142 -2
v 1.5 -0.7071 -0.5
v 1.457093 -0.35355 -1.249987
v 2.5 -0.7071 0.5
v -2.103553 0.560654 -0.603547
v -2 1.4142 0
v -2 -1.4142 -0.585786
v -1.707091 -1.828409 -1.707091
v -1.5 -2.1213 -0.5
v -1.5 -3.5355 -0.5
v -0.5 -3.5355 -1.5
v -0.5 -2.1213 -1.5
v -0.585786 -1.4142 -2
v -0.603547 0.560654 -2.103553
v 0 1.4142 -2
v -0.5 0.7071 -1.5
v -0.603548 -1.267753 -2.103553
v -0.5 -0.7071 -1.5
v -2 -1.414199 -2
v -1.5 -0.7071 -0.5
v -2.103553 -1.267753 -0.603548
v -1.5 0.7071 -0.5
v 0.646439 -3.328394 -2.146426
v 1 -2.828398 -3
v -0.707101 -3.242608 -0.707103
v -0.292893 -3.828391 0.292888
v -1 -2.8284 0
v -2 -2.8284 1
v -1 -2.8284 2
v 0 -2.8284 1
v 0.7071 -3.242609 0.7071
v 2.146425 -3.328396 -0.646442
v 3 -2.8284 -1
v 2 -2.8284 -1
v 0.853546 -3.328396 0.646437
v 1 -2.8284 0
v 0 -4.2426 0
v 0 -2.8284 -1
v -0.646446 -3.328395 -0.853548
v 1 -2.828396 -2
v -2.749973 -0.35355 -0.042892
v -3 0 -1
v -1.292881 -0.41421 1.292881
v -1.4142 -1.4142 2
v -0.5 -0.7071 1.5
v 0.5 -0.7071 2.5
v 0.5 -2.1213 2.5
v -0.5 -2.1213 1.5
v -1.29288 -2.414191 1.292879
v -2.749972 -2.47485 -0.042893
v -3 -2.828399 -1
v -2.5 -2.1213 -0.5
v -1.457093 -2.47485 1.249987
v -1.5 -2.1213 0.5
v -2 -1.4142 2
v -1.5 -0.7071 0.5
v -1.457094 -0.35355 1.249988
v -2.5 -0.7071 -0.5
v 0.603547 -3.389055 2.103532
v 0 -4.2426 2
v 0.58578 -1.4142 2
v 1.707091 -1 1.707091
v 0.5 -0.7071 1.5
v 0.5 0.7071 1.5
v 1.5 0.7071 0.5
v 1.5 -0.7071 0.5
v 2 -1.4142 0.58578
v 2.103553 -3.389053 0.603545
v 2 -4.2426 0
v 1.5 -3.5355 0.5
v 2.103553 -1.560646 0.603548
v 1.5 -2.1213 0.5
v 2 -1.4142 2
v 0.5 -2.1213 1.5
v 0.603548 -1.560647 2.103553
v 0.5 -3.5355 1.5
v -2.146425 0.5 0.64644
v -3 0 1
v -0.7071 0.414209 -0.7071
v 0.29289 1 -0.29289
v 0 0 -1
v 1 0 -2
v 2 0 -1
v 1 0 0
v 0.7071 0.414209 0.7071
v -0.646446 0.5 2.146425
v -1 0 3
v -1 0 2
v 0.646446 0.5 0.853546
v 0 0 1
v 0 1.4142 0
v -1 0 0
v -0.853546 0.5 -0.64644
v -2 0 1
v -1.6 -0.6 -2.021314
v -1.6 -0.4 -2.021314
v -1.6 -0.6 -2.221314
v -1.6 -0.4 -2.221314
v -1.4 -0.6 -2.021314
v -1.4 -0.4 -2.021314
v -1.4 -0.6 -2.221314
v -1.4 -0.4 -2.221314
vn 0 -0.57735 -0.8165
vn 0.8165 -0.57735 0
vn 0 -0.57735 0.8165
vn -0.8165 -0.57735 0
vn 0.8165 0.57735 0
vn 0 0.57735 0.8165
vn -0.8165 0.57735 0
vn 0 0.57735 -0.8165
vn 0.4083 0.8165 -0.4083
vn 0.4082 0.8165 -0.4082
vn 0.4082 -0.8165 -0.4082
vn 0.4083 -0.8165 -0.4083
vn 0.4082 0.8165 -0.4083
vn 0.4082 -0.8165 -0.4083
vn -0.7071 0 0.7071
vn -0.9856 0 0.1691
vn 0.1691 0 -0.9856
vn 0.7071 0 0.7071
vn -0.8166 -0.57735 0
vn 0 -0.57735 -0.8166
vn -0.57735 -0.57735 -0.57735
vn 0.57735 -0.57735 0.57735
vn -0.0469 -0.9174 -0.3951
vn 0.412 -0.7403 0.5313
vn 0 -1 0
vn 0 1 0
vn -0.0342 -0.6794 -0.733
vn -0.4083 0.8165 0.4083
vn -0.4082 0.8165 0.4082
vn -0.4082 -0.8165 0.4082
vn -0.4083 -0.8165 0.4083
vn -0.4082 0.8165 0.4083
vn 0.7071 0 -0.7071
vn -0.4082 -0.8165 0.4083
vn -0.1691 0 0.9856
vn 0.9856 0 -0.1691
vn -0.7071 0 -0.7071
vn 0 0.57735 0.8166
vn -0.57735 0.57735 -0.57735
vn 0.57735 0.57735 0.57735
vn -1 0 0
vn 0 0 -1
vn 1 0 0
vn 0 0 1
f 1//1 2//1 3//1
f 4//2 2//2 5//2
f 6//3 4//3 7//3
f 3//4 6//4 8//4
f 9//5 10//5 5//5
f 10//6 11//6 7//6
f 8//7 11//7 12//7
f 12//8 9//8 1//8
f 13//9 9//9 14//9
f 15//8 16//8 17//8
f 17//10 16//10 18//10
f 18//1 16//1 1//1
f 1//8 16//8 19//8
f 19//11 16//11 20//11
f 16//1 21//1 20//1
f 2//12 22//12 23//12
f 23//5 22//5 24//5
f 25//9 21//13 26//9
f 26//2 27//2 5//2
f 27//5 28//5 5//5
f 29//14 13//12 28//12
f 30//2 13//2 14//2
f 30//15 14//15 9//15
f 17//15 18//15 1//15
f 28//15 30//15 9//15
f 23//15 24//15 26//15
f 1//15 19//15 20//15
f 2//15 23//15 26//15
f 13//9 29//9 9//9
f 17//8 9//8 15//8
f 15//8 27//8 16//8
f 9//8 29//8 15//8
f 2//1 20//1 21//1
f 16//1 27//1 21//1
f 21//1 25//1 2//1
f 2//12 25//12 22//12
f 26//9 24//9 22//9
f 22//9 25//9 26//9
f 26//2 21//2 27//2
f 27//5 15//5 28//5
f 30//12 28//12 13//12
f 15//14 29//14 28//12
f 31//16 8//16 32//16
f 33//4 34//4 35//4
f 35//16 34//16 36//16
f 36//1 34//1 3//1
f 3//4 34//4 37//4
f 37//17 34//17 38//17
f 34//1 39//1 38//1
f 1//17 40//17 41//17
f 41//7 40//7 42//7
f 43//16 39//16 44//16
f 44//8 45//8 12//8
f 45//7 46//7 12//7
f 47//17 31//17 46//17
f 48//8 31//8 32//8
f 48//18 32//18 8//18
f 35//18 36//18 3//18
f 46//18 48//18 8//18
f 41//18 42//18 44//18
f 3//18 37//18 38//18
f 1//18 41//18 44//18
f 31//16 47//16 8//16
f 35//4 8//4 33//4
f 33//4 45//4 34//4
f 8//19 47//19 33//19
f 1//1 38//1 39//1
f 34//1 45//1 39//1
f 39//1 43//20 1//1
f 1//17 43//17 40//17
f 44//16 42//16 40//16
f 40//16 43//16 44//16
f 44//8 39//8 45//8
f 45//7 33//7 46//7
f 48//17 46//17 31//17
f 33//17 47//17 46//17
f 49//21 3//21 50//21
f 51//4 52//4 53//4
f 53//21 52//21 54//21
f 54//3 52//3 6//3
f 6//4 52//4 55//4
f 55//22 52//22 56//22
f 52//3 57//3 56//3
f 4//22 58//22 59//22
f 59//1 58//1 60//1
f 61//21 57//21 62//21
f 62//2 63//2 2//2
f 63//1 64//1 2//1
f 65//22 49//23 64//24
f 66//7 49//7 50//7
f 66//25 50//25 3//26
f 53//26 54//26 6//26
f 64//26 66//25 3//26
f 59//26 60//26 62//26
f 6//26 55//26 56//26
f 4//26 59//26 62//26
f 49//21 65//21 3//21
f 53//4 3//4 51//4
f 51//4 63//4 52//4
f 3//4 65//4 51//4
f 4//3 56//3 57//3
f 52//3 63//3 57//3
f 57//3 61//3 4//3
f 4//22 61//22 58//22
f 62//21 60//21 58//21
f 58//21 61//21 62//21
f 62//2 57//2 63//2
f 63//1 51//1 64//1
f 66//27 64//24 49//23
f 51//22 65//22 64//24
f 67//28 11//28 68//28
f 69//6 70//6 71//6
f 71//29 70//29 72//29
f 72//3 70//3 7//3
f 7//6 70//6 73//6
f 73//30 70//30 74//30
f 70//3 75//3 74//3
f 6//31 76//31 77//31
f 77//7 76//7 78//7
f 79//32 75//32 80//28
f 80//4 81//4 8//4
f 81//7 82//7 8//7
f 83//31 67//31 82//31
f 84//4 67//4 68//4
f 84//33 68//33 11//33
f 71//33 72//33 7//33
f 82//33 84//33 11//33
f 77//33 78//33 80//33
f 7//33 73//33 74//33
f 6//33 77//33 80//33
f 67//28 83//28 11//28
f 71//6 11//6 69//6
f 69//6 81//6 70//6
f 11//6 83//6 69//6
f 6//3 74//3 75//3
f 70//3 81//3 75//3
f 75//3 79//3 6//3
f 6//31 79//31 76//31
f 80//28 78//28 76//28
f 76//28 79//32 80//28
f 80//4 75//4 81//4
f 81//7 69//7 82//7
f 84//31 82//31 67//31
f 69//34 83//31 82//31
f 85//35 7//35 86//35
f 87//6 88//6 89//6
f 89//35 88//35 90//35
f 90//5 88//5 10//5
f 10//6 88//6 91//6
f 91//36 88//36 92//36
f 88//5 93//5 92//5
f 5//36 94//36 95//36
f 95//3 94//3 96//3
f 97//35 93//35 98//35
f 98//2 99//2 4//2
f 99//3 100//3 4//3
f 101//36 85//36 100//36
f 102//2 85//2 86//2
f 102//37 86//37 7//37
f 89//37 90//37 10//37
f 100//37 102//37 7//37
f 95//37 96//37 98//37
f 10//37 91//37 92//37
f 5//37 95//37 98//37
f 85//35 101//35 7//35
f 89//6 7//6 87//6
f 87//6 99//6 88//6
f 7//38 101//38 87//38
f 5//5 92//5 93//5
f 88//5 99//5 93//5
f 93//5 97//5 5//5
f 5//36 97//36 94//36
f 98//35 96//35 94//35
f 94//35 97//35 98//35
f 98//2 93//2 99//2
f 99//3 87//3 100//3
f 102//36 100//36 85//36
f 87//36 101//36 100//36
f 103//39 12//39 104//39
f 105//8 106//8 107//8
f 107//39 106//39 108//39
f 108//5 106//5 9//5
f 9//8 106//8 109//8
f 109//40 106//40 110//40
f 106//5 111//5 110//5
f 10//40 112//40 113//40
f 113//7 112//7 114//7
f 115//39 111//39 116//39
f 116//6 117//6 11//6
f 117//7 118//7 11//7
f 119//40 103//40 118//40
f 120//6 103//6 104//6
f 120//25 104//25 12//25
f 107//25 108//25 9//25
f 118//25 120//25 12//25
f 113//25 114//25 116//25
f 9//25 109//25 110//25
f 10//25 113//25 116//25
f 103//39 119//39 12//39
f 107//8 12//8 105//8
f 105//8 117//8 106//8
f 12//8 119//8 105//8
f 10//5 110//5 111//5
f 106//5 117//5 111//5
f 111//5 115//5 10//5
f 10//40 115//40 112//40
f 116//39 114//39 112//39
f 112//39 115//39 116//39
f 116//6 111//6 117//6
f 117//7 105//7 118//7
f 120//40 118//40 103//40
f 105//40 119//40 118//40
