v 0 2.8284 2
v -2 0 1
v 0.5 2.1213 1.5
v 3 0 3
v 0.5 -2.1213 1.5
v 3 0 2
v 0 -2.8284 2
v -3 0 1
v -1 0 0
v 1.5 2.1213 0.5
v 1.5 -2.1213 0.5
v 1 1.4142 1
v -1 0 1
v 3 0 1
v 1 -1.4142 1
v 0 0 1
v 1.5 0.7071 0.5
v 1.5 -0.7071 0.5
v 0.5 0.7071 1.5
v -1 0 2
v 2 0 1
v 3 0 0
v 0.5 -0.7071 1.5
v -1 0 3
v 1 0 1
v 0 0 2
v -1 0 -1
v 2 2.8284 0
v 5 0 1
v 2 -2.8284 0
v 0 0 -1
v 2.5 2.1213 -0.5
v 2.5 -2.1213 -0.5
v 1 0 -2
v 3.5 2.1213 -1.5
v 5 0 0
v 6 0 -1
v 3.5 -2.1213 -1.5
v 3 1.4142 -1
v 5 0 -1
v 3 -1.4142 -1
v 2 0 -1
v 3.5 0.7071 -1.5
v 5 0 -2
v 3.5 -0.7071 -1.5
v 2.5 0.7071 -0.5
v 4 0 -1
v 2.5 -0.7071 -0.5
v 2 0 0
v 1 0 0
v 3 0 -1
v 4 0 1
v 1 0 -1
vn 0.2157 -0.4575 0.8627
vn -0.7071 -0.6667 0.2357
vn -0.647 0.7625 0
vn 0 0.3333 0.9428
vn 0.5 -0.7071 0.5
vn -0.5 -0.7071 -0.5
vn -0.5 0.7071 -0.5
vn 0.5 0.7071 0.5
vn -0.57735 0.8165 0
vn 0.2887 0.4082 0.866
vn 0.2887 -0.4082 0.866
vn -0.6489 -0.6882 0.3244
vn 0.4264 -0.3015 0.8528
vn -0.5 -0.7071 0.5
vn -0.5 0.7071 0.5
vn 0 0 1
vn -0.4264 0.9045 0
vn 0 -0.57735 0.8165
vn 0.7071 0 0.7071
vn 0 0.3333 -0.9428
vn 0.7071 0.6667 -0.2357
vn 0.7071 -0.6667 -0.2357
vn -0.2157 -0.4575 -0.8627
vn 0.6489 -0.6882 -0.3244
vn -0.2887 -0.4082 -0.866
vn 0 0.2294 -0.9733
vn 0.6489 0.6882 -0.3244
vn -0.4264 0.3015 -0.8528
vn 0.4264 0.9045 0
vn 0.5 -0.7071 -0.5
vn -0.4264 -0.3015 -0.8528
vn 0 -0.57735 -0.8165
vn -0.7071 0 -0.7071
vn 0 1 0
vn 0 -0.3333 0.9428
vn -0.647 -0.7625 0
vn -0.7071 0.6667 0.2357
vn 0.2157 0.4575 0.8627
vn -0.6489 0.6882 0.3244
vn 0 0.2294 0.9733
vn 0 -0.2294 0.9733
vn -0.57735 -0.8165 0
vn -0.4264 -0.9045 0
vn 0.4264 0.3015 0.8528
vn 0 0.57735 0.8165
vn -0.2157 0.4575 -0.8627
vn 0.647 0.7625 0
vn 0.647 -0.7625 0
vn 0 -0.3333 -0.9428
vn 0.57735 -0.8165 0
vn 0 -0.2294 -0.9733
vn -0.2887 0.4082 -0.866
vn 0.57735 0.8165 0
vn 0 0 -1
vn 0.5 0.7071 -0.5
vn 0.4264 -0.9045 0
vn 0 0.57735 -0.8165
f 1//1 2//1 3//1
f 3//2 4//2 1//2
f 5//3 4//3 6//3
f 7//4 2//4 8//4
f 3//5 9//5 10//5
f 10//6 6//6 3//6
f 6//7 11//7 5//7
f 9//8 5//8 11//8
f 12//9 9//9 13//9
f 14//10 10//10 12//10
f 11//11 14//11 15//11
f 15//12 9//12 11//12
f 12//13 16//13 17//13
f 17//14 14//14 12//14
f 14//15 18//15 15//15
f 15//16 16//16 13//16
f 19//7 16//7 20//7
f 17//8 21//8 22//8
f 18//5 21//5 23//5
f 23//6 16//6 18//6
f 20//17 24//17 19//17
f 19//18 25//18 21//18
f 23//19 25//19 26//19
f 1//7 27//7 8//7
f 28//8 4//8 29//8
f 30//5 4//5 7//5
f 7//6 27//6 30//6
f 28//20 31//20 27//20
f 29//21 32//21 28//21
f 33//22 29//22 30//22
f 30//23 31//23 33//23
f 34//7 32//7 35//7
f 35//8 36//8 37//8
f 38//5 36//5 33//5
f 33//6 34//6 38//6
f 39//24 34//24 35//24
f 35//25 40//25 39//25
f 38//26 40//26 37//26
f 34//27 41//27 38//27
f 42//28 39//28 43//28
f 43//29 40//29 44//29
f 45//30 40//30 41//30
f 41//31 42//31 45//31
f 46//5 42//5 43//5
f 43//6 47//6 46//6
f 45//7 47//7 44//7
f 42//8 48//8 45//8
f 49//32 50//32 46//32
f 46//33 51//33 49//33
f 51//33 48//33 49//33
f 49//34 50//34 25//34
f 1//35 8//35 2//35
f 3//36 6//36 4//36
f 5//37 7//37 4//37
f 7//38 5//38 2//38
f 3//5 2//5 9//5
f 10//6 52//6 6//6
f 6//7 52//7 11//7
f 9//8 2//8 5//8
f 12//39 10//39 9//39
f 14//40 52//40 10//40
f 11//41 52//41 14//41
f 15//42 13//42 9//42
f 12//16 13//16 16//16
f 17//43 22//43 14//43
f 14//17 22//17 18//17
f 15//44 18//44 16//44
f 19//7 17//7 16//7
f 17//8 19//8 21//8
f 18//5 22//5 21//5
f 23//6 20//6 16//6
f 23//19 26//19 24//19
f 19//19 26//19 25//19
f 23//45 21//45 25//45
f 20//43 23//43 24//43
f 1//7 28//7 27//7
f 28//8 1//8 4//8
f 30//5 29//5 4//5
f 7//6 8//6 27//6
f 28//46 32//46 31//46
f 29//47 36//47 32//47
f 33//48 36//48 29//48
f 30//49 27//49 31//49
f 34//7 31//7 32//7
f 35//8 32//8 36//8
f 38//5 37//5 36//5
f 33//6 31//6 34//6
f 39//50 53//50 34//50
f 35//51 37//51 40//51
f 38//52 41//52 40//52
f 34//53 53//53 41//53
f 42//54 53//54 39//54
f 43//55 39//55 40//55
f 45//56 44//56 40//56
f 41//54 53//54 42//54
f 46//5 50//5 42//5
f 43//6 44//6 47//6
f 45//7 48//7 47//7
f 42//8 50//8 48//8
f 46//57 47//57 51//57
f 51//32 47//32 48//32
f 49//57 48//57 50//57
f 26//19 19//19 24//19
