v -3 1 1
v -2 1 1
v -1 1 0
v -1 1 1
v 0 1 1
v -1 1 2
v -1 1 3
v 1 1 1
v 1 1 0
v 2 1 -1
v 1 1 -1
v 1 1 -2
v 0 1 -1
v -1 1 -1
v -3 -1 1
v -1 -1 -1
v 0 -1 -1
v 1 -1 -2
v 1 -1 -1
v 2 -1 -1
v 1 -1 0
v 1 -1 1
v -1 -1 3
v -1 -1 2
v 0 -1 1
v -1 -1 1
v -1 -1 0
v -2 -1 1
vn 0 1 0
vn 0 -1 0
vn -0.7071 0 -0.7071
vn 0 0 -1
vn 1 0 0
vn 0.7071 0 0.7071
vn -1 0 0
vn 0 0 1
f 5//1 8//1 9//1
f 17//2 21//2 25//2
f 15//3 14//3 16//3
f 16//4 13//4 17//4
f 17//3 12//3 18//3
f 18//5 11//5 19//5
f 19//4 10//4 20//4
f 20//6 9//6 21//6
f 21//5 8//5 22//5
f 22//6 7//6 23//6
f 23//7 6//7 24//7
f 24//3 5//3 25//3
f 25//8 4//8 26//8
f 26//7 3//7 27//7
f 27//6 2//6 28//6
f 28//8 1//8 15//8
f 14//1 1//1 2//1
f 3//1 4//1 5//1
f 14//1 2//1 3//1
f 11//1 12//1 13//1
f 13//1 14//1 3//1
f 5//1 6//1 7//1
f 13//1 3//1 5//1
f 9//1 10//1 11//1
f 11//1 13//1 9//1
f 5//1 7//1 8//1
f 9//1 13//1 5//1
f 28//2 15//2 16//2
f 17//2 18//2 19//2
f 27//2 28//2 16//2
f 25//2 26//2 27//2
f 23//2 24//2 25//2
f 21//2 22//2 25//2
f 19//2 20//2 21//2
f 27//2 16//2 17//2
f 17//2 19//2 21//2
f 22//2 23//2 25//2
f 25//2 27//2 17//2
f 15//3 1//3 14//3
f 16//4 14//4 13//4
f 17//3 13//3 12//3
f 18//5 12//5 11//5
f 19//4 11//4 10//4
f 20//6 10//6 9//6
f 21//5 9//5 8//5
f 22//6 8//6 7//6
f 23//7 7//7 6//7
f 24//3 6//3 5//3
f 25//8 5//8 4//8
f 26//7 4//7 3//7
f 27//6 3//6 2//6
f 28//8 2//8 1//8
