v -2 -1 1
v -1 -1 0
v -1 -1 1
v 0 -1 1
v -1 -1 2
v -1 -1 3
v 1 -1 1
v 1 -1 0
v 2 -1 -1
v 1 -1 -1
v 1 -1 -2
v 0 -1 -1
v -1 -1 -1
v -3 -1 1
v -3 0 1
v -2.146446 -0.353554 0.646446
v -0.853554 -0.353554 -0.646446
v -1 0 -1
v -0.707107 -0.292892 -0.707107
v 0 -1 0
v 0.292892 -0.707107 -0.292892
v 0 0 -1
v 1 0 -2
v 1 0 -1
v 2 0 -1
v 1 0 0
v 0.707107 -0.292892 0.707107
v 0.646446 -0.353554 0.853554
v 1 0 1
v -0.646446 -0.353554 2.146446
v -1 0 3
v -1 0 2
v 0 0 1
v -1 0 1
v -1 0 0
v -2 0 1
vn 0 -1 0
vn 0.5 0.7071 0.5
vn 0 0.7071 0.7071
vn -0.7071 0.7071 0
vn -0.5 0.7071 -0.5
vn 0.7071 0.7071 0
vn 0 0.7071 -0.7071
vn -0.7071 0 -0.7071
vn 0 0 -1
vn 1 0 0
vn 0.7071 0 0.7071
vn -1 0 0
vn 0 0 1
f 12//1 8//1 4//1
f 16//2 18//2 15//2
f 19//3 21//3 22//3
f 22//2 21//2 23//2
f 23//4 21//4 24//4
f 24//3 21//3 25//3
f 25//5 21//5 26//5
f 21//4 27//4 26//4
f 29//5 30//5 31//5
f 31//6 30//6 32//6
f 28//2 27//2 33//2
f 33//7 20//7 34//7
f 20//6 35//6 34//6
f 17//5 16//5 35//5
f 36//7 16//7 15//7
f 18//8 14//8 15//8
f 22//9 13//9 18//9
f 23//8 12//8 22//8
f 24//10 11//10 23//10
f 25//9 10//9 24//9
f 26//11 9//11 25//11
f 29//10 8//10 26//10
f 31//11 7//11 29//11
f 32//12 6//12 31//12
f 33//8 5//8 32//8
f 34//13 4//13 33//13
f 35//12 3//12 34//12
f 36//11 2//11 35//11
f 15//13 1//13 36//13
f 2//1 1//1 14//1
f 14//1 13//1 2//1
f 12//1 11//1 10//1
f 10//1 9//1 8//1
f 8//1 7//1 4//1
f 6//1 5//1 4//1
f 4//1 3//1 2//1
f 2//1 13//1 12//1
f 12//1 10//1 8//1
f 7//1 6//1 4//1
f 4//1 2//1 12//1
f 16//2 17//2 18//2
f 22//3 18//3 19//3
f 19//3 20//3 21//3
f 18//3 17//3 19//3
f 29//4 26//4 27//4
f 21//4 20//4 27//4
f 27//4 28//4 29//4
f 29//5 28//5 30//5
f 33//2 32//2 30//2
f 30//2 28//2 33//2
f 33//7 27//7 20//7
f 20//6 19//6 35//6
f 36//5 35//5 16//5
f 19//5 17//5 35//5
f 18//8 13//8 14//8
f 22//9 12//9 13//9
f 23//8 11//8 12//8
f 24//10 10//10 11//10
f 25//9 9//9 10//9
f 26//11 8//11 9//11
f 29//10 7//10 8//10
f 31//11 6//11 7//11
f 32//12 5//12 6//12
f 33//8 4//8 5//8
f 34//13 3//13 4//13
f 35//12 2//12 3//12
f 36//11 1//11 2//11
f 15//13 14//13 1//13