v 2 1 1
v 2 3 1
v 2 3 -1
v 2.707104 0.5 -2.792892
v 2 0 0
v 2 0 -4
v 2.585785 0.585785 0
v 3.414214 2 0.585786
v 2 1 3
v 2 2 2
v 2 3 3
v 2.585787 3.414213 0
v 2.707108 3.5 -2.792892
v 2 4 -4
v 2 3 -3
v 2.707108 3.5 -0.207108
v 4 2 0
v 2 1 -1
v 2.707106 0.5 -0.207108
v 2 1 -3
v -1 3 2
v 1 3 2
v 1 1 2
v -1.5 -0.792892 2.707106
v -2 2 2
v -2 -2 2
v -1.414214 2 2.585786
v 0 2.585786 3.414214
v -1 5 2
v 1 5 2
v 1.414214 2 2.585786
v 1.5 -0.792892 2.707106
v 2 -2 2
v 1 -1 2
v 1.5 1.792892 2.707107
v 0 2 4
v -1 1 2
v -1.5 1.792892 2.707107
v -1 -1 2
v -1 4 1
v -1 4 -1
v 1 4 -1
v 2.792892 4.707106 1.5
v 0 4 2
v 4 4 2
v 0 4.585785 1.414214
v -0.585786 5.414214 0
v -3 4 1
v -2 4 0
v -3 4 -1
v 0 4.585786 -1.414214
v 2.792892 4.707108 -1.5
v 4 4 -2
v 3 4 -1
v 0.207109 4.707108 -1.5
v 0 6 0
v 2 4 0
v 1 4 1
v 0.207108 4.707107 1.5
v 3 4 1
v -2 1 -1
v -2 3 -1
v -2 3 1
v -2.707107 0.5 2.792892
v -2 0 0
v -2 0 4
v -2.585787 0.585787 0
v -3.414214 2 -0.585786
v -2 1 -3
v -2 2 -2
v -2 3 -3
v -2.585784 3.414215 0
v -2.707105 3.5 2.792892
v -2 4 4
v -2 3 3
v -2.707106 3.5 0.207108
v -4 2 0
v -2 1 1
v -2.707108 0.5 0.207108
v -2 1 3
v -1 1 -2
v 1 1 -2
v 1 3 -2
v -1.5 4.792893 -2.707106
v -2 6 -2
v -1.414214 2 -2.585786
v 0 1.414214 -3.414214
v -1 -1 -2
v 0 0 -2
v 1 -1 -2
v 1.414214 2 -2.585786
v 2 2 -2
v 1.5 4.792891 -2.707107
v 2 6 -2
v 1 5 -2
v 1.5 2.207107 -2.707107
v 0 2 -4
v 0 4 -2
v -1 3 -2
v -1.5 2.207109 -2.707107
v -1 5 -2
v 1 0 1
v 1 0 -1
v -1 0 -1
v -2.792892 -0.707105 1.5
v 0 0 2
v -4 0 2
v 0 -0.585786 1.414214
v 0.585786 -1.414214 0
v 3 0 1
v 3 0 -1
v 0 -0.585786 -1.414214
v -2.792892 -0.707107 -1.5
v -4 0 -2
v -3 0 -1
v -0.207108 -0.707107 -1.5
v 0 -2 0
v -1 0 1
v -0.207108 -0.707107 1.5
v -3 0 1
vn 0.5773 0.5774 0.5774
vn 0.5774 0.5774 -0.5774
vn -0.5773 0.5774 -0.5774
vn -0.5774 0.5774 0.5774
vn 0.5774 -0.5774 -0.5773
vn -0.5774 -0.5774 -0.5774
vn -0.5773 -0.5774 0.5774
vn 0.5774 -0.5774 0.5773
vn 0.5773 -0.8165 0
vn 0.5773 -0.5774 0.5773
vn 0.5773 -0.5774 0.5774
vn 0.5774 0.5773 0.5774
vn 0.5774 0.8165 0
vn 0.5774 0.5774 0.5773
vn 0.5774 -0.5774 -0.5774
vn 0.5774 0.5773 -0.5774
vn 0.5773 -0.5774 -0.5774
vn 0.5773 -0.5774 -0.5773
vn 0.5774 0.5773 -0.5773
vn -1 0 0
vn 0.6083 0.6153 0.5015
vn 0.5891 0.6288 0.5075
vn 0.6497 0.586 0.4843
vn -0.8165 0 0.5774
vn -0.5774 0.5773 0.5774
vn 0.8165 0 0.5773
vn 0.5774 0.5774 0.5774
vn 0.8165 0 0.5774
vn -0.8165 0 0.5773
vn 0.5774 -0.5774 0.5774
vn -0.5774 -0.5774 0.5774
vn 0.5773 -0.5773 0.5774
vn 0 0 -1
vn 0.6153 0.5015 0.6083
vn 0.6288 0.5075 0.5891
vn 0.586 0.4843 0.6497
vn 0 0.5774 0.8165
vn -0.5773 0.5774 0.5774
vn 0 0.5773 0.8165
vn -0.5774 0.5774 -0.5774
vn 0 0.5774 -0.8165
vn 0 0.5773 -0.8165
vn 0.5774 0.5774 -0.5773
vn 0 -1 0
vn -0.5015 0.6083 -0.6153
vn -0.5075 0.5891 -0.6288
vn -0.4843 0.6497 -0.586
vn -0.5774 -0.8165 0
vn -0.5774 -0.5774 -0.5773
vn -0.5774 -0.5773 -0.5774
vn -0.5773 0.8165 0
vn -0.5774 0.5774 -0.5773
vn -0.5774 0.8165 0
vn -0.5774 -0.5773 0.5774
vn -0.5773 -0.8165 0
vn -0.5774 0.5774 0.5773
vn 1 0 0
vn -0.5774 -0.5773 -0.5773
vn -0.5774 0.5773 -0.5774
vn -0.6083 0.6153 -0.5015
vn -0.5891 0.6288 -0.5075
vn -0.6497 0.586 -0.4843
vn -0.8165 0 -0.5774
vn 0.8165 0 -0.5774
vn -0.8165 0 -0.5773
vn 0 0 1
vn -0.5773 -0.5773 -0.5774
vn 0.5774 -0.5773 -0.5774
vn 0.6153 -0.5015 -0.6083
vn 0.6288 -0.5075 -0.5891
vn 0.586 -0.4843 -0.6497
vn 0 -0.5774 0.8165
vn 0.5773 -0.5773 -0.5774
vn 0.5774 -0.5773 0.5774
vn 0 -0.5774 -0.8165
vn 0 -0.5773 0.8165
vn -0.5773 -0.5774 -0.5774
vn -0.5773 -0.5774 -0.5773
vn 0 1 0
vn 0.5015 -0.6083 -0.6153
vn 0.5075 -0.5891 -0.6288
vn 0.4843 -0.6497 -0.586
f 10//1 57//1 44//1
f 98//2 57//2 92//2
f 49//3 98//3 70//3
f 44//4 49//4 25//4
f 5//5 89//5 92//5
f 89//6 65//6 70//6
f 25//7 65//7 106//7
f 106//8 5//8 10//8
f 4//9 5//9 6//9
f 7//10 8//11 1//11
f 1//9 8//9 9//9
f 9//12 8//12 10//12
f 10//11 8//11 11//11
f 11//13 8//13 2//13
f 8//12 12//14 2//12
f 57//13 13//13 14//13
f 14//15 13//15 15//15
f 16//9 12//9 3//9
f 3//16 17//16 92//16
f 17//17 18//17 92//18
f 19//13 4//13 18//13
f 20//19 4//19 6//19
f 20//20 6//20 5//20
f 1//20 9//20 10//20
f 18//20 20//20 5//20
f 14//20 15//20 3//20
f 10//20 11//20 2//20
f 57//20 14//20 3//20
f 4//9 19//9 5//9
f 1//11 5//10 7//10
f 7//10 17//11 8//11
f 5//10 19//8 7//10
f 57//14 2//12 12//14
f 8//12 17//12 12//14
f 12//14 16//14 57//14
f 57//13 16//13 13//13
f 3//9 15//9 13//9
f 13//9 16//9 3//9
f 3//16 12//16 17//16
f 17//17 7//17 18//17
f 20//13 18//13 4//13
f 7//21 19//22 18//23
f 24//24 25//24 26//24
f 27//25 28//4 21//25
f 21//24 28//24 29//24
f 29//14 28//14 44//14
f 44//4 28//4 30//4
f 30//26 28//26 22//26
f 28//27 31//12 22//27
f 10//28 32//28 33//26
f 33//7 32//7 34//7
f 35//29 31//29 23//24
f 23//30 36//30 106//30
f 36//31 37//31 106//31
f 38//28 24//28 37//28
f 39//32 24//32 26//32
f 39//33 26//33 25//33
f 21//33 29//33 44//33
f 37//33 39//33 25//33
f 33//33 34//33 23//33
f 44//33 30//33 22//33
f 10//33 33//33 23//33
f 24//24 38//24 25//24
f 21//25 25//25 27//25
f 27//25 36//4 28//4
f 25//25 38//25 27//25
f 10//27 22//27 31//12
f 28//27 36//27 31//12
f 31//12 35//12 10//27
f 10//28 35//28 32//28
f 23//24 34//24 32//24
f 32//24 35//29 23//24
f 23//30 31//30 36//30
f 36//31 27//31 37//31
f 39//28 37//28 24//28
f 27//34 38//35 37//36
f 43//37 44//37 45//37
f 46//38 47//4 40//4
f 40//39 47//39 48//39
f 48//40 47//40 49//40
f 49//25 47//25 50//25
f 50//41 47//41 41//41
f 47//40 51//3 41//3
f 98//42 52//41 53//41
f 53//1 52//1 54//1
f 55//39 51//39 42//39
f 42//43 56//43 57//2
f 56//12 58//27 57//27
f 59//41 43//41 58//41
f 60//43 43//43 45//43
f 60//44 45//44 44//44
f 40//44 48//44 49//44
f 58//44 60//44 44//44
f 53//44 54//44 42//44
f 49//44 50//44 41//44
f 98//44 53//44 42//44
f 43//37 59//37 44//37
f 40//4 44//4 46//38
f 46//38 56//4 47//4
f 44//4 59//38 46//38
f 98//3 41//3 51//3
f 47//40 56//3 51//3
f 51//3 55//3 98//3
f 98//42 55//42 52//41
f 42//39 54//39 52//39
f 52//39 55//39 42//39
f 42//43 51//43 56//43
f 56//12 46//27 58//27
f 60//41 58//41 43//41
f 46//45 59//46 58//47
f 64//48 65//48 66//48
f 67//49 68//50 61//50
f 61//48 68//48 69//48
f 69//3 68//3 70//3
f 70//50 68//50 71//50
f 71//51 68//51 62//51
f 68//3 72//52 62//40
f 49//53 73//51 74//51
f 74//54 73//54 75//54
f 76//55 72//55 63//48
f 63//38 77//38 25//38
f 77//54 78//54 25//54
f 79//51 64//51 78//51
f 80//56 64//56 66//56
f 80//57 66//57 65//57
f 61//57 69//57 70//57
f 78//57 80//57 65//57
f 74//57 75//57 63//57
f 70//57 71//57 62//57
f 49//57 74//57 63//57
f 64//48 79//48 65//48
f 61//50 65//58 67//49
f 67//49 77//50 68//50
f 65//58 79//49 67//49
f 49//59 62//40 72//52
f 68//3 77//3 72//52
f 72//52 76//52 49//59
f 49//53 76//53 73//51
f 63//48 75//48 73//48
f 73//48 76//55 63//48
f 63//38 72//38 77//38
f 77//54 67//54 78//54
f 80//51 78//51 64//51
f 67//60 79//61 78//62
f 84//63 70//63 85//63
f 86//50 87//6 81//50
f 81//63 87//63 88//63
f 88//15 87//15 89//15
f 89//50 87//50 90//50
f 90//64 87//64 82//64
f 87//17 91//15 82//15
f 92//64 93//64 94//64
f 94//3 93//3 95//3
f 96//65 91//65 83//65
f 83//16 97//16 98//2
f 97//3 99//3 98//3
f 100//64 84//64 99//64
f 101//16 84//16 85//16
f 101//66 85//66 70//66
f 81//66 88//66 89//66
f 99//66 101//66 70//66
f 94//66 95//66 83//66
f 89//66 90//66 82//66
f 92//66 94//66 83//66
f 84//63 100//63 70//63
f 81//50 70//67 86//50
f 86//50 97//6 87//6
f 70//67 100//50 86//50
f 92//15 82//15 91//15
f 87//17 97//17 91//15
f 91//15 96//68 92//15
f 92//64 96//64 93//64
f 83//65 95//63 93//63
f 93//63 96//65 83//65
f 83//16 91//16 97//16
f 97//3 86//3 99//3
f 101//64 99//64 84//64
f 86//69 100//70 99//71
f 105//72 106//72 107//72
f 108//11 109//30 102//30
f 102//72 109//72 110//72
f 110//73 109//73 5//73
f 5//74 109//74 111//74
f 111//75 109//75 103//75
f 109//15 112//17 103//15
f 89//75 113//75 114//75
f 114//31 113//31 115//31
f 116//76 112//76 104//76
f 104//6 117//6 65//77
f 117//31 118//7 65//7
f 119//75 105//75 118//75
f 120//78 105//78 107//78
f 120//79 107//79 106//79
f 102//79 110//79 5//79
f 118//79 120//79 106//79
f 114//79 115//79 104//79
f 5//79 111//79 103//79
f 89//79 114//79 104//79
f 105//72 119//72 106//72
f 102//30 106//11 108//11
f 108//11 117//30 109//30
f 106//11 119//11 108//11
f 89//17 103//15 112//17
f 109//15 117//15 112//17
f 112//17 116//17 89//17
f 89//75 116//75 113//75
f 104//76 115//72 113//72
f 113//72 116//76 104//76
f 104//6 112//6 117//6
f 117//31 108//31 118//7
f 120//75 118//75 105//75
f 108//80 119//81 118//82
