v 0 -1.414214 2
v -1 -2.828427 1
v 1 -2.828427 1
v -1 -2.828427 -1
v -2 -1.414213 0
v 0 -1.414213 -2
v 1 -2.828427 -1
v 2 -1.414214 0
v 1 0 1
v -1 0 1
v -1 0 -1
v 1 0 -1
v 1.5 -2.12132 -0.5
v 1.5 -0.707107 -0.5
v 0.5 -0.707107 -1.5
v -0.042894 -2.474874 -2.749999
v -1 -2.828427 -3
v 1.292892 -2.414214 -1.292893
v 2 -1.414214 -1.414214
v 2.5 -2.12132 0.5
v 2.5 -0.707107 0.5
v 1.292893 -0.414213 -1.292893
v -0.042892 -0.353553 -2.75
v -1 0 -3
v -0.5 -0.707106 -2.5
v 1.25 -0.353553 -1.457108
v 2 -1.414214 -2
v 0.5 -2.12132 -1.5
v 1.249999 -2.474874 -1.457107
v -0.5 -2.12132 -2.5
v -1.5 -2.12132 -0.5
v -0.5 -2.12132 -1.5
v -0.5 -0.707107 -1.5
v -2.103553 0.56066 -0.603553
v -2 1.414214 0
v -2 -1.414213 -0.585786
v -1.707107 -1.828426 -1.707107
v -1.5 -3.535534 -0.5
v -0.5 -3.535534 -1.5
v -0.585786 -1.414213 -2
v -0.603553 0.56066 -2.103553
v 0 1.414214 -2
v -0.5 0.707107 -1.5
v -0.603554 -1.267766 -2.103554
v -2 -1.414213 -2
v -1.5 -0.707107 -0.5
v -2.103554 -1.267765 -0.603554
v -1.5 0.707107 -0.5
v -1 -2.828427 0
v 0 -2.828427 1
v 1 -2.828427 0
v 0.646446 -3.328426 -2.146446
v 1 -2.828427 -3
v -0.707107 -3.24264 -0.707107
v -0.292893 -3.828428 0.292893
v -2 -2.828427 1
v -1 -2.828427 2
v 0.707107 -3.242641 0.707107
v 2.146446 -3.328428 -0.646447
v 3 -2.828427 -1
v 2 -2.828427 -1
v 0.853554 -3.328428 0.646445
v 0 -4.24264 0
v 0 -2.828427 -1
v -0.646446 -3.328427 -0.853554
v 1 -2.828427 -2
v -1.5 -2.12132 0.5
v -1.5 -0.707107 0.5
v -0.5 -0.707107 1.5
v 0.042893 -2.474874 2.749999
v 1 -2.828428 3
v -1.292894 -2.414214 1.292893
v -2 -1.414213 1.414214
v -2.5 -2.12132 -0.5
v -2.5 -0.707106 -0.5
v -1.292892 -0.414213 1.292892
v 0.042894 -0.353554 2.749998
v 1 0 3
v 0.5 -0.707107 2.5
v -1.249999 -0.353553 1.457107
v -2 -1.414214 2
v -0.5 -2.12132 1.5
v -1.25 -2.474874 1.457108
v 0.5 -2.12132 2.5
v 0.5 -0.707107 1.5
v 1.5 -0.707107 0.5
v 1.5 -2.12132 0.5
v 0.603553 -3.389087 2.103552
v 0 -4.24264 2
v 0.585786 -1.414214 2
v 1.707107 -1 1.707107
v 0.5 0.707107 1.5
v 1.5 0.707107 0.5
v 2 -1.414214 0.585786
v 2.103553 -3.389086 0.603553
v 2 -4.24264 0
v 1.5 -3.535534 0.5
v 2.103553 -1.560661 0.603553
v 2 -1.414214 2
v 0.5 -2.12132 1.5
v 0.603553 -1.560662 2.103553
v 0.5 -3.535534 1.5
v 0 0 -1
v 1 0 0
v 0 0 1
v -2.146446 0.5 0.646446
v -3 0 1
v -0.707107 0.414213 -0.707107
v 0.292893 1 -0.292893
v 1 0 -2
v 2 0 -1
v 0.707107 0.414213 0.707107
v -0.646446 0.5 2.146446
v -1 0 3
v -1 0 2
v 0.646446 0.5 0.853554
v 0 1.414214 0
v -1 0 0
v -0.853554 0.5 -0.646446
v -2 0 1
vn 0 -0.5774 0.8165
vn -0.8165 -0.5773 0
vn 0 -0.5774 -0.8165
vn 0.8165 -0.5774 0
vn 0 0.5774 0.8165
vn -0.8165 0.5774 0
vn 0 0.5774 -0.8165
vn 0.8165 0.5774 0
vn -0.7071 0 0.7071
vn 0.4082 -0.8165 -0.4082
vn 0.8165 -0.5773 0
vn 0.4082 0.8165 -0.4082
vn 0.8165 0.5773 0
vn 0 0.5773 -0.8165
vn 0.7847 0.6153 -0.0755
vn 0.7754 0.6288 -0.0577
vn 0.8018 0.586 -0.117
vn 0.7071 0 0.7071
vn -0.9856 0 0.1691
vn -0.8165 -0.5774 0
vn 0 -0.5773 -0.8165
vn 0.1691 0 -0.9856
vn -0.8165 0.5773 0
vn 0.005 -0.5015 -0.8652
vn 0.028 -0.5075 -0.8612
vn -0.0451 -0.4843 -0.8738
vn 0 1 0
vn -0.5773 -0.5774 -0.5773
vn -0.5774 -0.5774 -0.5774
vn -0.5774 -0.5773 -0.5774
vn 0 -0.5773 0.8165
vn 0.5774 -0.5774 0.5774
vn 0.5774 -0.5774 0.5773
vn -0.5774 -0.5773 -0.5773
vn 0.5773 -0.5774 0.5773
vn 0.0805 -0.6083 0.7896
vn 0.0857 -0.5891 0.8035
vn 0.0719 -0.6497 0.7568
vn 0.7071 0 -0.7071
vn -0.4082 -0.8165 0.4082
vn -0.4082 0.8165 0.4082
vn -0.4083 -0.8165 0.4082
vn 0 0.5773 0.8165
vn -0.7847 0.6153 0.0755
vn -0.7754 0.6288 0.0577
vn -0.8018 0.586 0.117
vn -0.7071 0 -0.7071
vn -0.1691 0 0.9856
vn 0.9856 0 -0.1691
vn 0.8652 0.5015 -0.005
vn 0.8612 0.5075 -0.028
vn 0.8738 0.4843 0.0451
vn 0 -1 0
vn -0.5774 0.5774 -0.5774
vn 0.5774 0.5774 0.5774
vn -0.5773 0.5773 -0.5774
vn 0.7896 0.6083 0.0805
vn 0.8035 0.5891 0.0857
vn 0.7568 0.6497 0.0719
f 1//1 2//1 3//1
f 4//2 2//2 5//2
f 6//3 7//3 4//3
f 3//4 7//4 8//4
f 9//5 10//5 1//5
f 10//6 11//6 5//6
f 6//7 11//7 12//7
f 8//8 12//8 9//8
f 13//9 14//9 15//9
f 16//10 7//10 17//10
f 18//11 19//4 13//4
f 13//10 19//10 20//10
f 20//8 19//8 8//8
f 8//4 19//4 21//4
f 21//12 19//12 14//12
f 19//13 22//8 14//8
f 12//12 23//12 24//12
f 24//3 23//3 25//3
f 26//10 22//10 15//10
f 15//7 27//7 6//7
f 27//3 28//3 6//3
f 29//12 16//12 28//12
f 30//14 16//14 17//14
f 30//9 17//9 7//9
f 13//9 20//9 8//9
f 28//9 30//9 7//9
f 15//9 6//9 28//9
f 24//9 25//9 15//9
f 14//9 12//9 15//9
f 8//9 21//9 14//9
f 28//9 7//9 13//9
f 13//9 8//9 14//9
f 12//9 24//9 15//9
f 15//9 28//9 13//9
f 16//10 29//10 7//10
f 13//4 7//11 18//11
f 18//11 27//4 19//4
f 7//11 29//11 18//11
f 12//8 14//8 22//8
f 19//13 27//13 22//8
f 22//8 26//8 12//8
f 12//12 26//12 23//12
f 15//10 25//10 23//10
f 23//10 26//10 15//10
f 15//7 22//14 27//7
f 27//3 18//3 28//3
f 30//12 28//12 16//12
f 18//15 29//16 28//17
f 31//18 32//18 33//18
f 34//19 5//19 35//19
f 36//2 37//2 31//20
f 31//19 37//19 38//19
f 38//21 37//21 4//21
f 4//20 37//20 39//20
f 39//22 37//22 32//22
f 37//3 40//3 32//3
f 6//22 41//22 42//22
f 42//23 41//23 43//23
f 44//19 40//19 33//19
f 33//7 45//7 11//7
f 45//6 46//6 11//6
f 47//22 34//22 46//22
f 48//14 34//14 35//14
f 48//18 35//18 5//18
f 31//18 38//18 4//18
f 46//18 48//18 5//18
f 33//18 11//18 46//18
f 42//18 43//18 33//18
f 32//18 6//18 33//18
f 4//18 39//18 32//18
f 46//18 5//18 31//18
f 31//18 4//18 32//18
f 6//18 42//18 33//18
f 33//18 46//18 31//18
f 34//19 47//19 5//19
f 31//20 5//2 36//2
f 36//2 45//2 37//2
f 5//2 47//2 36//2
f 6//3 32//3 40//3
f 37//3 45//3 40//3
f 40//3 44//3 6//3
f 6//22 44//22 41//22
f 33//19 43//19 41//19
f 41//19 44//19 33//19
f 33//7 40//7 45//7
f 45//6 36//6 46//6
f 48//22 46//22 34//22
f 36//24 47//25 46//26
f 49//27 50//27 51//27
f 52//28 4//29 53//28
f 54//20 55//20 49//20
f 49//30 55//30 56//30
f 56//31 55//31 2//31
f 2//2 55//2 57//2
f 57//32 55//32 50//32
f 55//1 58//1 50//1
f 3//33 59//32 60//32
f 60//21 59//21 61//21
f 62//30 58//34 51//30
f 51//4 63//4 7//4
f 63//3 64//3 7//3
f 65//33 52//33 64//33
f 66//4 52//4 53//4
f 66//27 53//27 4//27
f 49//27 56//27 2//27
f 64//27 66//27 4//27
f 51//27 7//27 64//27
f 60//27 61//27 51//27
f 50//27 3//27 51//27
f 2//27 57//27 50//27
f 64//27 4//27 49//27
f 49//27 2//27 50//27
f 3//27 60//27 51//27
f 51//27 64//27 49//27
f 52//28 65//30 4//29
f 49//20 4//20 54//20
f 54//20 63//20 55//20
f 4//20 65//20 54//20
f 3//1 50//1 58//1
f 55//1 63//1 58//1
f 58//1 62//1 3//1
f 3//33 62//33 59//32
f 51//30 61//30 59//30
f 59//30 62//30 51//30
f 51//4 58//4 63//4
f 63//3 54//3 64//3
f 66//35 64//33 52//33
f 54//36 65//37 64//38
f 67//39 68//39 69//39
f 70//40 2//40 71//40
f 72//20 73//2 67//2
f 67//40 73//40 74//40
f 74//6 73//6 5//6
f 5//20 73//20 75//20
f 75//41 73//41 68//41
f 73//6 76//23 68//6
f 10//41 77//41 78//41
f 78//31 77//31 79//31
f 80//40 76//42 69//40
f 69//5 81//5 1//5
f 81//1 82//1 1//1
f 83//41 70//41 82//41
f 84//43 70//43 71//43
f 84//39 71//39 2//39
f 67//39 74//39 5//39
f 82//39 84//39 2//39
f 69//39 1//39 82//39
f 78//39 79//39 69//39
f 68//39 10//39 69//39
f 5//39 75//39 68//39
f 82//39 2//39 67//39
f 67//39 5//39 68//39
f 10//39 78//39 69//39
f 69//39 82//39 67//39
f 70//40 83//40 2//40
f 67//2 2//20 72//20
f 72//20 81//2 73//2
f 2//20 83//20 72//20
f 10//23 68//6 76//23
f 73//6 81//6 76//23
f 76//23 80//23 10//23
f 10//41 80//41 77//41
f 69//40 79//40 77//40
f 77//40 80//40 69//40
f 69//5 76//5 81//5
f 81//1 72//1 82//1
f 84//41 82//41 70//41
f 72//44 83//45 82//46
f 85//47 86//47 87//47
f 88//48 1//48 89//48
f 90//43 91//43 85//5
f 85//48 91//48 92//48
f 92//8 91//8 9//8
f 9//5 91//5 93//5
f 93//49 91//49 86//49
f 91//13 94//13 86//8
f 8//49 95//49 96//49
f 96//31 95//31 97//31
f 98//48 94//48 87//48
f 87//4 99//4 3//4
f 99//1 100//1 3//1
f 101//49 88//49 100//49
f 102//4 88//4 89//4
f 102//47 89//47 1//47
f 85//47 92//47 9//47
f 100//47 102//47 1//47
f 87//47 3//47 100//47
f 96//47 97//47 87//47
f 86//47 8//47 87//47
f 9//47 93//47 86//47
f 100//47 1//47 85//47
f 85//47 9//47 86//47
f 8//47 96//47 87//47
f 87//47 100//47 85//47
f 88//48 101//48 1//48
f 85//5 1//43 90//43
f 90//43 99//43 91//43
f 1//43 101//43 90//43
f 8//13 86//8 94//13
f 91//13 99//13 94//13
f 94//13 98//13 8//13
f 8//49 98//49 95//49
f 87//48 97//48 95//48
f 95//48 98//48 87//48
f 87//4 94//4 99//4
f 99//1 90//1 100//1
f 102//49 100//49 88//49
f 90//50 101//51 100//52
f 103//53 104//53 105//53
f 106//54 11//54 107//54
f 108//7 109//14 103//7
f 103//54 109//54 110//54
f 110//8 109//8 12//8
f 12//7 109//7 111//7
f 111//55 109//55 104//55
f 109//13 112//8 104//8
f 9//55 113//55 114//55
f 114//6 113//6 115//6
f 116//56 112//56 105//54
f 105//5 117//5 10//5
f 117//6 118//6 10//6
f 119//55 106//55 118//55
f 120//5 106//5 107//5
f 120//53 107//53 11//53
f 103//53 110//53 12//53
f 118//53 120//53 11//53
f 105//53 10//53 118//53
f 114//53 115//53 105//53
f 104//53 9//53 105//53
f 12//53 111//53 104//53
f 118//53 11//53 103//53
f 103//53 12//53 104//53
f 9//53 114//53 105//53
f 105//53 118//53 103//53
f 106//54 119//54 11//54
f 103//7 11//7 108//7
f 108//7 117//14 109//14
f 11//7 119//7 108//7
f 9//8 104//8 112//8
f 109//13 117//13 112//8
f 112//8 116//8 9//8
f 9//55 116//55 113//55
f 105//54 115//54 113//54
f 113//54 116//56 105//54
f 105//5 112//5 117//5
f 117//6 108//6 118//6
f 120//55 118//55 106//55
f 108//57 119//58 118//59
