v 7 -1 0
v 5 -3 0
v 7 -3 0
v 3 -1 0
v 6 0 0
v 2 0 0
v 8 -2 0
v 9 -1 0
v 5 -1 0
v 4 -2 0
v 2 -4 0
v 3 -3 0
v 6 -4 0
v 9 -3 0
v 7 3 0
v 5 1 0
v 7 1 0
v 3 3 0
v 6 4 0
v 2 4 0
v 8 2 0
v 9 3 0
v 5 3 0
v 4 2 0
v 3 1 0
v 9 1 0
v 9 0 1
v 7 0 3
v 9 0 3
v 5 0 1
v 8 0 0
v 4 0 0
v 10 0 2
v 11 0 1
v 7 0 1
v 6 0 2
v 4 0 4
v 5 0 3
v 8 0 4
v 11 0 3
v 5 0 -3
v 3 0 -1
v 5 0 -1
v 1 0 -3
v 4 0 -4
v 0 0 -4
v 6 0 -2
v 7 0 -3
v 3 0 -3
v 2 0 -2
v 0 0 0
v 1 0 -1
v 7 0 -1
vn -0.4575 -0.4575 0.7625
vn -0.6667 -0.6667 -0.3333
vn -0.4575 0.7625 -0.4575
vn -0.6667 0.3333 0.6667
vn 0 -0.7071 0.7071
vn 0 -0.7071 -0.7071
vn 0 0.7071 -0.7071
vn 0 0.7071 0.7071
vn -0.4082 0.8165 -0.4082
vn -0.4082 0.4082 0.8165
vn -0.4082 -0.4082 0.8165
vn -0.6882 -0.6882 -0.2294
vn -0.3015 -0.3015 0.9045
vn -0.7071 -0.7071 0
vn -0.7071 0.7071 0
vn -0.7071 0 0.7071
vn -0.3015 0.9045 -0.3015
vn -0.5774 -0.5774 0.5774
vn 0 0 1
vn 0.6667 0.3333 -0.6667
vn 0.6667 0.6667 0.3333
vn 0.6667 -0.6667 0.3333
vn 0.4575 -0.4575 -0.7625
vn 0.6882 -0.6882 0.2294
vn 0.4082 -0.4082 -0.8165
vn 0.6882 0.2294 -0.6882
vn 0.6882 0.6882 0.2294
vn 0.3015 0.3015 -0.9045
vn 0.3015 0.9045 0.3015
vn 0.7071 -0.7071 0
vn 0.3015 -0.3015 -0.9045
vn 0.5774 -0.5774 -0.5774
vn 0 0 -1
vn 0 1 0
vn -0.6667 -0.3333 0.6667
vn -0.4575 -0.7625 -0.4575
vn -0.6667 0.6667 -0.3333
vn -0.4575 0.4575 0.7625
vn -0.6882 0.6882 -0.2294
vn -0.6882 0.2294 0.6882
vn -0.6882 -0.2294 0.6882
vn -0.4082 -0.8165 -0.4082
vn -0.3015 -0.9045 -0.3015
vn -0.3015 0.3015 0.9045
vn -0.5774 0.5774 0.5773
vn 0.4575 0.4575 -0.7625
vn 0.4575 0.7625 0.4575
vn 0.4575 -0.7625 0.4575
vn 0.6667 -0.3333 -0.6667
vn 0.4082 -0.8165 0.4082
vn 0.6882 -0.2294 -0.6882
vn 0.4082 0.4082 -0.8165
vn 0.4082 0.8165 0.4082
vn 0.7071 0 -0.7071
vn 0.7071 0.7071 0
vn 0.3015 -0.9045 0.3015
vn 0 -1 0
vn 0.5774 0.5773 -0.5774
vn 0.5774 -0.5773 -0.5774
vn 0.5774 0.5774 -0.5773
f 20//1 44//1 18//1
f 18//2 37//2 20//2
f 12//3 37//3 38//3
f 11//4 44//4 46//4
f 18//5 49//5 23//5
f 23//6 38//6 18//6
f 38//7 2//7 12//7
f 49//8 12//8 2//8
f 24//9 49//9 50//9
f 36//10 23//10 24//10
f 2//11 36//11 10//11
f 10//12 49//12 2//12
f 24//13 42//13 16//13
f 16//14 36//14 24//14
f 36//15 9//15 10//15
f 10//16 42//16 50//16
f 25//7 42//7 52//7
f 16//8 30//8 35//8
f 9//5 30//5 4//5
f 4//6 42//6 9//6
f 52//17 51//17 25//17
f 25//18 32//18 30//18
f 4//19 32//19 6//19
f 20//7 45//7 46//7
f 19//8 37//8 39//8
f 13//5 37//5 11//5
f 11//6 45//6 13//6
f 19//20 41//20 45//20
f 39//21 15//21 19//21
f 3//22 39//22 13//22
f 13//23 41//23 3//23
f 48//7 15//7 22//7
f 22//8 29//8 40//8
f 14//5 29//5 3//5
f 3//6 48//6 14//6
f 21//24 48//24 22//24
f 22//25 33//25 21//25
f 14//26 33//26 40//26
f 48//27 7//27 14//27
f 53//28 21//28 26//28
f 26//29 33//29 34//29
f 8//30 33//30 7//30
f 7//31 53//31 8//31
f 17//5 53//5 26//5
f 26//6 27//6 17//6
f 8//7 27//7 34//7
f 53//8 1//8 8//8
f 5//32 43//32 17//32
f 17//33 31//33 5//33
f 31//33 1//33 5//33
f 5//34 43//34 32//34
f 20//35 46//35 44//35
f 18//36 38//36 37//36
f 12//37 11//37 37//37
f 11//38 12//38 44//38
f 18//5 44//5 49//5
f 23//6 28//6 38//6
f 38//7 28//7 2//7
f 49//8 44//8 12//8
f 24//39 23//39 49//39
f 36//40 28//40 23//40
f 2//41 28//41 36//41
f 10//42 50//42 49//42
f 24//16 50//16 42//16
f 16//43 35//43 36//43
f 36//17 35//17 9//17
f 10//44 9//44 42//44
f 25//7 16//7 42//7
f 16//8 25//8 30//8
f 9//5 35//5 30//5
f 4//6 52//6 42//6
f 4//19 6//19 51//19
f 25//19 6//19 32//19
f 4//45 30//45 32//45
f 52//43 4//43 51//43
f 20//7 19//7 45//7
f 19//8 20//8 37//8
f 13//5 39//5 37//5
f 11//6 46//6 45//6
f 19//46 15//46 41//46
f 39//47 29//47 15//47
f 3//48 29//48 39//48
f 13//49 45//49 41//49
f 48//7 41//7 15//7
f 22//8 15//8 29//8
f 14//5 40//5 29//5
f 3//6 41//6 48//6
f 21//50 47//50 48//50
f 22//51 40//51 33//51
f 14//52 7//52 33//52
f 48//53 47//53 7//53
f 53//54 47//54 21//54
f 26//55 21//55 33//55
f 8//56 34//56 33//56
f 7//54 47//54 53//54
f 17//5 43//5 53//5
f 26//6 34//6 27//6
f 8//7 1//7 27//7
f 53//8 43//8 1//8
f 5//57 32//57 43//57
f 17//58 27//58 31//58
f 31//59 27//59 1//59
f 5//60 1//60 43//60
f 6//19 25//19 51//19
