v -1 5 2
v -1 5 0
v -2 5 1
v -2 3 3
v 0 3 3
v -1 4 3
v -3 4 1
v -3 2 1
v -3 3 2
v -2 5 2
v -3 4 2
v -2 4 3
v -2 5 3
v -3 5 2
v -3 4 3
v 0 5 2
v -2 5 0
v -2 2 3
v 0 4 3
v 2 5 0
v -3 4 0
v 0 5 -2
v -3 2 2
v 0 0 3
v 2 2 3
v 1 5 0
v -3 2 -2
v 0 5 -1
v -3 0 0
v 0 1 3
v 1 2 3
v 0 5 1
v -3 2 -1
v -1 2 3
v 0 5 0
v -3 3 0
v 0 2 3
v -3 2 0
v -3 1 0
v 1 0 0
v -1 0 0
v 0 0 -1
v 2 2 -1
v 2 2 1
v 2 1 0
v 0 1 -2
v 0 3 -2
v 1 2 -2
v 1 0 -1
v 1 1 -2
v 2 1 -1
v 2 0 -1
v 1 0 -2
v 2 1 -2
v 1 0 1
v -1 0 -1
v 2 3 -1
v 2 1 1
v -1 0 3
v -1 1 -2
v -3 0 1
v 1 3 -2
v 2 5 1
v 2 3 3
v -1 0 2
v -3 3 -2
v -2 0 1
v -1 5 -2
v 2 4 1
v 2 3 2
v 0 0 1
v -2 3 -2
v 2 3 0
v -1 0 1
v -1 2 -2
v 2 3 1
v -1 3 -2
v -1 4 -2
vn 0 1 0
vn 0 0 1
vn -1 0 0
vn -0.5774 0.5774 0.5774
vn 0.5773 0.5774 0.5774
vn -0.5774 0.5774 -0.5774
vn -0.5774 -0.5774 0.5774
vn 0 0.7071 0.7071
vn -0.7071 0.7071 0
vn -0.7071 0 0.7071
vn 0.5774 0.5774 0.5774
vn -0.5774 0.5773 -0.5774
vn 0 -0.7071 -0.7071
vn 0.7071 -0.7071 0
vn 0.7071 0 -0.7071
vn -0.5774 -0.5774 -0.5774
vn 0.5774 -0.5774 0.5774
vn 0.5774 0.5774 -0.5774
vn 1 0 0
vn 0 0 -1
vn 0 -1 0
vn 0.5774 -0.5774 -0.5774
vn 0.5774 -0.5773 0.5774
f 1//1 2//1 3//1
f 4//2 5//2 6//2
f 7//3 8//3 9//3
f 10//4 11//4 12//4
f 10//3 12//3 13//3
f 14//2 11//2 10//2
f 15//1 12//1 11//1
f 13//5 6//5 1//5
f 14//6 3//6 7//6
f 15//7 9//7 4//7
f 6//8 16//8 1//8
f 7//9 3//9 17//9
f 9//10 18//10 4//10
f 19//11 20//11 16//11
f 21//6 17//12 22//6
f 23//7 24//7 18//7
f 25//13 26//13 20//13
f 27//14 22//14 28//14
f 29//15 30//15 24//15
f 31//16 32//16 26//16
f 2//17 33//17 28//17
f 30//18 8//18 34//18
f 5//19 35//19 32//19
f 35//20 36//20 2//20
f 37//21 34//21 8//21
f 38//22 35//22 37//22
f 10//1 13//1 1//1
f 1//1 16//1 32//1
f 20//1 26//1 32//1
f 32//1 35//1 2//1
f 2//1 28//1 22//1
f 22//1 17//1 2//1
f 3//1 14//1 10//1
f 16//1 20//1 32//1
f 2//1 17//1 3//1
f 1//1 32//1 2//1
f 3//1 10//1 1//1
f 12//2 15//2 4//2
f 4//2 18//2 34//2
f 24//2 30//2 34//2
f 34//2 37//2 5//2
f 5//2 31//2 25//2
f 25//2 19//2 5//2
f 6//2 13//2 12//2
f 18//2 24//2 34//2
f 5//2 19//2 6//2
f 4//2 34//2 5//2
f 6//2 12//2 4//2
f 11//3 14//3 7//3
f 7//3 21//3 36//3
f 27//3 33//3 36//3
f 36//3 38//3 8//3
f 8//3 39//3 29//3
f 29//3 23//3 8//3
f 9//3 15//3 11//3
f 21//3 27//3 36//3
f 8//3 23//3 9//3
f 7//3 36//3 8//3
f 9//3 11//3 7//3
f 6//8 19//8 16//8
f 7//9 17//9 21//9
f 9//10 23//10 18//10
f 19//11 25//11 20//11
f 21//6 22//6 27//6
f 23//7 29//7 24//7
f 25//13 31//13 26//13
f 27//14 28//14 33//14
f 29//15 39//15 30//15
f 31//16 5//16 32//16
f 2//17 36//23 33//17
f 30//18 39//18 8//18
f 5//19 37//19 35//19
f 35//20 38//20 36//20
f 37//21 8//21 38//21
f 40//21 41//21 42//21
f 43//19 44//19 45//19
f 46//20 47//20 48//20
f 49//22 50//22 51//22
f 49//20 51//20 52//20
f 53//19 50//19 49//19
f 54//21 51//21 50//21
f 52//17 45//17 40//17
f 53//16 42//16 46//16
f 54//18 48//18 43//18
f 45//14 55//14 40//14
f 46//13 42//13 56//13
f 48//15 57//15 43//15
f 58//17 59//17 55//17
f 60//16 56//16 61//16
f 62//18 63//18 57//18
f 64//9 65//9 59//9
f 66//8 61//8 67//8
f 68//10 69//10 63//10
f 70//6 71//6 65//6
f 41//11 72//11 67//11
f 69//7 47//7 73//7
f 44//2 74//2 71//2
f 74//3 75//3 41//3
f 76//1 73//1 47//1
f 77//4 74//4 76//4
f 49//21 52//21 40//21
f 40//21 55//21 71//21
f 59//21 65//21 71//21
f 71//21 74//21 41//21
f 41//21 67//21 61//21
f 61//21 56//21 41//21
f 42//21 53//21 49//21
f 55//21 59//21 71//21
f 41//21 56//21 42//21
f 40//21 71//21 41//21
f 42//21 49//21 40//21
f 51//19 54//19 43//19
f 43//19 57//19 73//19
f 63//19 69//19 73//19
f 73//19 76//19 44//19
f 44//19 70//19 64//19
f 64//19 58//19 44//19
f 45//19 52//19 51//19
f 57//19 63//19 73//19
f 44//19 58//19 45//19
f 43//19 73//19 44//19
f 45//19 51//19 43//19
f 50//20 53//20 46//20
f 46//20 60//20 75//20
f 66//20 72//20 75//20
f 75//20 77//20 47//20
f 47//20 78//20 68//20
f 68//20 62//20 47//20
f 48//20 54//20 50//20
f 60//20 66//20 75//20
f 47//20 62//20 48//20
f 46//20 75//20 47//20
f 48//20 50//20 46//20
f 45//14 58//14 55//14
f 46//13 56//13 60//13
f 48//15 62//15 57//15
f 58//17 64//17 59//17
f 60//16 61//16 66//16
f 62//18 68//18 63//18
f 64//9 70//9 65//9
f 66//8 67//8 72//8
f 68//10 78//10 69//10
f 70//6 44//6 71//6
f 41//11 75//11 72//11
f 69//7 78//7 47//7
f 44//2 76//2 74//2
f 74//3 77//3 75//3
f 76//1 47//1 77//1
