v -1 0 2
v 0 0 1
v 0 0 2
v -2 2 1
v -1 1 0
v -2 2 0
v 1 1 0
v 2 1 0
v 1 1 1
v 2 0 0
v 2 0 -1
v 1 1 -2
v 0 1 -1
v 1 1 -1
v 1 0 1
v -1 3 0
v -1 3 -1
v -1 2 -1
v 1 -1 1
v 0 0 0
v 0 -1 1
v -1 0 1
v -1 0 3
v -1 2 0
v -1 4 -1
v -1 2 1
v 0 4 -1
v -2 1 0
v -3 2 1
v -3 2 0
v 1 0 -1
v 1 0 -2
v 1 2 1
v 1 2 0
v 0 3 0
v -1 0 -1
v -1 2 -2
v -1 2 -3
v -2 1 1
v -1 0 0
v -1 2 2
v -1 1 1
v -1 1 2
v 0 2 0
v 0 3 -1
v -1 -1 1
v 0 1 -2
v -2 2 -1
v 0 1 1
v 1 2 -2
v 3 0 -1
v 3 0 0
v -1 1 3
v 1 -1 -1
v 0 0 -1
v 3 2 -1
v 3 1 -1
v 1 2 -3
v 1 1 -3
v 0 2 1
v -1 3 1
v -1 4 0
v 0 2 -1
v 1 3 -1
v 1 2 -1
v 0 -2 1
v 1 0 2
v 2 0 1
v 1 0 0
v 1 -2 0
v 1 -1 0
v 0 -1 0
v 2 2 -1
v 2 1 -1
v 1 0 3
v -3 1 1
v -3 0 1
v 0 1 2
v 0 2 -3
v 0 2 -2
v -2 0 1
v -1 4 1
v -1 1 -1
v 1 -2 -1
v 1 -2 1
v 0 0 3
v -1 1.006298 2
vn 0 0.7071 0.7071
vn 0 1 0
vn 0 -1 0
vn 0.7071 0 0.7071
vn 0 0 1
vn -1 0 0
vn 0.7071 0.7071 0
vn -0.7071 -0.7071 0
vn 0 0 -1
vn 0 -0.7071 -0.7071
vn 1 0 0
vn -0.7071 0 -0.7071
vn 0.0126 1 0.0063
vn -0.1111 0.8889 0.4444
f 80//1 37//1 83//1
f 30//2 4//2 6//2
f 7//3 8//3 9//3
f 52//3 11//3 51//3
f 12//2 13//2 14//2
f 15//4 9//4 3//4
f 6//2 18//2 48//2
f 2//3 3//3 1//3
f 60//5 82//5 61//5
f 24//6 16//6 17//6
f 45//1 34//1 64//1
f 16//1 27//1 25//1
f 33//7 35//7 82//7
f 8//5 10//5 52//5
f 22//8 39//8 40//8
f 45//9 25//9 27//9
f 17//10 45//10 44//10
f 22//6 1//6 42//6
f 40//6 46//6 22//6
f 60//4 43//4 49//4
f 2//11 21//11 20//11
f 49//1 42//1 1//1
f 13//10 50//10 14//10
f 28//8 29//8 30//8
f 71//11 84//11 54//11
f 2//8 20//8 19//8
f 68//3 69//3 10//3
f 5//7 6//7 4//7
f 26//2 41//2 60//2
f 24//2 4//2 26//2
f 49//3 43//3 42//3
f 22//5 21//5 2//5
f 23//4 78//4 53//4
f 27//11 35//11 45//11
f 3//10 9//10 67//10
f 13//12 32//12 55//12
f 70//5 71//5 72//5
f 15//5 68//5 9//5
f 2//5 19//5 15//5
f 7//9 10//9 69//9
f 9//7 10//7 7//7
f 61//6 62//6 16//6
f 73//9 57//9 74//9
f 86//3 67//3 75//3
f 20//5 40//5 72//5
f 61//8 16//8 60//8
f 33//1 78//1 75//1
f 19//5 66//5 85//5
f 41//6 42//6 43//6
f 44//6 45//6 63//6
f 65//9 63//9 45//9
f 14//11 50//11 65//11
f 59//3 13//3 47//3
f 65//11 64//11 34//11
f 30//9 5//9 28//9
f 80//12 83//12 18//12
f 17//7 44//7 63//7
f 39//5 77//5 81//5
f 53//13 49//13 87//13
f 48//8 5//8 6//8
f 83//9 48//9 18//9
f 5//5 24//5 6//5
f 62//9 35//9 16//9
f 18//9 17//9 63//9
f 26//1 60//1 16//1
f 84//8 72//8 36//8
f 81//3 36//3 40//3
f 11//4 7//4 69//4
f 34//12 73//12 74//12
f 7//8 11//8 10//8
f 76//12 36//12 77//12
f 51//7 8//7 52//7
f 28//2 5//2 83//2
f 79//10 47//10 38//10
f 12//11 31//11 32//11
f 55//3 32//3 31//3
f 80//11 47//11 79//11
f 31//3 11//3 69//3
f 38//2 80//2 79//2
f 55//7 71//7 54//7
f 87//12 49//12 1//12
f 46//10 20//10 21//10
f 60//6 49//6 78//6
f 86//6 78//6 3//6
f 65//2 80//2 63//2
f 47//12 58//12 59//12
f 8//3 74//3 57//3
f 34//7 74//7 65//7
f 55//11 47//11 13//11
f 4//12 24//12 5//12
f 34//9 44//9 35//9
f 36//6 37//6 38//6
f 39//5 4//5 29//5
f 31//10 71//10 55//10
f 39//4 81//4 40//4
f 34//2 56//2 73//2
f 57//4 56//4 8//4
f 19//11 71//11 69//11
f 54//9 36//9 55//9
f 76//14 28//14 83//14
f 14//9 74//9 11//9
f 87//6 23//6 53//6
f 9//4 8//4 33//4
f 75//11 9//11 33//11
f 66//10 71//10 85//10
f 26//11 22//11 42//11
f 8//4 56//4 33//4
f 12//11 58//11 50//11
f 38//10 47//10 36//10
f 36//10 47//10 55//10
f 65//2 50//2 80//2
f 12//4 50//4 13//4
f 58//2 80//2 50//2
f 64//9 65//9 45//9
f 63//2 80//2 18//2
f 35//11 44//11 45//11
f 72//6 21//6 20//6
f 19//1 20//1 21//1
f 30//2 29//2 4//2
f 52//3 10//3 11//3
f 6//2 24//2 18//2
f 23//3 1//3 3//3
f 2//3 15//3 3//3
f 1//3 22//3 2//3
f 60//5 33//5 82//5
f 17//6 18//6 24//6
f 24//6 26//6 16//6
f 16//6 25//6 17//6
f 45//1 44//1 34//1
f 16//1 35//1 27//1
f 62//7 82//7 35//7
f 33//7 34//7 35//7
f 8//5 7//5 10//5
f 45//9 17//9 25//9
f 60//4 41//4 43//4
f 28//8 39//8 29//8
f 71//11 70//11 84//11
f 68//3 15//3 69//3
f 22//5 46//5 21//5
f 23//4 3//4 78//4
f 13//12 12//12 32//12
f 9//7 68//7 10//7
f 61//6 82//6 62//6
f 73//9 56//9 57//9
f 86//3 3//3 67//3
f 86//1 75//1 78//1
f 33//1 60//1 78//1
f 19//5 21//5 66//5
f 41//6 26//6 42//6
f 59//3 12//3 13//3
f 30//9 6//9 5//9
f 39//5 76//5 77//5
f 53//2 78//2 49//2
f 48//8 83//8 5//8
f 40//8 36//8 72//8
f 84//8 70//8 72//8
f 81//3 77//3 36//3
f 76//12 83//12 36//12
f 51//7 74//7 8//7
f 12//11 14//11 31//11
f 38//2 37//2 80//2
f 46//10 40//10 20//10
f 47//12 80//12 58//12
f 36//6 83//6 37//6
f 39//5 26//5 4//5
f 34//2 33//2 56//2
f 69//11 15//11 19//11
f 19//11 85//11 71//11
f 71//11 31//11 69//11
f 54//9 84//9 36//9
f 76//2 39//2 28//2
f 51//9 11//9 74//9
f 14//9 65//9 74//9
f 11//9 31//9 14//9
f 87//6 1//6 23//6
f 75//11 67//11 9//11
f 66//10 72//10 71//10
f 26//5 39//5 22//5
f 12//11 59//11 58//11
f 72//6 66//6 21//6
