v 2 0.585787 2.828427
v -1 0 3
v 1 0 1
v 2 1.292893 0.707107
v 0 0 1
v -1 0 2
v 2 2 1.414214
v -1 0 1
v 2 2.707107 0.707107
v 3 0 1
v 2 2.707107 2.12132
v -2 0 1
v -1 0 0
v 4 0 1
v 3 0 2
v 2 3.414212 2.828429
v -3 0 1
v 2 3.414214 0
v -1 0 -1
v 3 0 3
v 5 0 1
v 5 0 0
v 2 2.707107 -0.707107
v 0 0 -1
v 1 0 -2
v 6 0 -1
v 5 0 -1
v 2 2 -1.414214
v 2 2.707107 -2.12132
v 1 0 -1
v 2 0 -1
v 5 0 -2
v 4 0 -1
v 2 1.292893 -0.707107
v 1 0 0
v 3 0 -1
v 2 0.585786 0
v 2 1.292893 2.12132
v 2 0 1
v 3 0 0
v 2 1.292893 -2.12132
v 2.02 0 -1
v 2.02 1.292893 -0.707107
v 2.009597 3.417022 2.828429
v 2.009597 3.417025 0
v 3.009597 0.00281 3
vn 0.1988 -0.9597 0.1988
vn -0.5169 0.6824 -0.5169
vn 0 -0.2028 0.9792
vn 0.8629 0.3574 0.3574
vn 0.4234 -0.8009 0.4234
vn -0.6892 -0.2237 -0.6892
vn -0.8774 -0.3393 0.3393
vn 0 -0.4721 0.8815
vn -0.7512 0.6601 0
vn 0.5445 0.638 0.5445
vn 0.6699 0.7424 0
vn 0 0.1076 -0.9942
vn -0.6066 0.5138 -0.6066
vn 0.508 0.6956 0.508
vn 0 -0.2028 -0.9792
vn 0.7463 -0.4706 -0.4706
vn 0.5547 0.8321 0
vn -0.5169 -0.6824 -0.5169
vn 0.6982 -0.1582 0.6982
vn 0.791 -0.6118 0
vn 0 0.2209 -0.9753
vn 0.5054 -0.8629 0
vn 1 0 0
vn -0.6269 0.5509 0.5509
vn -0.8944 -0.4472 0
vn 0 -0.9523 0.3051
vn 0.6982 0.1582 0.6982
vn -0.3827 -0.6533 0.6533
vn -0.5547 0.8321 0
vn -0.7071 0 -0.7071
vn -0.7463 -0.4706 -0.4706
vn -0.2811 -0.6786 -0.6786
vn -0.3958 -0.9183 0
vn 0.3162 0.6708 -0.6708
vn -0.2699 -0.6809 -0.6809
vn 0.5605 0.8282 0
vn -0.4946 0.6146 -0.6146
vn 0.721 0.49 -0.49
vn -0.4082 0.8165 -0.4082
vn 0.2699 -0.6809 0.6809
vn 0.6699 -0.7424 0
vn 0 0.1076 0.9942
vn 0.489 -0.6168 0.6168
vn -0.0972 0.7038 0.7038
vn 0 -1 0
vn -0.3958 0.9183 0
vn -0.938 0.3465 0
vn -1 0 0
vn -0.8043 -0.5942 0
vn 0 -0.6552 -0.7555
vn 1 0.0032 -0.0141
vn 0 -0.2209 0.9753
vn 0 1 0
vn -0.0135 0.0462 0.9988
vn 0.9597 0.2811 0
vn -0.2811 0.9597 0
vn 0.1812 -0.6187 -0.7645
vn -0.9597 -0.2811 0
f 1//1 2//1 3//1
f 4//2 5//2 6//2
f 7//3 8//3 5//3
f 9//4 7//4 10//4
f 11//5 12//5 13//5
f 14//6 15//6 11//6
f 16//7 11//7 15//7
f 16//8 17//8 12//8
f 16//9 18//9 19//9
f 20//10 21//10 18//10
f 21//11 22//11 23//11
f 23//12 24//12 19//12
f 25//13 24//13 23//13
f 23//14 22//14 26//14
f 26//15 27//15 28//15
f 29//16 28//16 30//16
f 31//15 30//15 28//15
f 28//17 27//17 32//17
f 32//18 33//18 34//18
f 34//19 35//19 31//19
f 3//20 35//20 34//20
f 34//21 33//21 36//21
f 3//22 37//22 1//22
f 38//23 39//23 4//23
f 7//24 9//24 13//24
f 40//25 10//25 7//25
f 1//26 3//26 39//26
f 40//27 4//27 39//27
f 4//28 40//28 7//28
f 8//29 7//29 13//29
f 36//30 3//30 37//30
f 37//31 34//31 36//31
f 37//32 3//32 34//32
f 41//33 32//33 34//33
f 41//34 28//34 32//34
f 29//35 26//35 28//35
f 29//36 23//36 26//36
f 18//37 23//37 19//37
f 18//38 21//38 23//38
f 17//39 16//39 19//39
f 11//40 16//40 12//40
f 9//41 11//41 13//41
f 14//42 9//42 10//42
f 4//43 7//43 5//43
f 1//44 38//44 2//44
f 35//45 13//45 24//45
f 33//45 22//45 14//45
f 38//46 6//46 2//46
f 38//23 1//23 39//23
f 24//45 25//45 30//45
f 30//45 31//45 35//45
f 35//45 3//45 5//45
f 2//45 6//45 5//45
f 5//45 8//45 13//45
f 13//45 12//45 17//45
f 17//45 19//45 13//45
f 24//45 30//45 35//45
f 3//45 2//45 5//45
f 13//45 19//45 24//45
f 35//45 5//45 13//45
f 40//45 39//45 3//45
f 3//45 36//45 40//45
f 33//45 32//45 27//45
f 27//45 26//45 22//45
f 22//45 21//45 14//45
f 20//45 15//45 14//45
f 14//45 10//45 40//45
f 40//45 36//45 33//45
f 33//45 27//45 22//45
f 21//45 20//45 14//45
f 14//45 40//45 33//45
f 38//46 4//46 6//46
f 25//47 23//47 29//47 30//47
f 41//48 34//48 28//48
f 9//49 14//49 11//49
f 41//50 41//50 42//50 31//50
f 43//51 42//51 41//51
f 31//52 42//52 43//52 34//52
f 34//53 43//53 41//53 41//53
f 16//54 20//54 46//54 44//54
f 45//55 44//55 46//55
f 18//56 16//56 44//56 45//56
f 20//57 18//57 45//57 46//57
f 16//58 15//58 20//58
f 31//48 34//48 41//48
