v -3 0.5 0.5
v -3 -0.5 -0.5
v 0 1.5 -1.5
v 0 3.5 -1.5
v 1 2.5 -1.5
v -2 1.5 -1.5
v -3 1.5 -1.5
v -1 3.5 -1.5
v 1 4.5 -1.5
v 1 3.5 -1.5
v -1 2.5 -1.5
v -1 1.5 -1.5
v -1 -0.5 -1.5
v -1 0.5 -1.5
v 1 1.5 -1.5
v 2 3.5 -1.5
v -3 1.5 -0.5
v -3 1.5 1.5
v -3 3.5 1.5
v -3 4.5 1.5
v -3 2.5 -0.5
v -3 0.5 -1.5
v -3 0.5 -0.5
v -3 2.5 0.5
v -3 2.5 1.5
v -3 2.5 3.5
v -3 2.5 2.5
v -3 0.5 1.5
v -1 4.5 2.5
v -1 4.5 0.5
v -2 4.5 1.5
v 1 4.5 0.5
v 0 4.5 2.5
v 2 4.5 0.5
v -2 4.5 2.5
v -2 4.5 3.5
v 0 4.5 1.5
v 0 4.5 0.5
v 0 4.5 -1.5
v 0 4.5 -0.5
v -2 4.5 0.5
v -3 4.5 2.5
v 2 4 1
v -1 3 3
v 2 5 2
v 2 4 2
v 0 4 3
v 0 3 3
v 2 3 2
v 0 5 3
v 0 2 3
v 2 4 3
v 2 3 0
v 2 4 0
v -2 3 3
v -1 1 3
v 1 3 3
v 2 2 1
v -2 2 3
v 0 1 3
v 2 2 2
v 2 2 0
v 2 2 -2
v -1 0 -1
v -3 0 1
v -2 1 3
v -1 0 2
v 2 3 3
v 1 0 -2
v 1 0 -1
v 2 1 0
v 2 2 -1
v -2 0 1
v -2 0 3
v -3 1 3
v -1 0 3
v 0 0 -1
v 2 0 -1
v 2 0 0
v -1 0 0
v 0 0 1
v -1 0 1
v 1 0 0
v 1 0 1
vn 0.57735 -0.57735 0.57735
vn 0 0 -1
vn -1 0 0
vn 0 1 0
vn -0.57735 0.57735 -0.57735
vn -0.7071 0.7071 0
vn 0.7071 0 0.7071
vn 0 -0.7071 0.7071
vn -0.8944 0.4472 0
vn -0.8944 0 0.4472
vn 0 0.4472 0.8944
vn 0 0.8944 -0.4472
vn 0.4472 0.8944 0
vn 0 0.7071 -0.7071
vn 0.8944 0 -0.4472
vn -0.7071 0 -0.7071
vn 0.7071 -0.7071 0
vn -0.4472 0 -0.8944
vn -0.4472 -0.8944 0
vn 0 -0.4472 -0.8944
vn 1 0 0
vn 0.4472 0 0.8944
vn 0 0 1
vn 0.8944 -0.4472 0
vn 0 -1 0
vn 0 -0.8944 0.4472
f 1//1 2//1 3//1
f 4//2 5//2 3//2
f 6//2 7//2 8//2
f 4//2 9//2 10//2
f 11//2 6//2 8//2
f 3//2 12//2 11//2
f 13//2 14//2 3//2
f 5//2 15//2 3//2
f 10//2 16//2 5//2
f 11//2 8//2 4//2
f 4//2 10//2 5//2
f 15//2 13//2 3//2
f 3//2 11//2 4//2
f 17//3 1//3 18//3
f 19//3 20//3 21//3
f 17//3 22//3 23//3
f 24//3 19//3 21//3
f 18//3 25//3 24//3
f 26//3 27//3 18//3
f 1//3 28//3 18//3
f 23//3 2//3 1//3
f 24//3 21//3 17//3
f 17//3 23//3 1//3
f 28//3 26//3 18//3
f 18//3 24//3 17//3
f 29//4 30//4 31//4
f 32//4 33//4 34//4
f 29//4 35//4 36//4
f 37//4 33//4 32//4
f 30//4 37//4 38//4
f 39//4 30//4 40//4
f 31//4 30//4 41//4
f 35//4 31//4 42//4
f 37//4 29//4 33//4
f 29//4 31//4 35//4
f 41//4 30//4 39//4
f 30//4 29//4 37//4
f 31//5 19//5 42//5
f 19//6 31//6 41//6
f 20//7 19//7 41//7
f 42//8 24//8 35//8
f 25//9 35//9 24//9
f 35//9 25//9 36//9
f 36//10 25//10 18//10
f 18//1 29//1 36//1
f 33//11 29//11 26//11
f 22//5 17//5 6//5
f 9//5 4//5 40//5
f 30//7 10//7 9//7
f 38//12 10//12 30//12
f 16//12 10//12 38//12
f 37//13 16//13 38//13
f 34//14 5//14 32//14
f 37//5 32//5 5//5
f 15//15 5//15 34//15
f 28//1 15//1 33//1
f 17//16 21//16 6//16
f 22//17 11//17 23//17
f 12//18 23//18 11//18
f 11//1 17//1 6//1
f 7//8 6//8 21//8
f 28//19 1//19 13//19
f 14//16 13//16 1//16
f 27//6 26//6 29//6
f 14//5 1//5 3//5
f 12//20 3//20 2//20
f 12//18 2//18 23//18
f 20//5 39//5 7//5
f 15//1 28//1 13//1
f 28//1 33//1 26//1
f 33//1 15//1 34//1
f 37//1 5//1 16//1
f 39//17 40//17 8//17
f 40//14 4//14 8//14
f 18//5 27//5 29//5
f 43//5 44//5 45//5
f 46//21 43//21 45//21
f 47//1 44//1 43//1
f 48//11 45//11 44//11
f 48//22 46//22 45//22
f 49//21 43//21 46//21
f 47//7 43//7 50//7
f 50//23 44//23 47//23
f 44//23 51//23 48//23
f 48//22 51//22 46//22
f 49//21 46//21 52//21
f 49//21 53//21 43//21
f 54//13 50//13 43//13
f 55//23 44//23 50//23
f 44//23 56//23 51//23
f 52//6 46//6 51//6
f 52//1 57//1 49//1
f 53//21 49//21 58//21
f 43//21 53//21 54//21
f 55//5 50//5 54//5
f 59//23 44//23 55//23
f 56//23 44//23 59//23
f 51//23 56//23 60//23
f 51//5 57//5 49//5
f 49//7 57//7 61//7
f 53//21 58//21 62//21
f 58//21 49//21 61//21
f 54//21 53//21 63//21
f 54//5 64//5 55//5
f 55//10 65//10 59//10
f 56//23 59//23 66//23
f 51//23 60//23 57//23
f 67//8 60//8 56//8
f 68//14 61//14 57//14
f 69//15 53//15 62//15
f 62//24 58//24 70//24
f 58//21 61//21 71//21
f 54//5 63//5 64//5
f 63//21 53//21 72//21
f 64//5 65//5 55//5
f 65//8 73//8 59//8
f 56//23 66//23 74//23
f 66//23 59//23 75//23
f 57//23 60//23 68//23
f 74//1 67//1 56//1
f 76//6 60//6 67//6
f 70//24 69//24 62//24
f 53//5 69//5 77//5
f 78//14 70//14 58//14
f 71//21 61//21 79//21
f 64//20 63//20 77//20
f 72//17 77//17 63//17
f 53//1 77//1 72//1
f 73//25 65//25 64//25
f 80//1 59//1 73//1
f 81//16 74//16 66//16
f 75//26 82//26 66//26
f 80//5 75//5 59//5
f 76//25 67//25 81//25
f 77//25 69//25 70//25
f 70//25 78//25 83//25
f 79//16 84//16 71//16
f 80//25 64//25 77//25
f 80//25 73//25 64//25
f 82//26 81//26 66//26
f 80//19 82//19 75//19
f 84//25 76//25 81//25
f 77//25 70//25 83//25
f 83//1 78//1 71//1
f 71//17 84//17 83//17
f 81//25 80//25 77//25
f 81//25 82//25 80//25
f 83//25 84//25 81//25
f 77//25 83//25 81//25
f 79//1 68//1 76//1
