# Processed with obj-simplify dev | 2018-03-17T02:30:11Z | https://github.com/jonnenauha/obj-simplify

# vertices [35]

v 1 2 1
v 1 1 1
v 0 1 1
v 1 1 0
v -1 -2 0
v -1 -3 -1
v -1 -2 -1
v 0 -2 -1
v 1 -1 1
v 0 -1 1
v 1 -1 0
v 0 -1 0
v 1 1 2
v 1 0 1
v 2 1 1
v -1 0 1
v -2 -1 0
v -3 -1 -1
v -1 1 1
v -2 0 -1
v -1 1 0
v -2 -1 -1
v -1 0 0
v 0 -1 -2
v -1 -1 -3
v -1 -1 -2
v -1 0 -2
v 1 0 -1
v 0 0 -1
v 0 1 -1
v 1 1 -1
v -1 -1 1
v 1 -1 -1
v -1 -1 -1
v -1 1 -1

# normals [15]

vn 0 0 1
vn -0.5774 0.5774 -0.5774
vn 1 0 0
vn -1 0 0
vn 0 0 -1
vn 0 -0.7071 0.7071
vn 0.7071 -0.7071 0
vn -0.7071 0.7071 0
vn 0 0.7071 -0.7071
vn 0 1 0
vn -0.5774 -0.5774 0.5774
vn 0.5774 -0.5774 -0.5774
vn -0.7071 0 0.7071
vn 0 -1 0
vn 0.7071 0 -0.7071

# objects [1]

o ht3d_021_houndsjectGreater

f 1//1 3//1 2//1
f 1//2 4//2 3//2
f 1//3 2//3 4//3
f 5//4 7//4 6//4
f 8//5 6//5 7//5
f 9//6 5//6 6//6
f 9//7 8//7 11//7
f 12//8 5//8 10//8
f 8//9 12//9 11//9
f 2//10 3//10 13//10
f 13//11 3//11 14//11
f 13//3 14//3 2//3
f 15//1 2//1 14//1
f 15//10 4//10 2//10
f 15//12 14//12 4//12
f 19//13 17//13 16//13
f 19//8 20//8 18//8
f 17//14 18//14 22//14
f 20//5 22//5 18//5
f 17//7 23//7 16//7
f 23//15 20//15 21//15
f 24//14 26//14 25//14
f 27//4 25//4 26//4
f 29//6 24//6 28//6
f 29//13 27//13 26//13
f 31//15 24//15 25//15
f 31//9 27//9 30//9
f 3//1 32//1 14//1
f 33//3 31//3 4//3
f 23//4 35//4 34//4
f 4//10 35//10 3//10
f 12//14 32//14 34//14
f 35//5 30//5 29//5
f 9//6 10//6 5//6
f 9//7 6//7 8//7
f 12//8 7//8 5//8
f 8//9 7//9 12//9
f 19//13 18//13 17//13
f 19//8 21//8 20//8
f 17//7 22//7 23//7
f 23//15 22//15 20//15
f 29//6 26//6 24//6
f 29//13 30//13 27//13
f 31//15 28//15 24//15
f 31//9 25//9 27//9
f 9//1 14//1 32//1
f 3//1 19//1 32//1
f 4//3 14//3 33//3
f 9//3 33//3 14//3
f 32//4 16//4 23//4
f 23//4 21//4 35//4
f 34//4 32//4 23//4
f 19//10 3//10 35//10
f 4//10 31//10 35//10
f 33//14 11//14 12//14
f 12//14 10//14 32//14
f 34//14 33//14 12//14
f 29//5 28//5 33//5
f 34//5 35//5 29//5
f 29//5 33//5 34//5

