v 1 0 0
v 2 0 -1
v 1 0 -1
v 1 0 -2
v -1 0 -1
v -3 0 1
v -2 0 1
v -1 0 0
v -1 0 1
v 0 0 1
v -1 0 2
v -1 0 3
v 0 0 -1
v -2.146446 0.353554 0.646446
v 0.292893 0.707107 -0.292893
v 0.707107 0.292893 0.707107
v 1 0 1
v -0.646446 0.353554 2.146446
v 0.646446 0.353554 0.853554
v 0 1 0
v -0.853554 0.353554 -0.646446
v -0.707107 0.292893 -0.707107
vn 0 -1 0
vn -0.5 0.7071 -0.5
vn 0.7071 0.7071 0
vn 0 0.7071 -0.7071
vn 0.5 0.7071 0.5
vn -0.7071 0.7071 0
vn 0 0.7071 0.7071
f 3//1 2//1 1//1 17//1
f 14//2 5//2 6//2
f 4//3 15//3 3//3
f 3//4 15//4 2//4
f 2//5 15//5 1//5
f 15//3 16//3 1//3
f 17//5 18//5 12//5
f 12//6 18//6 11//6
f 19//2 16//2 10//2
f 10//7 20//7 9//7
f 20//6 8//6 9//6
f 21//5 14//5 8//5
f 7//7 14//7 6//7
f 14//2 21//2 5//2
f 13//4 5//4 22//4
f 22//4 20//4 15//4
f 5//4 21//4 22//4
f 15//3 20//3 16//3
f 17//5 19//5 18//5
f 10//2 11//2 18//2
f 18//2 19//2 10//2
f 10//7 16//7 20//7
f 20//6 22//6 8//6
f 7//5 8//5 14//5
f 22//5 21//5 8//5
f 4//2 13//2 15//2
f 22//4 15//4 13//4
f 19//3 17//3 16//3
f 16//3 17//3 1//3
