v -0.646446 -0.5 2.146446
v 1 0 1
v -1 0 3
v 0.707107 -0.414213 0.707107
v 0.292893 -1 -0.292893
v 1 0 0
v 2 0 -1
v 1 0 -1
v 1 0 -2
v 0 0 -1
v -0.707107 -0.414213 -0.707107
v -1 0 -1
v -2.146446 -0.5 0.646446
v -3 0 1
v -2 0 1
v -0.853554 -0.5 -0.646446
v -1 0 0
v 0 -1.414214 0
v -1 0 1
v 0 0 1
v 0.646446 -0.5 0.853554
v -1 0 2
v -2.146446 0.5 0.646446
v -0.707107 0.414213 -0.707107
v 0.292893 1 -0.292893
v 0.707107 0.414213 0.707107
v -0.646446 0.5 2.146446
v 0.646446 0.5 0.853554
v 0 1.414214 0
v -0.853554 0.5 -0.646446
vn 0.5774 -0.5774 0.5774
vn 0.8165 -0.5774 0
vn 0 -0.5774 -0.8165
vn -0.5774 -0.5774 -0.5774
vn 0 -0.5774 0.8165
vn 0.5774 -0.5773 0.5773
vn -0.8165 -0.5774 0
vn 0.8165 -0.5773 0
vn 0 -0.5773 -0.8165
vn -0.5773 -0.5773 -0.5774
vn -0.5774 0.5774 -0.5774
vn 0 0.5774 -0.8165
vn 0.8165 0.5774 0
vn 0.5774 0.5774 0.5774
vn -0.8165 0.5774 0
vn -0.5773 0.5773 -0.5774
vn 0 0.5774 0.8165
vn 0 0.5773 -0.8165
vn 0.8165 0.5773 0
vn 0.5774 0.5773 0.5773
f 1//1 2//1 3//1
f 4//2 5//2 6//2
f 6//1 5//1 7//1
f 7//3 5//3 8//3
f 8//2 5//2 9//2
f 9//4 5//4 10//4
f 5//3 11//3 10//3
f 12//4 13//4 14//4
f 14//5 13//5 15//5
f 16//6 11//6 17//6
f 17//7 18//7 19//7
f 18//5 20//5 19//5
f 21//4 1//4 20//4
f 22//7 1//7 3//7
f 1//1 21//1 2//1
f 6//2 2//2 4//2
f 4//8 18//8 5//8
f 2//2 21//2 4//2
f 12//3 10//3 11//3
f 5//9 18//9 11//9
f 11//3 16//3 12//3
f 12//4 16//4 13//4
f 17//1 15//1 13//1
f 13//1 16//1 17//1
f 17//7 11//7 18//7
f 18//5 4//5 20//5
f 22//4 20//4 1//4
f 4//10 21//10 20//10
f 23//11 12//11 14//11
f 24//12 25//12 10//12
f 10//11 25//11 9//11
f 9//13 25//13 8//13
f 8//12 25//12 7//12
f 7//14 25//14 6//14
f 25//13 26//13 6//13
f 2//14 27//14 3//14
f 3//15 27//15 22//15
f 28//16 26//16 20//16
f 20//17 29//17 19//17
f 29//15 17//15 19//15
f 30//14 23//14 17//14
f 15//17 23//17 14//17
f 23//11 30//11 12//11
f 10//12 12//12 24//12
f 24//18 29//18 25//18
f 12//12 30//12 24//12
f 2//13 6//13 26//13
f 25//19 29//19 26//19
f 26//13 28//13 2//13
f 2//14 28//14 27//14
f 20//11 22//11 27//11
f 27//11 28//11 20//11
f 20//17 26//17 29//17
f 29//15 24//15 17//15
f 15//14 17//14 23//14
f 24//20 30//20 17//20
