v 2 0.5 0.5
v 2 -0.5 1.5
v -1 1.5 2.5
v -1 3.5 2.5
v -2 2.5 2.5
v 1 1.5 2.5
v 2 1.5 2.5
v 0 3.5 2.5
v -2 4.5 2.5
v -2 3.5 2.5
v 0 2.5 2.5
v 0 1.5 2.5
v 0 -0.5 2.5
v 0 0.5 2.5
v -2 1.5 2.5
v -3 3.5 2.5
v 2 1.5 1.5
v 2 1.5 -0.5
v 2 3.5 -0.5
v 2 4.5 -0.5
v 2 2.5 1.5
v 2 0.5 2.5
v 2 0.5 1.5
v 2 2.5 0.5
v 2 2.5 -0.5
v 2 2.5 -2.5
v 2 2.5 -1.5
v 2 0.5 -0.5
v 0 4.5 -1.5
v 0 4.5 0.5
v 1 4.5 -0.5
v -2 4.5 0.5
v -1 4.5 -1.5
v -3 4.5 0.5
v 1 4.5 -1.5
v 1 4.5 -2.5
v -1 4.5 -0.5
v -1 4.5 0.5
v -1 4.5 2.5
v -1 4.5 1.5
v 1 4.5 0.5
v 2 4.5 -1.5
v -3 2 2
v -3 1 3
v 0 0 1
v 0 0 -1
v 1 0 0
v -2 0 1
v -3 0 1
v -1 0 -1
v 1 0 -2
v 1 0 -1
v -1 0 0
v -1 0 1
v -1 0 3
v -1 0 2
v 1 0 1
v 2 0 -1
v -3 1 1
v -3 3 1
v -3 3 -1
v -3 3 -2
v -3 1 0
v -3 0 2
v -3 1 2
v -3 2 0
v -3 3 0
v -3 5 1e-06
v -3 4 1e-06
v -3 3 2
v -1 4 -2
v -1 2 -2
v -2 3 -2
v 1 2 -2
v 0 4 -2
v 2 2 -2
v -2 4 -2
v -2 5 -2
v 0 3 -2
v 0 2 -2
v 0 0 -2
v 0 1 -2
v -2 2 -2
v -3 4 -2
vn -0.5774 -0.5774 -0.5774
vn 0 0 1
vn 1 0 0
vn 0 1 0
vn 0.5774 0.5774 0.5774
vn 0.7071 0.7071 0
vn -0.7071 0 -0.7071
vn 0 -0.7071 -0.7071
vn 0.8944 0.4472 0
vn 0.8944 0 -0.4472
vn 0 0.4472 -0.8944
vn 0.5774 0.5774 0.5773
vn 0 0.8944 0.4472
vn -0.4472 0.8944 0
vn 0 0.7071 0.7071
vn -0.8944 0 0.4472
vn 0.7071 0 0.7071
vn -0.7071 -0.7071 0
vn 0.4472 0 0.8944
vn 0.4472 -0.8944 0
vn 0 -0.4472 0.8944
vn -0.5774 -0.5773 -0.5774
vn 0 -1 0
vn -1 0 0
vn 0 0 -1
vn -0.5773 -0.5774 -0.5774
vn -0.8944 0 -0.4472
vn -0.8944 0.4472 0
vn 0 0.8944 -0.4472
vn 0 -0.4472 -0.8944
vn 0.4472 0 -0.8944
vn 0.8944 -0.4472 0
vn -0.4472 -0.8944 0
vn -0.4472 0 0.8944
vn 0 -0.8944 0.4472
f 1//1 2//1 3//1
f 4//2 5//2 3//2
f 6//2 7//2 8//2
f 4//2 9//2 10//2
f 11//2 6//2 8//2
f 3//2 12//2 11//2
f 13//2 14//2 3//2
f 5//2 15//2 3//2
f 10//2 16//2 5//2
f 11//2 8//2 4//2
f 4//2 10//2 5//2
f 15//2 13//2 3//2
f 3//2 11//2 4//2
f 17//3 1//3 18//3
f 19//3 20//3 21//3
f 17//3 22//3 23//3
f 24//3 19//3 21//3
f 18//3 25//3 24//3
f 26//3 27//3 18//3
f 1//3 28//3 18//3
f 23//3 2//3 1//3
f 24//3 21//3 17//3
f 17//3 23//3 1//3
f 28//3 26//3 18//3
f 18//3 24//3 17//3
f 29//4 30//4 31//4
f 32//4 33//4 34//4
f 29//4 35//4 36//4
f 37//4 33//4 32//4
f 30//4 37//4 38//4
f 39//4 30//4 40//4
f 31//4 30//4 41//4
f 35//4 31//4 42//4
f 37//4 29//4 33//4
f 29//4 31//4 35//4
f 41//4 30//4 39//4
f 30//4 29//4 37//4
f 31//5 19//5 42//5
f 19//6 31//6 41//6
f 20//7 19//7 41//7
f 42//8 24//8 35//8
f 25//9 35//9 24//9
f 35//9 25//9 36//9
f 36//10 25//10 18//10
f 18//1 29//1 36//1
f 33//11 29//11 26//11
f 22//5 17//5 6//5
f 9//12 4//12 40//12
f 30//7 10//7 9//7
f 38//13 10//13 30//13
f 16//13 10//13 38//13
f 37//14 16//14 38//14
f 34//15 5//15 32//15
f 37//5 32//5 5//5
f 15//16 5//16 34//16
f 28//1 15//1 33//1
f 17//17 21//17 6//17
f 22//18 11//18 23//18
f 12//19 23//19 11//19
f 11//1 17//1 6//1
f 7//8 6//8 21//8
f 28//20 1//20 13//20
f 14//17 13//17 1//17
f 27//6 26//6 29//6
f 14//5 1//5 3//5
f 12//21 3//21 2//21
f 12//19 2//19 23//19
f 20//5 39//5 7//5
f 15//1 28//1 13//1
f 28//1 33//1 26//1
f 33//1 15//1 34//1
f 37//22 5//22 16//22
f 39//18 40//18 8//18
f 40//15 4//15 8//15
f 18//5 27//5 29//5
f 43//5 44//5 45//5
f 46//23 47//23 45//23
f 48//23 49//23 50//23
f 46//23 51//23 52//23
f 53//23 48//23 50//23
f 45//23 54//23 53//23
f 55//23 56//23 45//23
f 47//23 57//23 45//23
f 52//23 58//23 47//23
f 53//23 50//23 46//23
f 46//23 52//23 47//23
f 57//23 55//23 45//23
f 45//23 53//23 46//23
f 59//24 43//24 60//24
f 61//24 62//24 63//24
f 59//24 64//24 65//24
f 66//24 61//24 63//24
f 60//24 67//24 66//24
f 68//24 69//24 60//24
f 43//24 70//24 60//24
f 65//24 44//24 43//24
f 66//24 63//24 59//24
f 59//24 65//24 43//24
f 70//24 68//24 60//24
f 60//24 66//24 59//24
f 71//25 72//25 73//25
f 74//25 75//25 76//25
f 71//25 77//25 78//25
f 79//25 75//25 74//25
f 72//25 79//25 80//25
f 81//25 72//25 82//25
f 73//25 72//25 83//25
f 77//25 73//25 84//25
f 79//25 71//25 75//25
f 71//25 73//25 77//25
f 83//25 72//25 81//25
f 72//25 71//25 79//25
f 73//26 61//26 84//26
f 61//7 73//7 83//7
f 62//6 61//6 83//6
f 84//15 66//15 77//15
f 67//27 77//27 66//27
f 77//27 67//27 78//27
f 78//28 67//28 60//28
f 60//5 71//5 78//5
f 75//29 71//29 68//29
f 64//1 59//1 48//1
f 51//22 46//22 82//22
f 72//6 52//6 51//6
f 80//30 52//30 72//30
f 58//30 52//30 80//30
f 79//31 58//31 80//31
f 76//8 47//8 74//8
f 79//1 74//1 47//1
f 57//32 47//32 76//32
f 70//5 57//5 75//5
f 59//18 63//18 48//18
f 64//17 53//17 65//17
f 54//33 65//33 53//33
f 53//5 59//5 48//5
f 49//15 48//15 63//15
f 70//34 43//34 55//34
f 56//18 55//18 43//18
f 69//7 68//7 71//7
f 56//1 43//1 45//1
f 54//35 45//35 44//35
f 54//33 44//33 65//33
f 62//1 81//1 49//1
f 57//5 70//5 55//5
f 70//5 75//5 68//5
f 75//5 57//5 76//5
f 79//5 47//5 58//5
f 81//17 82//17 50//17
f 82//8 46//8 50//8
f 60//26 69//26 71//26
