v -0.794658 0.035349 0.944651
v -0.88 0.1 0.88
v 0 0.98 0
v -2.146446 0.353554 0.646446
v -1 0 -1
v -3 0 1
v -0.707107 0.292893 -0.707107
v 0.292893 0.707107 -0.292893
v 0 0 -1
v 1 0 -2
v 1 0 -1
v 2 0 -1
v 1 0 0
v 0.707107 0.292893 0.707107
v 1 0 1
v -0.646446 0.353554 2.146446
v -1 0 3
v -1 0 2
v 0.646446 0.353554 0.853554
v 0 0 1
v -0.9 0.1 0.9
v -0.829301 0.029283 0.970716
v -0.814657 0.035349 0.96465
v -0.78 0 0.98
v -0.8 0 1
v -0.853554 0.353554 -0.646446
v -1 0 0
v -2 0 1
v 0.98 0 0.98
v -0.944651 0.035349 0.794657
v 0.98 0 -0.98
v 0 1 0
v -0.98 0 -0.98
v -0.809302 0.029283 0.950717
v -0.970676 0.029283 0.82926
v -0.964651 0.035349 0.814657
v -0.950716 0.029283 0.809301
v -0.98 0 0.78
v -0.999968 0 0.799968
v -0.824971 0.03535 0.974965
v -0.619226 0.029279 0.760638
v -0.590002 0 0.79
v -0.614937 0.035345 0.764927
v -0.689932 0.1 0.689932
v -0.850172 0 0.949765
v -0.760638 0.029279 0.619226
v -0.949765 0 0.850172
v -0.764927 0.035346 0.614937
v -0.974965 0.03535 0.824971
v -0.789932 0 0.589932
v -0.899968 0.070423 0.899968
v -0.739774 0 0.640091
v -0.689932 0.070487 0.689932
v 0.789999 0.19 0.790001
v -0.39 0.19 0.39
v 0.39 0.19 0.39
v -0.39 0.19 -0.39
v -0.79 0.19 0.79
v -0.79 0.19 -0.79
v 0.79 0 0.79
v 0.79 0.19 -0.79
v 0.79 0 -0.79
v -0.640009 0.035346 0.79
v -0.39 0.2 0.39
v 0.39 0.2 0.39
v 0.39 0.19 -0.39
v 0.39 0.2 -0.39
v -0.79 0.1 0.79
v -0.79 0.02928 0.648588
v -0.79 0.035346 0.64001
v -0.8 0 -0.8
v 0.8 0 -0.8
v -0.79 0 -0.79
v -0.600001 0 0.8
v -0.8 0.2 0.8
v 0.799999 0.2 0.800001
v -0.39 0.2 -0.39
v -0.8 0.2 -0.8
v -0.8 0 0.6
v 0.8 0.2 -0.8
v 0.8 0 0.8
v -0.8 0.1 0.8
v -0.650009 0.035346 0.8
v -0.648588 0.02928 0.79
v -0.658588 0.02928 0.8
v -0.8 0.02928 0.658588
v -0.8 0.035346 0.650009
v -0.19 0.6 -0.19
v -0.19 0.79 0.19
v -0.19 0.6 0.19
v 0.19 0.79 0.19
v 0.19 0.6 0.19
v 0.19 0.6 -0.19
v -0.19 0.79 -0.19
v 0.09 0.79 0.09
v 0.19 0.79 -0.19
v 0.09 0.79 -0.09
v -0.09 0.79 -0.09
v 0.2 0.6 0.2
v -0.2 0.6 0.2
v -0.2 0.8 0.2
v -0.2 0.6 -0.2
v 0.2 0.6 -0.2
v 0.2 0.8 0.2
v -0.09 0.8 -0.09
v 0.2 0.8 -0.2
v -0.2 0.8 -0.2
v 0.09 0.8 -0.09
v 0.09 0.8 0.09
v -0.09 0.79 0.09
v -0.09 0.8 0.09
v -0.39 0.4 0.39
v -0.39 0.59 -0.39
v -0.39 0.59 0.39
v 0.39 0.59 0.39
v 0.39 0.4 0.39
v -0.4 0.4 0.4
v -0.39 0.4 -0.39
v 0.39 0.4 -0.39
v 0.19 0.59 -0.19
v 0.39 0.59 -0.39
v -0.19 0.59 -0.19
v -0.4 0.6 0.4
v -0.4 0.4 -0.4
v 0.4 0.4 -0.4
v 0.4 0.6 0.4
v 0.4 0.4 0.4
v 0.4 0.6 -0.4
v -0.4 0.6 -0.4
v -0.19 0.59 0.19
v 0.19 0.59 0.19
v -0.59 0.2 -0.59
v -0.59 0.39 0.59
v -0.59 0.2 0.59
v 0.59 0.39 0.59
v 0.59 0.2 0.59
v 0.59 0.2 -0.59
v -0.59 0.39 -0.59
v 0.59 0.39 -0.59
v 0.6 0.2 -0.6
v -0.6 0.2 0.6
v -0.6 0.4 -0.6
v -0.6 0.2 -0.6
v 0.6 0.4 0.6
v 0.6 0.2 0.6
v 0.6 0.4 -0.6
v 0.29 0.4 0.29
v 0.29 0.39 -0.29
v 0.29 0.39 0.29
v 0.29 0.4 -0.29
v -0.29 0.39 -0.29
v -0.29 0.4 0.29
v -0.29 0.39 0.29
v -0.6 0.4 0.6
v -0.29 0.4 -0.29
v -0.640091 0 0.739774
vn 0 -0.7071 -0.7071
vn -0.5 0.7071 -0.5
vn 0 0.7071 -0.7071
vn 0.7071 0.7071 0
vn 0.5 0.7071 0.5
vn -0.7071 0.7071 0
vn 0 0.7071 0.7071
vn -0.5 -0.7072 -0.4999
vn 0 -1 0
vn 0.7071 -0.7071 0
vn -0.7071 -0.7071 0
vn 0 -0.7071 0.7071
vn 0.5 -0.7071 0.5
vn -0.4083 -0.8165 -0.4083
vn 0.4083 -0.8165 0.4083
vn -0.5 -0.7071 -0.5
vn 0.5 -0.7072 0.4999
vn 0.5 0.7073 0.4999
vn 0.4083 0.8164 0.4083
vn -0.4083 0.8164 -0.4083
vn -0.7073 -0.0003 0.7069
vn 0.5 0.707 0.5001
vn -0.7071 0 0.7071
vn -0.5 0.7073 -0.4999
vn -0.7082 -0.0015 0.706
vn -0.706 -0.0015 0.7082
vn -0.7077 -0.0011 0.7065
vn -0.7075 -0.0013 0.7067
vn -0.7042 0.0054 0.71
vn -0.5 -0.7071 -0.5001
vn 0.5 -0.7071 0.4999
vn 0.7071 0 -0.7071
vn -1 0 0
vn 0 0 -1
vn 0 0 1
vn 1 0 0
vn 0 1 0
vn -0.5 -0.7073 -0.4999
vn -0.4083 -0.8164 -0.4083
vn 0.4083 -0.8164 0.4083
vn 0.5 -0.7073 0.4999
vn -0.7074 0.7068 0
vn -0.708 0.7063 0.0013
vn 0.5 0.7072 0.4999
vn 0.4083 0.8165 0.4083
vn -0.4083 0.8165 -0.4083
vn -0.5 0.7072 -0.4999
vn 0.7081 -0.0014 -0.7061
vn 1 -0.0042 0.0043
vn 1 0.0004 0
f 1//1 2//1 3//1
f 4//2 5//2 6//2
f 7//3 8//3 9//3
f 9//2 8//2 10//2
f 10//4 8//4 11//4
f 11//3 8//3 12//3
f 12//5 8//5 13//5
f 8//4 14//4 13//4
f 15//5 16//5 17//5
f 17//6 16//6 18//6
f 19//2 14//2 20//2
f 21//7 22//7 23//7
f 23//8 24//8 25//8
f 26//5 4//5 27//5
f 28//7 4//7 6//7
f 28//9 6//9 5//9
f 9//9 10//9 11//9
f 27//9 28//9 5//9
f 25//9 29//9 15//9
f 17//9 18//9 20//9
f 11//9 12//9 13//9
f 2//10 30//10 3//10
f 31//11 29//11 3//11
f 15//9 17//9 20//9
f 4//2 26//2 5//2
f 9//3 5//3 7//3
f 7//3 32//3 8//3
f 5//3 26//3 7//3
f 15//4 13//4 14//4
f 8//4 32//4 14//4
f 14//4 19//4 15//4
f 15//5 19//5 16//5
f 20//2 18//2 16//2
f 16//2 19//2 20//2
f 20//7 14//7 32//7
f 32//6 7//6 27//6
f 28//5 27//5 4//5
f 7//5 26//5 27//5
f 33//12 31//12 3//12
f 34//13 23//13 22//13
f 21//14 34//14 22//14
f 35//15 2//15 21//15
f 36//16 37//16 35//16
f 11//9 33//9 5//9
f 11//9 29//9 31//9
f 38//17 36//17 39//17
f 27//6 36//6 21//6
f 33//9 39//9 5//9
f 40//2 41//2 22//2
f 40//18 42//18 43//18
f 21//19 41//19 44//19
f 45//9 42//9 25//9
f 35//20 44//20 46//20
f 47//21 21//21 35//21
f 35//22 48//22 49//22
f 35//23 49//23 39//23
f 39//24 48//24 50//24
f 51//25 45//25 21//25
f 47//26 51//26 21//26
f 39//9 52//9 47//9
f 22//27 21//27 45//27
f 47//23 35//23 39//23
f 45//28 25//28 22//28
f 22//29 25//29 40//29
f 53//30 45//30 51//30
f 52//31 51//31 47//31
f 44//32 53//32 46//32
f 54//9 55//9 56//9
f 57//9 58//9 59//9
f 60//33 61//33 62//33
f 63//34 58//34 42//34
f 64//34 56//34 55//34
f 65//33 66//33 56//33
f 59//35 62//35 61//35
f 67//35 57//35 66//35
f 57//36 64//36 55//36
f 68//36 69//36 70//36
f 71//9 72//9 73//9
f 60//9 74//9 42//9
f 64//37 75//37 76//37
f 75//37 64//37 77//37
f 78//33 79//33 75//33
f 72//34 78//34 80//34
f 80//36 81//36 72//36
f 75//35 82//35 83//35
f 83//13 84//13 63//13
f 63//38 74//38 83//38
f 85//39 68//39 84//39
f 86//40 68//40 82//40
f 87//16 69//16 86//16
f 79//41 70//41 87//41
f 88//36 89//36 90//36
f 90//34 91//34 92//34
f 93//35 94//35 88//35
f 95//9 96//9 91//9
f 94//9 97//9 98//9
f 93//33 91//33 96//33
f 90//9 99//9 100//9
f 101//33 102//33 100//33
f 103//9 92//9 93//9
f 104//35 100//35 99//35
f 105//37 106//37 107//37
f 104//37 108//37 109//37
f 107//34 103//34 102//34
f 106//36 99//36 103//36
f 110//36 105//36 111//36
f 110//34 109//34 95//34
f 97//35 105//35 98//35
f 95//33 108//33 97//33
f 112//36 113//36 114//36
f 112//34 115//34 116//34
f 117//9 118//9 112//9
f 119//35 113//35 118//35
f 120//9 121//9 115//9
f 113//9 120//9 122//9
f 116//33 121//33 119//33
f 123//33 124//33 117//33
f 119//9 124//9 125//9
f 126//35 117//35 127//35
f 88//37 128//37 129//37
f 126//37 93//37 92//37
f 129//34 125//34 124//34
f 128//36 127//36 125//36
f 122//36 90//36 130//36
f 130//34 92//34 131//34
f 120//35 88//35 122//35
f 131//33 93//33 120//33
f 132//36 133//36 134//36
f 134//34 135//34 136//34
f 137//35 138//35 132//35
f 136//33 139//33 137//33
f 137//9 140//9 136//9
f 141//9 132//9 134//9
f 141//33 142//33 143//33
f 144//35 141//35 145//35
f 142//34 140//34 143//34
f 146//36 145//36 140//36
f 147//33 148//33 149//33
f 150//35 151//35 148//35
f 151//9 133//9 138//9
f 151//36 152//36 153//36
f 147//37 154//37 144//37
f 155//37 146//37 142//37
f 152//34 149//34 153//34
f 149//9 139//9 135//9
f 3//1 29//1 1//1
f 1//1 34//1 2//1
f 29//1 24//1 1//1
f 25//7 20//7 23//7
f 32//7 21//7 20//7
f 23//7 20//7 21//7
f 23//8 1//8 24//8
f 25//9 24//9 29//9
f 33//10 3//10 30//10
f 2//10 37//10 30//10
f 30//10 38//10 33//10
f 34//13 1//13 23//13
f 21//14 2//14 34//14
f 35//15 37//15 2//15
f 36//16 30//16 37//16
f 11//9 31//9 33//9
f 11//9 15//9 29//9
f 38//17 30//17 36//17
f 21//6 32//6 27//6
f 27//42 39//42 36//42
f 36//43 35//43 21//43
f 33//9 38//9 39//9
f 40//2 43//2 41//2
f 40//44 25//44 42//44
f 21//45 22//45 41//45
f 45//9 156//9 42//9
f 35//46 21//46 44//46
f 35//22 46//22 48//22
f 39//47 49//47 48//47
f 39//9 50//9 52//9
f 53//30 156//30 45//30
f 52//31 53//31 51//31
f 41//48 43//48 42//48
f 42//48 156//48 41//48
f 53//32 52//32 46//32
f 50//32 48//32 46//32
f 41//32 156//32 53//32
f 52//32 50//32 46//32
f 44//32 41//32 53//32
f 66//9 61//9 56//9
f 54//9 58//9 55//9
f 56//9 61//9 54//9
f 59//9 61//9 66//9
f 57//9 55//9 58//9
f 59//9 66//9 57//9
f 60//33 54//33 61//33
f 54//34 60//34 42//34
f 63//34 84//34 68//34
f 54//34 42//34 58//34
f 68//34 58//34 63//34
f 64//34 65//34 56//34
f 65//33 67//33 66//33
f 59//35 73//35 62//35
f 67//35 77//35 57//35
f 57//36 77//36 64//36
f 70//49 50//49 58//49
f 73//36 59//36 50//36
f 58//36 68//36 70//36
f 50//50 59//50 58//50
f 50//9 79//9 73//9
f 72//9 81//9 60//9
f 72//9 60//9 62//9
f 73//9 79//9 71//9
f 72//9 62//9 73//9
f 60//9 81//9 74//9
f 76//37 80//37 65//37
f 65//37 64//37 76//37
f 80//37 67//37 65//37
f 67//37 80//37 78//37
f 78//37 75//37 77//37
f 77//37 67//37 78//37
f 86//33 82//33 87//33
f 75//33 79//33 87//33
f 71//33 79//33 78//33
f 87//33 82//33 75//33
f 72//34 71//34 78//34
f 80//36 76//36 81//36
f 74//35 81//35 76//35
f 76//35 75//35 74//35
f 82//35 85//35 83//35
f 83//35 74//35 75//35
f 83//13 85//13 84//13
f 63//38 42//38 74//38
f 85//39 82//39 68//39
f 86//40 69//40 68//40
f 87//16 70//16 69//16
f 79//41 50//41 70//41
f 88//36 94//36 89//36
f 90//34 89//34 91//34
f 93//35 96//35 94//35
f 91//9 89//9 110//9
f 95//9 97//9 96//9
f 91//9 110//9 95//9
f 110//9 89//9 94//9
f 94//9 96//9 97//9
f 98//9 110//9 94//9
f 93//33 92//33 91//33
f 100//9 102//9 88//9
f 90//9 92//9 99//9
f 100//9 88//9 90//9
f 101//33 107//33 102//33
f 88//9 102//9 103//9
f 103//9 99//9 92//9
f 93//9 88//9 103//9
f 104//35 101//35 100//35
f 107//37 101//37 111//37
f 105//37 108//37 106//37
f 107//37 111//37 105//37
f 111//37 101//37 104//37
f 104//37 106//37 108//37
f 109//37 111//37 104//37
f 107//34 106//34 103//34
f 106//36 104//36 99//36
f 110//36 98//36 105//36
f 110//34 111//34 109//34
f 97//35 108//35 105//35
f 95//33 109//33 108//33
f 112//36 118//36 113//36
f 112//34 114//34 115//34
f 116//9 127//9 117//9
f 117//9 124//9 118//9
f 112//9 116//9 117//9
f 119//35 121//35 113//35
f 115//9 114//9 130//9
f 131//9 120//9 115//9
f 115//9 130//9 131//9
f 130//9 114//9 122//9
f 113//9 121//9 120//9
f 122//9 114//9 113//9
f 116//33 115//33 121//33
f 123//33 129//33 124//33
f 125//9 127//9 116//9
f 119//9 118//9 124//9
f 125//9 116//9 119//9
f 126//35 123//35 117//35
f 129//37 123//37 90//37
f 88//37 93//37 128//37
f 129//37 90//37 88//37
f 90//37 123//37 126//37
f 126//37 128//37 93//37
f 92//37 90//37 126//37
f 129//34 128//34 125//34
f 128//36 126//36 127//36
f 122//36 88//36 90//36
f 130//34 90//34 92//34
f 120//35 93//35 88//35
f 131//33 92//33 93//33
f 132//36 138//36 133//36
f 134//34 133//34 135//34
f 137//35 139//35 138//35
f 136//33 135//33 139//33
f 137//9 132//9 143//9
f 140//9 145//9 136//9
f 137//9 143//9 140//9
f 136//9 145//9 141//9
f 141//9 143//9 132//9
f 134//9 136//9 141//9
f 141//33 154//33 142//33
f 144//35 154//35 141//35
f 142//34 146//34 140//34
f 146//36 144//36 145//36
f 147//33 150//33 148//33
f 150//35 155//35 151//35
f 139//9 148//9 151//9
f 151//9 153//9 133//9
f 138//9 139//9 151//9
f 151//36 155//36 152//36
f 146//37 150//37 147//37
f 147//37 152//37 154//37
f 144//37 146//37 147//37
f 154//37 152//37 142//37
f 155//37 150//37 146//37
f 142//37 152//37 155//37
f 152//34 147//34 149//34
f 133//9 153//9 149//9
f 149//9 148//9 139//9
f 135//9 133//9 149//9
