v -0.98 0 -0.98
v 0.98 0 -0.98
v 0.98 0 0.98
v 0 0.98 0
v 0 0 -1
v 1 0 0
v 0 0 1
v -2.146446 0.353554 0.646446
v -1 0 -1
v -3 0 1
v 0.292893 0.707107 -0.292893
v 1 0 -2
v 1 0 -1
v 2 0 -1
v 0.707107 0.292893 0.707107
v 1 0 1
v -0.646446 0.353554 2.146446
v -1 0 3
v -1 0 2
v 0.646446 0.353554 0.853554
v -1 0 0
v -0.853554 0.353554 -0.646446
v -2 0 1
v -0.707107 0.292893 -0.707107
v 0 1 0
v -0.964651 0.035349 0.814657
v -0.944651 0.035349 0.794657
v -0.98 0 0.78
v -0.829301 0.029283 0.970716
v -0.809302 0.029283 0.950717
v -0.9 0.1 0.9
v -0.88 0.1 0.88
v -0.814657 0.035349 0.96465
v -0.794658 0.035349 0.944651
v -0.8 0 1
v -0.78 0 0.98
v -0.950716 0.029283 0.809301
v -0.824971 0.03535 0.974965
v -0.850172 0 0.949765
v -0.970676 0.029283 0.82926
v -0.899968 0.070423 0.899968
v -0.974965 0.03535 0.824971
v -0.999968 0 0.799968
v -0.949765 0 0.850172
v -0.739774 0 0.640091
v -0.789932 0 0.589932
v -0.760638 0.029279 0.619226
v -0.764927 0.035346 0.614937
v -0.640091 0 0.739774
v -0.614937 0.035345 0.764927
v -0.619226 0.029279 0.760638
v -0.689932 0.1 0.689932
v -0.689932 0.070487 0.689932
v 0.79 0.19 -0.79
v 0.789999 0.19 0.790001
v -0.79 0.19 0.79
v -0.39 0.19 0.39
v 0.39 0.19 0.39
v 0.39 0.19 -0.39
v -0.39 0.19 -0.39
v -0.79 0.19 -0.79
v 0.79 0 -0.79
v 0.79 0 0.79
v -0.590002 0 0.79
v -0.640009 0.035346 0.79
v -0.648588 0.02928 0.79
v -0.79 0.1 0.79
v -0.39 0.2 0.39
v 0.39 0.2 0.39
v 0.39 0.2 -0.39
v -0.79 0 -0.79
v -0.39 0.2 -0.39
v -0.79 0.02928 0.648588
v -0.79 0.035346 0.64001
v -0.8 0 -0.8
v 0.8 0 -0.8
v 0.8 0 0.8
v -0.600001 0 0.8
v 0.8 0.2 -0.8
v -0.8 0.2 0.8
v 0.799999 0.2 0.800001
v -0.8 0.2 -0.8
v -0.8 0.1 0.8
v -0.8 0.035346 0.650009
v -0.8 0.02928 0.658588
v -0.658588 0.02928 0.8
v -0.650009 0.035346 0.8
v -0.8 0 0.6
v -0.19 0.79 -0.19
v -0.19 0.79 0.19
v 0.19 0.79 0.19
v -0.2 0.6 0.2
v 0.19 0.6 -0.19
v 0.19 0.79 -0.19
v -0.09 0.79 0.09
v 0.09 0.79 0.09
v 0.09 0.79 -0.09
v -0.09 0.79 -0.09
v -0.2 0.6 -0.2
v 0.2 0.6 -0.2
v 0.2 0.6 0.2
v -0.2 0.8 0.2
v -0.2 0.8 -0.2
v 0.2 0.8 0.2
v -0.09 0.8 0.09
v -0.09 0.8 -0.09
v 0.09 0.8 -0.09
v 0.2 0.8 -0.2
v 0.09 0.8 0.09
v -0.39 0.4 0.39
v -0.39 0.4 -0.39
v -0.39 0.59 -0.39
v -0.39 0.59 0.39
v 0.39 0.4 0.39
v 0.39 0.59 0.39
v -0.4 0.4 0.4
v 0.39 0.4 -0.39
v 0.39 0.59 -0.39
v -0.19 0.59 0.19
v 0.19 0.59 0.19
v 0.19 0.59 -0.19
v -0.19 0.59 -0.19
v -0.4 0.4 -0.4
v 0.4 0.4 -0.4
v 0.4 0.4 0.4
v -0.4 0.6 0.4
v -0.4 0.6 -0.4
v 0.4 0.6 0.4
v -0.19 0.6 0.19
v -0.19 0.6 -0.19
v 0.4 0.6 -0.4
v 0.19 0.6 0.19
v -0.59 0.2 0.59
v -0.59 0.2 -0.59
v -0.59 0.39 -0.59
v -0.59 0.39 0.59
v 0.59 0.2 0.59
v 0.59 0.39 0.59
v -0.6 0.2 0.6
v 0.59 0.2 -0.59
v 0.59 0.39 -0.59
v -0.6 0.2 -0.6
v 0.6 0.2 -0.6
v 0.6 0.2 0.6
v -0.6 0.4 0.6
v -0.6 0.4 -0.6
v 0.6 0.4 0.6
v 0.6 0.4 -0.6
v -0.29 0.4 0.29
v -0.29 0.39 0.29
v 0.29 0.4 0.29
v 0.29 0.39 0.29
v -0.29 0.4 -0.29
v -0.29 0.39 -0.29
v 0.29 0.4 -0.29
v 0.29 0.39 -0.29
vn 0 -0.7071 -0.7071
vn -0.5 0.7071 -0.5
vn 0 0.7071 -0.7071
vn 0.7071 0.7071 0
vn 0.5 0.7071 0.5
vn -0.7071 0.7071 0
vn 0 0.7071 0.7071
vn -0.4999 -0.7072 -0.4999
vn 0 -1 0
vn 0.7071 -0.7071 0
vn -0.7071 -0.7071 0
vn 0 -0.7071 0.7071
vn 0.5 -0.7071 0.5
vn -0.4083 -0.8165 -0.4083
vn 0.4083 -0.8165 0.4083
vn -0.5 -0.7071 -0.5
vn 0.4999 -0.7072 0.4999
vn 0.4999 0.7073 0.4999
vn 0.4083 0.8164 0.4083
vn -0.4083 0.8164 -0.4083
vn -0.7073 -0.0003 0.7069
vn -0.7071 0 0.7071
vn -0.4999 0.7073 -0.4999
vn -0.7082 -0.0015 0.706
vn -0.706 -0.0015 0.7082
vn -0.7077 -0.0011 0.7065
vn -0.7076 -0.0013 0.7067
vn -0.7042 0.0054 0.71
vn -0.4999 -0.7071 -0.5001
vn 0.5001 -0.7071 0.4999
vn 0.7071 0 -0.7071
vn -1 0 0
vn 0 0 -1
vn 0 0 1
vn 1 0 0
vn 0 1 0
vn -0.4999 -0.7073 -0.4999
vn 0.4083 -0.8164 0.4083
vn 0.4999 -0.7073 0.4999
vn -0.7074 0.7068 0
vn -0.7079 0.7063 0.0013
vn 0.4999 0.7072 0.4999
vn 0.4083 0.8165 0.4083
vn -0.4083 0.8165 -0.4083
vn -0.4999 0.7072 -0.4999
vn 0.7081 -0.0014 -0.7061
vn 1 -0.0042 0.0043
vn 1 0.0004 0
vn -0.4083 -0.8164 -0.4083
f 34//1 32//1 4//1
f 8//2 9//2 10//2
f 24//3 11//3 5//3
f 5//2 11//2 12//2
f 12//4 11//4 13//4
f 13//3 11//3 14//3
f 14//5 11//5 6//5
f 11//4 15//4 6//4
f 16//5 17//5 18//5
f 18//6 17//6 19//6
f 20//2 15//2 7//2
f 31//7 29//7 33//7
f 33//8 36//8 35//8
f 22//5 8//5 21//5
f 23//7 8//7 10//7
f 23//9 10//9 9//9
f 5//9 12//9 13//9
f 21//9 23//9 9//9
f 35//9 3//9 16//9
f 18//9 19//9 7//9
f 13//9 14//9 6//9
f 32//10 27//10 4//10
f 2//11 3//11 4//11
f 16//9 18//9 7//9
f 8//2 22//2 9//2
f 5//3 9//3 24//3
f 24//3 25//3 11//3
f 9//3 22//3 24//3
f 16//4 6//4 15//4
f 11//4 25//4 15//4
f 15//4 20//4 16//4
f 16//5 20//5 17//5
f 7//2 19//2 17//2
f 17//2 20//2 7//2
f 7//7 15//7 25//7
f 25//6 24//6 21//6
f 23//5 21//5 8//5
f 24//4 22//4 21//4
f 1//12 2//12 4//12
f 30//13 33//13 29//13
f 31//14 30//14 29//14
f 40//15 32//15 31//15
f 26//16 37//16 40//16
f 13//9 1//9 9//9
f 13//9 3//9 2//9
f 28//17 26//17 43//17
f 21//6 26//6 31//6
f 1//9 43//9 9//9
f 38//2 51//2 29//2
f 38//18 64//18 50//18
f 31//19 51//19 52//19
f 39//9 64//9 35//9
f 40//20 52//20 47//20
f 44//21 31//21 40//21
f 40//5 48//5 42//5
f 40//22 42//22 43//22
f 43//23 48//23 46//23
f 41//24 39//24 31//24
f 44//25 41//25 31//25
f 43//9 45//9 44//9
f 29//26 31//26 39//26
f 44//22 40//22 43//22
f 39//27 35//27 29//27
f 29//28 35//28 38//28
f 53//29 39//29 41//29
f 45//30 41//30 44//30
f 52//31 53//31 47//31
f 55//9 57//9 58//9
f 60//9 56//9 61//9
f 63//32 54//32 62//32
f 65//33 56//33 64//33
f 68//33 58//33 57//33
f 69//32 59//32 58//32
f 61//34 62//34 54//34
f 70//34 60//34 59//34
f 60//35 68//35 57//35
f 67//35 73//35 74//35
f 75//9 76//9 71//9
f 63//9 78//9 64//9
f 68//36 80//36 81//36
f 80//36 68//36 72//36
f 82//32 88//32 80//32
f 76//33 82//33 79//33
f 79//35 77//35 76//35
f 80//34 83//34 87//34
f 87//13 66//13 65//13
f 65//37 78//37 87//37
f 86//14 67//14 66//14
f 85//38 67//38 83//38
f 84//16 73//16 85//16
f 88//39 74//39 84//39
f 130//35 90//35 129//35
f 129//33 91//33 132//33
f 93//34 89//34 130//34
f 96//9 94//9 91//9
f 89//9 97//9 98//9
f 93//32 91//32 94//32
f 129//9 101//9 92//9
f 102//32 99//32 92//32
f 100//9 132//9 93//9
f 104//34 92//34 101//34
f 106//36 108//36 103//36
f 104//36 107//36 109//36
f 103//33 100//33 99//33
f 108//35 101//35 100//35
f 95//35 106//35 105//35
f 95//33 109//33 96//33
f 97//34 106//34 98//34
f 96//32 107//32 97//32
f 110//35 112//35 113//35
f 110//33 115//33 114//33
f 116//9 111//9 110//9
f 117//34 112//34 111//34
f 121//9 118//9 115//9
f 112//9 121//9 122//9
f 114//32 118//32 117//32
f 126//32 123//32 116//32
f 117//9 123//9 124//9
f 128//34 116//34 125//34
f 130//36 131//36 127//36
f 128//36 93//36 132//36
f 127//33 124//33 123//33
f 131//35 125//35 124//35
f 122//35 129//35 119//35
f 119//33 132//33 120//33
f 121//34 130//34 122//34
f 120//32 93//32 121//32
f 134//35 136//35 133//35
f 133//33 138//33 137//33
f 140//34 135//34 134//34
f 137//32 141//32 140//32
f 140//9 143//9 137//9
f 139//9 134//9 133//9
f 139//32 146//32 142//32
f 147//34 139//34 144//34
f 146//33 143//33 142//33
f 148//35 144//35 143//35
f 151//32 156//32 152//32
f 155//34 154//34 156//34
f 154//9 136//9 135//9
f 154//35 149//35 150//35
f 151//36 145//36 147//36
f 153//36 148//36 146//36
f 149//33 152//33 150//33
f 152//9 141//9 138//9
f 4//1 3//1 34//1
f 34//1 30//1 32//1
f 3//1 36//1 34//1
f 35//7 7//7 33//7
f 25//7 31//7 7//7
f 33//7 7//7 31//7
f 33//8 34//8 36//8
f 35//9 36//9 3//9
f 1//10 4//10 27//10
f 32//10 37//10 27//10
f 27//10 28//10 1//10
f 30//13 34//13 33//13
f 31//14 32//14 30//14
f 40//15 37//15 32//15
f 26//16 27//16 37//16
f 13//9 2//9 1//9
f 13//9 16//9 3//9
f 28//17 27//17 26//17
f 31//6 25//6 21//6
f 21//40 43//40 26//40
f 26//41 40//41 31//41
f 1//9 28//9 43//9
f 38//2 50//2 51//2
f 38//42 35//42 64//42
f 31//43 29//43 51//43
f 39//9 49//9 64//9
f 40//44 31//44 52//44
f 40//5 47//5 48//5
f 43//45 42//45 48//45
f 43//9 46//9 45//9
f 53//29 49//29 39//29
f 45//30 53//30 41//30
f 51//46 50//46 64//46
f 64//46 49//46 51//46
f 53//31 45//31 47//31
f 46//31 48//31 47//31
f 51//31 49//31 53//31
f 45//31 46//31 47//31
f 52//31 51//31 53//31
f 59//9 54//9 58//9
f 55//9 56//9 57//9
f 58//9 54//9 55//9
f 61//9 54//9 59//9
f 60//9 57//9 56//9
f 61//9 59//9 60//9
f 63//32 55//32 54//32
f 55//33 63//33 64//33
f 65//33 66//33 67//33
f 55//33 64//33 56//33
f 67//33 56//33 65//33
f 68//33 69//33 58//33
f 69//32 70//32 59//32
f 61//34 71//34 62//34
f 70//34 72//34 60//34
f 60//35 72//35 68//35
f 74//47 46//47 56//47
f 71//35 61//35 46//35
f 56//35 67//35 74//35
f 46//48 61//48 56//48
f 46//9 88//9 71//9
f 76//9 77//9 63//9
f 76//9 63//9 62//9
f 71//9 88//9 75//9
f 76//9 62//9 71//9
f 63//9 77//9 78//9
f 81//36 79//36 69//36
f 69//36 68//36 81//36
f 79//36 70//36 69//36
f 70//36 79//36 82//36
f 82//36 80//36 72//36
f 72//36 70//36 82//36
f 85//32 83//32 84//32
f 80//32 88//32 84//32
f 75//32 88//32 82//32
f 84//32 83//32 80//32
f 76//33 75//33 82//33
f 79//35 81//35 77//35
f 78//34 77//34 81//34
f 81//34 80//34 78//34
f 83//34 86//34 87//34
f 87//34 78//34 80//34
f 87//13 86//13 66//13
f 65//37 64//37 78//37
f 86//49 83//49 67//49
f 85//38 73//38 67//38
f 84//16 74//16 73//16
f 88//39 46//39 74//39
f 130//35 89//35 90//35
f 129//33 90//33 91//33
f 93//34 94//34 89//34
f 91//9 90//9 95//9
f 96//9 97//9 94//9
f 91//9 95//9 96//9
f 95//9 90//9 89//9
f 89//9 94//9 97//9
f 98//9 95//9 89//9
f 93//32 132//32 91//32
f 92//9 99//9 130//9
f 129//9 132//9 101//9
f 92//9 130//9 129//9
f 102//32 103//32 99//32
f 130//9 99//9 100//9
f 100//9 101//9 132//9
f 93//9 130//9 100//9
f 104//34 102//34 92//34
f 103//36 102//36 105//36
f 106//36 107//36 108//36
f 103//36 105//36 106//36
f 105//36 102//36 104//36
f 104//36 108//36 107//36
f 109//36 105//36 104//36
f 103//33 108//33 100//33
f 108//35 104//35 101//35
f 95//35 98//35 106//35
f 95//33 105//33 109//33
f 97//34 107//34 106//34
f 96//32 109//32 107//32
f 110//35 111//35 112//35
f 110//33 113//33 115//33
f 114//9 125//9 116//9
f 116//9 123//9 111//9
f 110//9 114//9 116//9
f 117//34 118//34 112//34
f 115//9 113//9 119//9
f 120//9 121//9 115//9
f 115//9 119//9 120//9
f 119//9 113//9 122//9
f 112//9 118//9 121//9
f 122//9 113//9 112//9
f 114//32 115//32 118//32
f 126//32 127//32 123//32
f 124//9 125//9 114//9
f 117//9 111//9 123//9
f 124//9 114//9 117//9
f 128//34 126//34 116//34
f 127//36 126//36 129//36
f 130//36 93//36 131//36
f 127//36 129//36 130//36
f 129//36 126//36 128//36
f 128//36 131//36 93//36
f 132//36 129//36 128//36
f 127//33 131//33 124//33
f 131//35 128//35 125//35
f 122//35 130//35 129//35
f 119//33 129//33 132//33
f 121//34 93//34 130//34
f 120//32 132//32 93//32
f 134//35 135//35 136//35
f 133//33 136//33 138//33
f 140//34 141//34 135//34
f 137//32 138//32 141//32
f 140//9 134//9 142//9
f 143//9 144//9 137//9
f 140//9 142//9 143//9
f 137//9 144//9 139//9
f 139//9 142//9 134//9
f 133//9 137//9 139//9
f 139//32 145//32 146//32
f 147//34 145//34 139//34
f 146//33 148//33 143//33
f 148//35 147//35 144//35
f 151//32 155//32 156//32
f 155//34 153//34 154//34
f 141//9 156//9 154//9
f 154//9 150//9 136//9
f 135//9 141//9 154//9
f 154//35 153//35 149//35
f 148//36 155//36 151//36
f 151//36 149//36 145//36
f 147//36 148//36 151//36
f 145//36 149//36 146//36
f 153//36 155//36 148//36
f 146//36 149//36 153//36
f 149//33 151//33 152//33
f 136//9 150//9 152//9
f 152//9 156//9 141//9
f 138//9 136//9 152//9
